<?xml version="1.0" encoding="UTF-8" standalone="no"?>
<!-- Created with Inkscape (http://www.inkscape.org/) -->

<svg
   version="1.0"
   width="581.98798"
   height="581.98798"
   id="svg4337"
   sodipodi:docname="bbc-radio-5.svg"
   inkscape:version="1.2.2 (b0a8486541, 2022-12-01)"
   xmlns:inkscape="http://www.inkscape.org/namespaces/inkscape"
   xmlns:sodipodi="http://sodipodi.sourceforge.net/DTD/sodipodi-0.dtd"
   xmlns="http://www.w3.org/2000/svg"
   xmlns:svg="http://www.w3.org/2000/svg">
  <sodipodi:namedview
     id="namedview9"
     pagecolor="#ffffff"
     bordercolor="#000000"
     borderopacity="0.25"
     inkscape:showpageshadow="2"
     inkscape:pageopacity="0.0"
     inkscape:pagecheckerboard="0"
     inkscape:deskcolor="#d1d1d1"
     showgrid="false"
     inkscape:zoom="1.1529444"
     inkscape:cx="212.06573"
     inkscape:cy="432.80491"
     inkscape:window-width="2560"
     inkscape:window-height="1377"
     inkscape:window-x="-8"
     inkscape:window-y="-8"
     inkscape:window-maximized="1"
     inkscape:current-layer="svg4337" />
  <defs
     id="defs4339" />
  <rect
     style="fill:#ffffff;stroke:#ffffff;stroke-width:32.0533;stroke-linejoin:round"
     id="rect290"
     width="549.93463"
     height="549.93469"
     x="16.026663"
     y="16.026663" />
  <g
     transform="translate(-143.50001,60.920401)"
     id="layer1">
    <g
       transform="matrix(1.000022,0,0,1.000022,17.719842,17.70954)"
       id="g4401">
      <rect
         width="119.99451"
         height="156.26151"
         x="364.90866"
         y="135.83694"
         id="rect4399"
         style="display:inline;overflow:visible;visibility:visible;opacity:1;fill:#ffffff;fill-opacity:1;fill-rule:nonzero;stroke:none;marker:none;marker-start:none;marker-mid:none;marker-end:none" />
      <path
         d="m 143.5,112.625 v 40.5625 h 43.125 V 112.625 Z m 49.6875,0 v 40.5625 h 43.09375 V 112.625 Z m 49.65625,0 v 40.5625 H 285.9375 V 112.625 Z m 23.4375,5.28125 c 0.38565,0 0.77218,0.043 1.1875,0.0625 0.22743,0.0244 0.49133,0.0235 0.71875,0.0625 0.3461,0.0195 0.66875,0.0547 1,0.0937 l 0.21875,0.0312 c 0.19777,0.0439 0.41083,0.0547 0.59375,0.0937 0.23238,0.0342 0.43376,0.10745 0.65625,0.15625 0.22744,0.0391 0.43871,0.0811 0.65625,0.125 0.13843,0.039 0.28759,0.0596 0.40625,0.0937 0.20271,0.0537 0.3861,0.10257 0.59375,0.15625 0.15327,0.0488 0.3418,0.11233 0.5,0.15625 l 0.125,0.0312 c 0.178,0.0439 0.33189,0.086 0.5,0.125 0.22249,0.0634 0.4486,0.14555 0.65625,0.21875 0.18293,0.0635 0.35822,0.13382 0.53125,0.1875 0.21755,0.0732 0.40586,0.14555 0.59375,0.21875 0.35598,0.11713 0.67545,0.21977 0.9375,0.3125 0.58341,0.23425 0.90624,0.375 0.90625,0.375 v 5.4375 L 276.5,125.531 c -0.2126,-0.10736 -0.44841,-0.2452 -0.75,-0.40625 -0.17305,-0.083 -0.3598,-0.21002 -0.5625,-0.3125 -0.24226,-0.10737 -0.48301,-0.22663 -0.75,-0.34375 -0.32631,-0.13665 -0.67528,-0.27645 -1.03125,-0.4375 -0.26204,-0.0927 -0.5192,-0.21002 -0.78125,-0.3125 0,0 -0.19841,-0.0752 -0.5,-0.1875 -0.17799,-0.0488 -0.38925,-0.0948 -0.65625,-0.1875 -0.17799,-0.0488 -0.38609,-0.11233 -0.59375,-0.15625 -0.33621,-0.083 -0.69822,-0.18853 -1.09375,-0.28125 -0.2571,-0.039 -0.53068,-0.0713 -0.8125,-0.125 -0.31643,-0.0439 -0.6638,-0.0859 -1,-0.125 -0.18788,-0.0195 -0.36474,-0.0381 -0.5625,-0.0625 -0.27687,-0.01 -0.53069,0 -0.8125,0 -0.13843,-0.01 -0.26287,-0.0312 -0.40625,-0.0312 -0.37576,0 -0.77712,0.0283 -1.1875,0.0625 -0.21754,0.0195 -0.41735,0.043 -0.625,0.0625 -0.22249,0.0439 -0.44858,0.0547 -0.65625,0.0937 -0.18788,0.039 -0.36967,0.0811 -0.5625,0.125 -0.19777,0.0488 -0.40587,0.10256 -0.59375,0.15625 -0.2126,0.0634 -0.43219,0.11429 -0.625,0.1875 -0.19777,0.0634 -0.36966,0.15042 -0.5625,0.21875 -0.18293,0.083 -0.37462,0.12602 -0.5625,0.21875 -1.17177,0.53195 -2.32525,1.30717 -3.34375,2.3125 -0.0692,0.0732 -0.11333,0.16018 -0.1875,0.21875 -0.12855,0.14152 -0.25635,0.27448 -0.375,0.40625 -0.089,0.11713 -0.16595,0.23638 -0.25,0.34375 -0.22743,0.30745 -0.44702,0.62516 -0.625,0.9375 -0.084,0.12688 -0.17583,0.28621 -0.25,0.4375 -0.0989,0.18057 -0.16594,0.37217 -0.25,0.5625 -0.0692,0.12688 -0.14794,0.27448 -0.1875,0.40625 -0.089,0.21473 -0.14952,0.39366 -0.21875,0.59375 -0.0643,0.20985 -0.11175,0.44152 -0.15625,0.65625 -0.0791,0.31234 -0.14794,0.59193 -0.1875,0.875 -0.0643,0.45386 -0.0839,0.83902 -0.0937,1.15625 v 0.34375 c 0,0.16104 -0.01,0.33801 0,0.5625 0.01,0.14641 0.007,0.3292 0.0312,0.5 0.0494,0.44898 0.14775,1.00127 0.28125,1.5625 0.0643,0.20497 0.087,0.40342 0.15625,0.59375 0.0939,0.2733 0.19384,0.55384 0.3125,0.8125 0.0692,0.16105 0.15448,0.37021 0.21875,0.53125 0.10877,0.19033 0.20371,0.37217 0.3125,0.5625 0.0791,0.13177 0.15606,0.27936 0.25,0.40625 0.0841,0.14153 0.1873,0.26472 0.28125,0.40625 0.11372,0.12689 0.20866,0.2745 0.3125,0.40625 0.21754,0.24402 0.47155,0.50599 0.71875,0.75 l 0.0625,0.0625 0.0625,0.0625 0.0937,0.0937 0.15625,0.15625 c 0.13844,0.10737 0.31053,0.22174 0.46875,0.34375 0.14833,0.11713 0.28423,0.24127 0.4375,0.34375 0.13349,0.10248 0.27769,0.19829 0.40625,0.28125 0.13844,0.083 0.25138,0.15043 0.375,0.21875 0.26698,0.15129 0.53563,0.28424 0.8125,0.40625 0.12855,0.0586 0.25635,0.12406 0.375,0.1875 0.084,0.0293 0.17089,0.0742 0.25,0.0937 0.11866,0.0488 0.22015,0.0908 0.34375,0.125 0.77129,0.2977 1.57897,0.49323 2.375,0.625 0.50926,0.0634 0.98422,0.11721 1.46875,0.15625 0.41531,0.0293 0.82815,0.0625 1.21875,0.0625 0.19282,0 0.37126,-0.0215 0.59375,-0.0312 0.31149,-0.01 0.65055,-0.0332 1.03125,-0.0625 0.2571,-0.0293 0.50437,-0.086 0.78125,-0.125 0.11372,-0.01 0.22511,-0.0215 0.34375,-0.0312 0.97895,-0.19033 2.10117,-0.47192 3.3125,-0.90625 0.62791,-0.22449 1.2914,-0.48065 1.96875,-0.8125 0.39059,-0.19033 0.7969,-0.38877 1.1875,-0.59375 0.36587,-0.21473 0.71305,-0.41224 1.09375,-0.65625 l 0.375,-0.21875 c 0.0643,-0.0293 0.14955,-0.0811 0.21875,-0.125 v 5.53125 c -0.0989,0.0293 -0.1972,0.0811 -0.28125,0.125 -0.23238,0.0976 -0.45847,0.2149 -0.65625,0.3125 -0.23732,0.11713 -0.46996,0.21489 -0.6875,0.3125 -0.35598,0.15129 -0.67546,0.27251 -0.9375,0.375 -0.18787,0.083 -0.34516,0.14357 -0.46875,0.1875 l -0.25,0.0625 c -0.26204,0.0927 -0.50436,0.19828 -0.78125,0.28125 -0.23237,0.083 -0.49785,0.12405 -0.75,0.1875 -0.33126,0.0927 -0.68181,0.19829 -1.0625,0.28125 -0.24227,0.039 -0.46659,0.0811 -0.71875,0.125 -0.40542,0.0781 -0.82638,0.13868 -1.28125,0.1875 -0.2917,0.039 -0.58982,0.0908 -0.90625,0.125 h -0.125 c -0.77623,0.0634 -1.62645,0.0937 -2.53125,0.0937 h -0.34375 c -0.24226,-0.0195 -0.49785,-0.0215 -0.75,-0.0312 -0.49936,-0.0293 -0.99906,-0.0616 -1.46875,-0.125 -0.46969,-0.0537 -0.93497,-0.10455 -1.375,-0.1875 -0.53891,-0.11713 -1.05818,-0.26961 -1.5625,-0.40625 -0.2917,-0.083 -0.56191,-0.14752 -0.84375,-0.25 -0.27193,-0.10249 -0.5291,-0.17388 -0.78125,-0.28125 -0.69713,-0.28305 -1.33768,-0.62516 -1.90625,-0.9375 -0.29171,-0.16105 -0.54058,-0.33408 -0.8125,-0.5 -0.24721,-0.15617 -0.46501,-0.27645 -0.6875,-0.4375 -0.17305,-0.12688 -0.36809,-0.27449 -0.53125,-0.40625 -0.17799,-0.13664 -0.34672,-0.27936 -0.5,-0.40625 -0.23238,-0.19033 -0.43217,-0.39169 -0.625,-0.5625 l -0.0937,-0.125 c -0.22743,-0.21473 -0.46007,-0.45523 -0.6875,-0.71875 -0.18788,-0.22449 -0.38944,-0.45324 -0.5625,-0.6875 -0.17305,-0.21961 -0.36809,-0.43373 -0.53125,-0.6875 -0.12855,-0.18057 -0.25139,-0.35753 -0.375,-0.5625 -0.14338,-0.24889 -0.28423,-0.51285 -0.4375,-0.78125 -0.23238,-0.44898 -0.47985,-0.91335 -0.6875,-1.40625 -0.12361,-0.31234 -0.23992,-0.65155 -0.34375,-0.96875 -0.0989,-0.28794 -0.16595,-0.5607 -0.25,-0.84375 -0.0445,-0.21473 -0.11177,-0.41027 -0.15625,-0.625 -0.0198,-0.10737 -0.0427,-0.23638 -0.0625,-0.34375 -0.0494,-0.25865 -0.0904,-0.49819 -0.125,-0.78125 l -0.0312,-0.1875 c -0.0198,-0.23425 -0.0378,-0.45326 -0.0625,-0.6875 0,-0.23425 0,-0.45325 0,-0.6875 0,-0.30257 0.007,-0.60855 0.0312,-0.90625 0.0247,-0.39042 0.0492,-0.77559 0.0937,-1.15625 0.15822,-1.19078 0.44328,-2.32575 0.84375,-3.375 0.33126,-0.82476 0.73264,-1.62147 1.1875,-2.34375 0.0643,-0.13177 0.12975,-0.25787 0.21875,-0.375 0.11866,-0.19033 0.23656,-0.36044 0.375,-0.53125 0.16316,-0.22937 0.33348,-0.4464 0.53125,-0.65625 0.15326,-0.21473 0.31706,-0.42491 0.5,-0.625 0.15327,-0.20497 0.34832,-0.36044 0.53125,-0.53125 0.20766,-0.20009 0.4387,-0.42491 0.65625,-0.625 0.26205,-0.2245 0.50931,-0.45616 0.78125,-0.65625 0.12855,-0.10736 0.28264,-0.18853 0.40625,-0.28125 0.16315,-0.12201 0.30559,-0.22662 0.46875,-0.34375 0.28676,-0.18057 0.5997,-0.3458 0.90625,-0.53125 0.32137,-0.18057 0.62265,-0.36533 0.96875,-0.53125 0.40543,-0.20497 0.86257,-0.37705 1.3125,-0.5625 0.87017,-0.33674 1.8203,-0.62414 2.84375,-0.84375 0.15821,-0.0342 0.32201,-0.0742 0.5,-0.0937 0.11866,-0.0342 0.25138,-0.043 0.375,-0.0625 l 0.28125,-0.0625 0.21875,-0.0312 0.21875,-0.0312 c 0.25215,-0.039 0.48301,-0.043 0.75,-0.0625 0.16811,-0.0195 0.34832,-0.0625 0.53125,-0.0625 0.30654,-0.0244 0.63749,-0.0215 0.96875,-0.0312 0.17305,0 0.25951,-0.0312 0.4375,-0.0312 z M 154.8125,118.3125 h 9.5 c 5.09745,0 7.34375,2.65625 7.34375,2.65625 0,0 2.0625,1.79265 2.0625,4.90625 0,3.0648 -1.39066,4.32345 -1.78125,4.71875 -0.84051,0.83941 -1.9375,1.34374 -1.9375,1.34375 0,0 2.40406,0.50783 4.3125,2.40625 2.23477,2.23027 2.06251,5.15625 2.0625,5.15625 0,0 0.18907,2.78155 -2.21875,5.1875 -2.95662,2.95256 -8.34374,2.84374 -8.34375,2.84375 h -11 z m 49.65625,0 h 9.5 c 5.09744,0 7.375,2.65625 7.375,2.65625 0,0 2.06249,1.79265 2.0625,4.90625 0,3.0648 -1.42191,4.32345 -1.8125,4.71875 -0.8504,0.83941 -1.9375,1.34374 -1.9375,1.34375 0,0 2.4353,0.50783 4.34375,2.40625 2.22982,2.23027 2.0625,5.15625 2.0625,5.15625 0,0 0.15781,2.78155 -2.25,5.1875 -2.96156,2.95256 -8.34375,2.84374 -8.34375,2.84375 h -11 z m -44.40625,4.59375 v 7.5625 h 2.5 c 1e-5,-1e-5 0.15746,0 0.375,0 0.17304,-0.01 0.37956,-0.007 0.5625,-0.0312 0.5142,-0.0391 1.26173,-0.086 1.96875,-0.28125 0.13844,-0.0439 0.26782,-0.11232 0.40625,-0.15625 0.55376,-0.20498 1.08469,-0.49631 1.5,-0.90625 0.32632,-0.32698 0.53423,-0.67987 0.6875,-1.03125 0.17798,-0.42457 0.25653,-0.84683 0.28125,-1.125 0.0247,-0.2733 0.0312,-0.4375 0.0312,-0.4375 v -0.3125 c -0.0346,-0.33186 -0.0867,-0.88406 -0.34375,-1.40625 -0.12361,-0.24401 -0.31865,-0.46789 -0.53125,-0.6875 -0.29171,-0.28794 -0.62424,-0.50496 -1,-0.65625 -0.70701,-0.31233 -1.52657,-0.45608 -2.21875,-0.5 -0.28676,-0.0195 -0.56371,-0.0312 -0.78125,-0.0312 z m 49.65625,0 v 7.5625 h 2.5 c 1e-5,-1e-5 0.15746,0 0.375,0 0.18788,-0.01 0.38451,-0.007 0.5625,-0.0312 0.51421,-0.0391 1.25679,-0.086 1.96875,-0.28125 0.14833,-0.0439 0.28759,-0.11232 0.40625,-0.15625 0.56363,-0.20498 1.1011,-0.49631 1.53125,-0.90625 0.32631,-0.32698 0.51286,-0.67987 0.65625,-1.03125 0.18293,-0.42457 0.25653,-0.84683 0.28125,-1.125 0.0148,-0.2733 0.0312,-0.4375 0.0312,-0.4375 0,0 -0.0263,-0.12217 -0.0312,-0.3125 -0.01,-0.33186 -0.0768,-0.88406 -0.34375,-1.40625 -0.11866,-0.24401 -0.29393,-0.46789 -0.53125,-0.6875 -0.27687,-0.28794 -0.60783,-0.50496 -0.96875,-0.65625 -0.70702,-0.31233 -1.52004,-0.45608 -2.1875,-0.5 -0.3115,-0.0195 -0.58507,-0.0312 -0.8125,-0.0312 z m -49.65625,12.125 V 143 h 5.15625 c -1e-5,0 0.11315,0 0.28125,0 0.17304,-0.01 0.4221,-0.0117 0.71875,-0.0312 0.56363,-0.0634 1.3094,-0.16223 2.03125,-0.40625 0.64768,-0.21473 1.26053,-0.54323 1.75,-1.03125 0.18788,-0.18058 0.3402,-0.38878 0.46875,-0.59375 0.40542,-0.62467 0.51147,-1.2541 0.53125,-1.625 0.0247,-0.1708 0.0312,-0.28125 0.0312,-0.28125 v -0.1875 c -0.0247,-0.14642 -0.0508,-0.45915 -0.125,-0.78125 -0.0989,-0.38066 -0.29869,-0.80393 -0.625,-1.21875 -0.0544,-0.0732 -0.11828,-0.1143 -0.1875,-0.1875 -0.15327,-0.14153 -0.31054,-0.31062 -0.46875,-0.4375 -0.2917,-0.20498 -0.6013,-0.37996 -0.9375,-0.53125 -0.47959,-0.20497 -1.02023,-0.3565 -1.59375,-0.46875 -0.28182,-0.0537 -0.59477,-0.0791 -0.90625,-0.0937 -0.19777,-0.0342 -0.39599,-0.0527 -0.59375,-0.0625 -0.18294,-0.01 -0.34832,-0.0312 -0.53125,-0.0312 z m 49.65625,0 V 143 h 5.15625 c 0,0 0.11809,0 0.28125,0 0.17303,-0.01 0.40727,-0.0117 0.71875,-0.0312 0.54882,-0.0634 1.31434,-0.16223 2.03125,-0.40625 0.64767,-0.21473 1.26053,-0.54323 1.75,-1.03125 0.18293,-0.18058 0.3402,-0.38878 0.46875,-0.59375 0.40046,-0.62467 0.51148,-1.2541 0.53125,-1.625 0.01,-0.1708 0,-0.28125 0,-0.28125 1e-5,0 0.005,-0.0753 0,-0.1875 1e-5,-0.14642 -0.0196,-0.45915 -0.0937,-0.78125 -0.10382,-0.38066 -0.26249,-0.80393 -0.59375,-1.21875 -0.0692,-0.0732 -0.14953,-0.1143 -0.21875,-0.1875 -0.13843,-0.14153 -0.30065,-0.31062 -0.46875,-0.4375 -0.28677,-0.20498 -0.58646,-0.37996 -0.9375,-0.53125 -0.46475,-0.20497 -1.01529,-0.3565 -1.59375,-0.46875 -0.27688,-0.0537 -0.59476,-0.0791 -0.90625,-0.0937 -0.19776,-0.0342 -0.39104,-0.0527 -0.59375,-0.0625 -0.18788,-0.01 -0.34832,-0.0312 -0.53125,-0.0312 z m 61,27.75 c -10.86236,-0.005 -18,7.93163 -18,17.21875 0,9.09192 6.94995,17.1875 17.90625,17.1875 11.35677,0 18.125,-8.1444 18.125,-17.1875 10e-6,-9.33592 -6.96618,-17.21875 -18.03125,-17.21875 z m -87.15625,0.25 L 169.21875,196.5 c -2.13181,-2.94169 -2.99115,-4.1689 -4.375,-6.40625 -2.55119,-4.16775 -4.41819,-7.27059 -7.46875,-9.28125 3.58948,-1.4299 5.59375,-4.32919 5.59375,-8.21875 0,-5.79774 -4.21658,-9.375 -11,-9.375 H 143.5 V 196.75 h 4.8125 v -14.5625 h 2.03125 c 2.4721,1e-5 4.47133,0.78485 8.90625,7.65625 l 4.4375,6.90625 h 5.71875 4.65625 l 4.21875,-9.875 h 14.25 l 4.5,9.875 h 4.90625 l -15,-33.71875 z m 22.375,0.1875 V 196.75 H 219 c 11.06507,0 17.8125,-8.18225 17.8125,-16.78125 0,-7.91578 -5.45859,-16.75 -17.84375,-16.75 z m 36.40625,0 V 196.75 h 4.8125 v -33.53125 z m 28.375,4 c 7.52504,0 13.0625,5.39743 13.0625,12.78125 10e-6,7.32039 -5.53746,12.78125 -13.0625,12.78125 -7.47065,0 -13.03125,-5.46087 -13.03125,-12.78125 10e-6,-7.38381 5.5606,-12.78125 13.03125,-12.78125 z m -122.40625,0.125 h 3.125 c 4.66235,1e-5 6.51306,1.91473 6.5625,5.0625 0.0445,2.80614 -1.40572,5.46875 -6.5625,5.46875 h -3.125 z m 62.4375,0.21875 h 7.40625 c 9.39888,-1e-5 13.6875,5.69299 13.6875,12.4375 0,4.1287 -2.49939,12.4375 -13.40625,12.4375 H 210.75 Z m -25.59375,2.84375 5.40625,12.125 h -10.40625 z"
         id="path476"
         style="fill:#000000;fill-opacity:1;fill-rule:evenodd" />
      <path
         d="m 423.875,106.0625 c -58.68244,0 -106.25,47.61283 -106.25,106.3125 -10e-6,58.71919 47.56756,106.28125 106.25,106.28125 58.69234,0 106.25,-47.56206 106.25,-106.28125 2e-5,-58.69967 -47.55766,-106.3125 -106.25,-106.3125 z m -36.84375,34.78125 h 90.53125 l -6.25,31.5625 h -57.09375 c 0,0 -2.71787,12.3494 -3.96875,19.40625 5.68582,-2.98184 12.16722,-4.40625 19.78125,-4.40625 26.90621,0 45.6875,20.51052 45.6875,49.875 0,14.21618 -5.55035,27.47297 -15.65625,37.375 -10.30863,10.0777 -23.96272,15.47835 -38.375,15.15625 -24.31546,0 -48.96973,-12.09509 -53.375,-38.84375 h 38.71875 c 3.01101,4.51423 7.96633,7.1875 14.0625,7.1875 11.84625,-10e-6 18.21875,-10.76312 18.21875,-20.875 0,-10.00451 -5.62593,-20.09375 -18.21875,-20.09375 -7.52504,-1e-5 -11.68773,2.187 -16.46875,8.6875 l -1.125,1.53125 h -33.90625 z m 157.375,31.71875 -9.4375,71.59375 H 548.375 l 9.4375,-71.59375 z m 22.15625,0 -1.4375,9.71875 h 13.4375 L 580,172.5625 Z m 87,16.65625 c -10.87221,0 -23.45514,7.27734 -26.125,27.75 -1.25088,9.47745 0.24978,16.72711 4.4375,21.5 3.63891,4.16285 9.31135,6.34375 16.40625,6.34375 7.86123,0 15.028,-3.0157 20.71875,-8.75 l 1.09375,-1.125 -8.78125,-8.4375 -1.09375,0.9375 c -3.10001,2.81592 -7.23945,4.59375 -10.84375,4.59375 -3.19394,-1e-5 -5.70901,-0.9687 -7.28125,-2.75 -1.2756,-1.45919 -1.9375,-3.51792 -1.9375,-6.03125 -10e-6,-0.27329 0.0427,-0.53432 0.0625,-0.8125 H 672.125 l 1.28125,-9.84375 c 0.15823,-1.16637 0.21875,-2.31016 0.21875,-3.4375 -0.005,-5.20722 -1.63358,-9.88271 -4.71875,-13.40625 -3.70317,-4.20677 -9.1388,-6.53125 -15.34375,-6.53125 z m -89.21875,0.59375 -7.09375,54.375 h 13.40625 l 7.125,-54.375 z m 17.875,0 12.8125,54.375 h 10.6875 l 27.0625,-54.375 h -14.375 c 10e-6,0 -12.44152,26.68881 -15.34375,32.90625 -1.33985,-6.6225 -6.71875,-32.90625 -6.71875,-32.90625 z M 652.28125,202 c 2.44243,0 4.45126,0.7908 5.78125,2.25 1.34979,1.47385 2.03125,3.65182 2.03125,6.375 -2e-5,0.0683 0,0.16704 0,0.25 H 641.8125 c 1.46346,-5.5098 5.33175,-8.875 10.46875,-8.875 z"
         id="path500"
         style="fill:#00afd8" />
    </g>
  </g>
</svg>
