<?xml version="1.0" encoding="UTF-8" standalone="no"?>
<svg
   width="112"
   height="112"
   viewBox="0 0 112 112"
   version="1.1"
   id="svg27"
   sodipodi:docname="bigFM.svg"
   inkscape:version="1.2.2 (b0a8486541, 2022-12-01)"
   xmlns:inkscape="http://www.inkscape.org/namespaces/inkscape"
   xmlns:sodipodi="http://sodipodi.sourceforge.net/DTD/sodipodi-0.dtd"
   xmlns="http://www.w3.org/2000/svg"
   xmlns:svg="http://www.w3.org/2000/svg"
   xmlns:rdf="http://www.w3.org/1999/02/22-rdf-syntax-ns#"
   xmlns:cc="http://creativecommons.org/ns#"
   xmlns:dc="http://purl.org/dc/elements/1.1/">
  <defs
     id="defs31" />
  <sodipodi:namedview
     id="namedview29"
     pagecolor="#ffffff"
     bordercolor="#000000"
     borderopacity="0.25"
     inkscape:showpageshadow="2"
     inkscape:pageopacity="0.0"
     inkscape:pagecheckerboard="0"
     inkscape:deskcolor="#d1d1d1"
     showgrid="false"
     inkscape:zoom="2.9955357"
     inkscape:cx="42.229508"
     inkscape:cy="147.55291"
     inkscape:window-width="2560"
     inkscape:window-height="1377"
     inkscape:window-x="-8"
     inkscape:window-y="-8"
     inkscape:window-maximized="1"
     inkscape:current-layer="svg27" />
  <title
     id="title2">logo-bigfm</title>
  <g
     id="🔴-I.-Brands-&amp;-Styles"
     stroke="none"
     stroke-width="1"
     fill="none"
     fill-rule="evenodd"
     transform="translate(0,24.999667)">
    <g
       id="I.-Brands-&amp;-Styles/ci-elements/logo"
       transform="translate(-9)">
      <g
         id="logo-bigfm"
         transform="translate(4,-31)">
        <g
           id="logo-negative"
           transform="translate(5.083333,31.008333)">
          <g
             id="bigFM-Logo-ohne-Claim-für-Hintergrund-dunkel">
            <path
               d="m 56.252865,16.230869 h -1.23e-4 c -2.048482,0 -3.961297,0.364057 -5.684896,1.082091 -1.779251,0.741177 -3.362483,1.859102 -4.705424,3.322668 -1.347516,1.469539 -2.360379,3.259711 -3.01064,5.321121 -0.591517,1.875152 -0.891418,4.016317 -0.891418,6.364269 0,2.041876 0.228667,3.940295 0.67957,5.642999 0.11118,0.419175 0.237819,0.833871 0.377567,1.236249 l -0.3396,6.792899 c -0.03525,0.625839 -0.05169,1.096773 -0.05169,1.481732 0,1.872539 0.366436,3.614934 1.08892,5.178659 0.738067,1.59732 1.839108,2.994445 3.272452,4.152558 1.456964,1.177646 3.315859,2.002932 5.682793,2.522888 2.004455,0.440327 4.333422,0.654331 7.120095,0.654331 2.454245,0 4.699858,-0.231548 6.674756,-0.688298 2.283951,-0.529412 4.244998,-1.438309 5.828972,-2.701433 l 0.0011,-7.46e-4 9.89e-4,-8.71e-4 0.0042,-0.0034 c 1.642348,-1.314261 2.93211,-3.130686 3.729415,-5.25244 0.757483,-2.015872 0.835272,-4.106895 0.848876,-5.908763 v -0.0117 -0.01058 l -4.95e-4,-1.095529 V 16.752318 H 60.519877 c -0.933838,-0.247971 -2.389814,-0.521449 -4.267012,-0.521449"
               id="Fill-1"
               fill="#fffffe" />
            <polygon
               id="Fill-2"
               fill="#fffffe"
               points="28.860789,48.51369 46.968904,48.51369 46.968904,16.752318 28.860789,16.752318 " />
            <path
               d="m 37.914847,4.0793977 c -5.028452,0 -9.119479,4.1158531 -9.119479,9.1748193 0,5.05909 4.091027,9.174943 9.119479,9.174943 5.028575,0 9.119479,-4.115853 9.119479,-9.174943 0,-5.0589662 -4.090904,-9.1748193 -9.119479,-9.1748193"
               id="Fill-3"
               fill="#fffffe" />
            <path
               d="M 17.524142,7.9823661 H 0 V 48.51369 h 16.129136 c 0.884616,0.248967 2.214819,0.521325 3.798299,0.521325 2.627879,0 5.06345,-0.708828 7.239313,-2.106824 2.202452,-1.415291 3.917146,-3.50818 5.09647,-6.220438 1.071731,-2.460678 1.61514,-5.287154 1.61514,-8.40067 0,-2.401578 -0.320554,-4.594875 -0.95313,-6.518924 -0.645561,-1.964486 -1.62627,-3.682121 -2.914424,-5.105126 -1.322659,-1.462447 -2.862483,-2.584228 -4.575941,-3.333742 -1.696886,-0.742048 -3.564067,-1.118422 -5.549971,-1.118422 -0.805838,0 -1.595105,0.06171 -2.36075,0.184144 V 7.9823661"
               id="Fill-4"
               fill="#fffffe" />
            <path
               d="m 89.887098,0 c -1.48813,0 -2.975765,0.15092291 -4.4216,0.44853841 -1.409599,0.29027464 -2.796195,0.72326039 -4.121203,1.28713729 -1.300645,0.5534254 -2.555037,1.2383641 -3.728301,2.035904 -1.161887,0.7897013 -2.25427,1.6964829 -3.247099,2.6953363 -0.992828,0.9988533 -1.894264,2.0978658 -2.679079,3.2668029 -0.792729,1.1803841 -1.473536,2.4423881 -2.023747,3.7509261 -0.560353,1.333048 -0.990727,2.728059 -1.27925,4.146336 -0.295821,1.454484 -0.445833,2.951146 -0.445833,4.448431 0,1.49716 0.150012,2.993947 0.445833,4.448431 0.288523,1.418153 0.718897,2.813163 1.27925,4.146212 0.550211,1.308662 1.231018,2.570542 2.023747,3.75105 0.784815,1.168813 1.686251,2.267949 2.679079,3.266803 0.992705,0.998853 2.085212,1.905635 3.247099,2.695336 1.173264,0.797416 2.427656,1.482479 3.728301,2.035904 1.325008,0.563752 2.711604,0.996863 4.121203,1.287137 1.445835,0.297491 2.93347,0.448414 4.4216,0.448414 1.488253,0 2.976012,-0.150923 4.421723,-0.448414 1.409722,-0.290274 2.796195,-0.723385 4.121203,-1.287137 1.300645,-0.553425 2.555036,-1.238488 3.728426,-2.035904 1.16176,-0.789701 2.25427,-1.696483 3.2471,-2.695336 0.9927,-0.998854 1.89414,-2.09799 2.67908,-3.266803 0.7926,-1.180508 1.47353,-2.442388 2.02362,-3.75105 0.56035,-1.333049 0.99085,-2.728059 1.27937,-4.146212 0.2957,-1.454484 0.44571,-2.951271 0.44571,-4.448431 0,-1.497285 -0.15001,-2.993947 -0.44571,-4.448431 -0.28852,-1.418277 -0.71902,-2.813288 -1.27937,-4.146336 -0.55009,-1.308538 -1.23102,-2.570542 -2.02362,-3.7509261 C 107.29969,8.5647818 106.39825,7.4657693 105.40555,6.466916 104.41272,5.4680626 103.32021,4.561281 102.15845,3.7715797 100.98506,2.9740398 99.730669,2.2891011 98.430024,1.7356757 97.105016,1.1717988 95.718543,0.73881305 94.308821,0.44853841 92.86311,0.15092291 91.375351,0 89.887098,0"
               id="Fill-5"
               fill="#fffffe" />
            <path
               d="m 59.790467,58.739121 c -2.696888,0 -4.939656,-0.204672 -6.856429,-0.625838 -2.175615,-0.477778 -3.867431,-1.222812 -5.172033,-2.277157 -1.283826,-1.037175 -2.268245,-2.284622 -2.925431,-3.706881 -0.646056,-1.398494 -0.97366,-2.964335 -0.97366,-4.654348 0,-0.361692 0.01583,-0.811475 0.04984,-1.415042 l 0.352338,-7.045474 c -0.162008,-0.443189 -0.305467,-0.900437 -0.430127,-1.370749 -0.423324,-1.59819 -0.637893,-3.38886 -0.637893,-5.322614 0,-2.220047 0.280485,-4.234551 0.833417,-5.98777 0.595103,-1.886474 1.517192,-3.519378 2.740543,-4.853546 1.221001,-1.330561 2.657313,-2.34534 4.269855,-3.01709 1.572969,-0.655326 3.326496,-0.987531 5.211856,-0.987531 1.901685,0 3.325753,0.303712 4.102529,0.521449 h 15.28632 v 26.313714 l 4.94e-4,1.095529 v 0.01232 c -0.01274,1.694119 -0.0836,3.654374 -0.768861,5.478016 -0.71865,1.912354 -1.874477,3.544138 -3.342943,4.719172 l -0.0043,0.0034 c -1.438786,1.147288 -3.234732,1.976306 -5.337876,2.463788 -1.884618,0.435848 -4.036489,0.656695 -6.39761,0.656695"
               id="Fill-6"
               fill="#1a1919" />
            <polygon
               id="Fill-7"
               fill="#1a1919"
               points="30.097497,47.269478 45.732197,47.269478 45.732197,17.99653 30.097497,17.99653 " />
            <path
               d="m 37.914847,21.184948 c -4.346531,0 -7.882772,-3.5577 -7.882772,-7.930731 0,-4.3729077 3.536241,-7.9306074 7.882772,-7.9306074 4.346655,0 7.882772,3.5576997 7.882772,7.9306074 0,4.373031 -3.536117,7.930731 -7.882772,7.930731"
               id="Fill-8"
               fill="#1a1919" />
            <path
               d="m 19.927435,47.790803 c -1.580512,0 -2.884002,-0.301473 -3.624171,-0.521325 H 1.2367072 V 9.2265781 H 16.287434 v 8.7326259 c 1.131587,-0.321629 2.336388,-0.484123 3.597458,-0.484123 1.815239,0 3.516701,0.341661 5.056896,1.015277 1.552067,0.678967 2.949918,1.698598 4.154594,3.030527 2.352217,2.598164 3.545269,6.22753 3.545269,10.786198 0,2.94057 -0.508534,5.599078 -1.51138,7.90199 -1.079274,2.481829 -2.637031,4.390202 -4.629119,5.670496 -1.974032,1.26835 -4.185636,1.911234 -6.573717,1.911234"
               id="Fill-9"
               fill="#1a1919" />
            <path
               d="m 110.59663,22.079412 c 0,11.506845 -9.27184,20.835075 -20.709532,20.835075 -11.43744,0 -20.709405,-9.32823 -20.709405,-20.835075 0,-11.50697 9.271965,-20.8352001 20.709405,-20.8352001 11.437692,0 20.709532,9.3282301 20.709532,20.8352001"
               id="Fill-10"
               fill="#1a1919" />
            <polyline
               id="Fill-11"
               fill="#fffffe"
               points="77.4137921 29.896049 72.5498225 29.896049 72.5498225 10.181884 85.8708909 10.181884 85.8708909 14.5041519 77.3685286 14.5041519 77.3685286 17.9616924 84.6324523 17.9616924 84.6324523 22.2829649 77.4137921 22.2829649 77.4137921 29.896049" />
            <polyline
               id="Fill-12"
               fill="#fffffe"
               points="107.22462 29.896049 102.405914 29.896049 102.405914 20.4593235 99.6291353 25.3284225 96.5445401 25.3284225 96.5441691 25.327676 93.7680087 20.4593235 93.7680087 29.896049 88.9428717 29.896049 88.9428717 29.8946803 88.9494262 10.181884 93.6847783 10.181884 93.6851493 10.1826305 98.087085 18.8733265 102.488897 10.181884 107.22462 10.181884 107.22462 29.896049" />
            <path
               d="m 16.564086,35.096482 c -0.410216,0 -0.742519,-0.89434 -0.742519,-2.409666 0,-1.565592 0.332303,-2.409789 0.742519,-2.409789 0.410216,0 0.742642,0.289777 0.742642,2.409789 0,2.21843 -0.332426,2.409666 -0.742642,2.409666"
               id="Fill-13"
               fill="#fffffe" />
            <path
               d="m 59.93207,35.096482 c 0.410215,0 0.742642,-0.89434 0.742642,-2.409666 0,-1.565592 -0.332427,-2.409789 -0.742642,-2.409789 -0.410216,0 -0.742767,0.289777 -0.742767,2.409789 0,2.21843 0.332551,2.409666 0.742767,2.409666"
               id="Fill-14"
               fill="#fffffe" />
            <polygon
               id="Fill-15"
               fill="#e7792b"
               points="33.524042,44.158948 42.305652,44.158948 42.305652,21.10706 33.524042,21.10706 " />
            <path
               d="m 37.914847,8.4341395 c -2.641854,0 -4.791004,2.1621915 -4.791004,4.8200775 0,2.658009 2.14915,4.820201 4.791004,4.820201 2.641854,0 4.791127,-2.162192 4.791127,-4.820201 0,-2.657886 -2.149273,-4.8200775 -4.791127,-4.8200775"
               id="Fill-16"
               fill="#e7792b" />
            <path
               d="m 62.62166,36.8767 c -0.740416,0.890109 -1.678459,1.334542 -2.814992,1.334542 -1.050089,0 -1.931737,-0.436967 -2.643091,-1.31339 -0.712838,-0.874557 -1.06765,-2.347206 -1.06765,-4.416704 0,-1.823517 0.348999,-3.161169 1.045636,-4.016192 0.697874,-0.85328 1.543164,-1.279796 2.53525,-1.279796 1.194165,0 2.167453,0.444432 2.922958,1.334666 0.755257,0.889736 1.133813,2.239955 1.133813,4.04879 0,1.98203 -0.371012,3.418099 -1.111924,4.308084 z m 9.928163,7.433544 V 21.10706 h -8.144831 v 3.659352 c -1.073338,-1.49293 -2.225207,-2.563325 -3.456596,-3.209694 -1.232008,-0.647114 -2.797061,-0.971107 -4.694788,-0.971107 -2.969211,0 -5.372875,1.001093 -7.210127,3.003154 -1.836511,2.002933 -2.754766,4.914015 -2.754766,8.732253 0,3.342202 0.711354,6.028456 2.135917,8.061747 2.003837,2.863802 4.637158,4.296139 7.898107,4.296139 1.668813,0 3.221623,-0.384586 4.661397,-1.155499 0.918627,-0.491837 1.836634,-1.284774 2.754642,-2.378933 v 3.719571 c 0,1.802117 -0.331932,3.063996 -0.999383,3.788501 -0.666338,0.723509 -1.671905,1.085326 -3.01806,1.085326 -1.04205,0 -1.905643,-0.238764 -2.594736,-0.715546 -0.475019,-0.323495 -0.827357,-0.909146 -1.056148,-1.755708 l -9.070382,-1.039663 c -0.02956,0.523689 -0.04539,0.939753 -0.04539,1.247944 0,2.478346 0.913679,4.457763 2.743759,5.93626 1.829584,1.47887 5.193552,2.217434 10.092026,2.217434 2.141853,0 4.043909,-0.193474 5.703446,-0.577189 1.662506,-0.385457 3.032159,-1.009554 4.111681,-1.870424 1.078408,-0.862986 1.88165,-2.070244 2.37559,-3.38463 0.486026,-1.293483 0.557508,-2.840287 0.569133,-4.401648 l -4.94e-4,-1.084456 z"
               id="Fill-17"
               fill="#e7792b" />
            <path
               d="m 19.332579,36.897852 c -0.711231,0.876423 -1.593003,1.31339 -2.643091,1.31339 -1.136534,0 -2.074453,-0.444433 -2.814993,-1.334542 -0.740911,-0.889985 -1.111924,-2.326054 -1.111924,-4.308084 0,-1.808835 0.37868,-3.159054 1.133937,-4.04879 0.755381,-0.890234 1.728793,-1.334666 2.922958,-1.334666 0.991963,0 1.837128,0.426516 2.53525,1.279796 0.696637,0.855023 1.045512,2.192675 1.045512,4.016192 0,2.069498 -0.354688,3.542147 -1.067649,4.416704 z m 0.552313,-16.312241 c -1.352958,0 -2.58546,0.232543 -3.700228,0.694644 -1.114892,0.463593 -2.111678,1.15861 -2.988998,2.084428 V 12.337108 H 4.3284753 v 31.82184 h 8.2208877 v -3.408021 c 1.136287,1.433208 2.186127,2.409541 3.149399,2.93099 1.280857,0.66528 2.690085,0.998356 4.228673,0.998356 1.798048,0 3.433965,-0.474045 4.909356,-1.42201 1.473784,-0.947218 2.628003,-2.380551 3.461544,-4.297508 0.834777,-1.916833 1.251548,-4.135885 1.251548,-6.653672 0,-3.776806 -0.912938,-6.674451 -2.740172,-8.692811 -1.825628,-2.018485 -4.134436,-3.028661 -6.924819,-3.028661 z"
               id="Fill-18"
               fill="#e7792b" />
          </g>
        </g>
      </g>
    </g>
  </g>
  <metadata
     id="metadata814">
    <rdf:RDF>
      <cc:Work
         rdf:about="">
        <dc:title>logo-bigfm</dc:title>
      </cc:Work>
    </rdf:RDF>
  </metadata>
</svg>
