<svg xmlns:svg="http://www.w3.org/2000/svg" xmlns="http://www.w3.org/2000/svg" id="svg368" version="1.1" viewBox="0 0 100.17 100.17">
  <defs id="defs365"/>
  <path id="path337" d="M 0,0 H 100.17 V 100.17 H 0 Z" style="fill: rgb(41, 45, 59); --darkreader-inline-fill:#c8c4bd;" data-darkreader-inline-fill=""/>
  <path id="path339" d="m 0,91.92 h 100.17 v 8.25 H 0 Z" style="fill: rgb(11, 159, 216); --darkreader-inline-fill:#37c0f5;" data-darkreader-inline-fill=""/>
  <path id="path341" d="m 49.19,31.8 c 4.86,-1.68 8.33,-5.55 8.33,-11.3 0,-1.44 -0.73,-4.94 -3.38,-7.19 -1.75,-1.49 -4.27,-3.25 -12.42,-3.44 -1.68,-0.04 -6.8,0.14 -6.8,0.14 v 0.29 c 1.45,1.11 3,2.93 3.75,5.05 0.78,-0.03 1.96,-0.09 3.12,-0.03 3.27,0.18 4.7,0.79 6.17,1.94 1.48,1.16 2.28,3.16 2.27,4.97 -0.01,2.47 -1.18,5.03 -4.76,6.49 -2.89,1.18 -6.39,1.44 -6.39,1.44 v 0.9 c 0,0 2.09,1 4.19,3.77 1.8,2.38 12.26,17.78 12.26,17.78 h 8.64 C 64.18,52.61 50.21,33.15 49.19,31.8 Z M 30.2,29.63 c 3.32,-1.96 5.45,-4.85 5.45,-9.15 0,-4.6 -2.73,-10.68 -14.17,-10.68 -5.54,0 -11.69,0.21 -11.69,0.21 v 42.61 h 9.76 c 12.41,0 18.98,-4.58 18.98,-13.23 0,-5.17 -3.24,-8.58 -8.33,-9.76 z M 21.55,46.67 H 16.71 V 15.28 c 0.06,0 2.17,-0.03 3.48,-0.03 5.4,0 8.4,2.79 8.48,6.63 0.05,2.33 -0.64,4.56 -3.01,6.2 -1.94,1.34 -4.64,1.74 -4.64,1.74 v 1.01 c 0,0 3.74,0.56 5.65,1.45 3.54,1.65 4.59,4.22 4.62,7.54 0.03,5.25 -5.03,6.85 -9.74,6.85 z" style="fill: rgb(255, 255, 255); --darkreader-inline-fill:#e8e6e3;" data-darkreader-inline-fill=""/>
  <path id="path343" d="m 63.82,30.59 v -3.32 l 3.1,-3.5 c 0.9,-1 1.64,-1.89 2.21,-2.67 0.57,-0.78 1.03,-1.47 1.37,-2.07 0.34,-0.6 0.57,-1.15 0.69,-1.63 0.12,-0.48 0.18,-0.94 0.18,-1.37 0,-0.82 -0.25,-1.51 -0.74,-2.06 -0.49,-0.55 -1.24,-0.83 -2.24,-0.83 -0.66,0 -1.33,0.11 -2.01,0.34 -0.69,0.23 -1.3,0.5 -1.83,0.83 l -0.58,-3.56 c 0.7,-0.35 1.49,-0.63 2.4,-0.86 0.9,-0.22 1.93,-0.34 3.1,-0.34 1.04,0 1.96,0.15 2.75,0.46 0.79,0.31 1.44,0.72 1.97,1.24 0.52,0.52 0.91,1.14 1.17,1.84 0.26,0.71 0.38,1.46 0.38,2.26 0,0.68 -0.09,1.36 -0.28,2.06 -0.18,0.7 -0.48,1.42 -0.88,2.18 -0.4,0.76 -0.91,1.56 -1.52,2.41 -0.61,0.85 -1.35,1.77 -2.21,2.75 l -1.84,2.15 v 0.03 c 1.09,-0.06 2.23,-0.1 3.43,-0.11 1.2,-0.01 2.5,-0.01 3.92,-0.01 v 3.78 z M 90.95,25.65 V 30.6 H 87.08 V 25.65 H 78.66 L 78.11,22.52 85.97,9.86 h 4.98 v 12.2 h 3.1 v 3.59 z M 87.14,13.63 h -0.03 l -5.19,8.54 c 0.33,-0.02 0.74,-0.04 1.25,-0.05 0.5,-0.01 1,-0.01 1.51,-0.01 h 2.47 v -8.48 z" style="fill: rgb(255, 255, 255); --darkreader-inline-fill:#e8e6e3;" data-darkreader-inline-fill=""/>
</svg>