<?xml version="1.0" encoding="UTF-8" standalone="no"?>
<!-- Created with Inkscape (http://www.inkscape.org/) -->

<svg
   version="1.1"
   width="700"
   height="700"
   id="svg3479"
   sodipodi:docname="br3.svg"
   inkscape:version="1.2.2 (b0a8486541, 2022-12-01)"
   xmlns:inkscape="http://www.inkscape.org/namespaces/inkscape"
   xmlns:sodipodi="http://sodipodi.sourceforge.net/DTD/sodipodi-0.dtd"
   xmlns="http://www.w3.org/2000/svg"
   xmlns:svg="http://www.w3.org/2000/svg"
   xmlns:rdf="http://www.w3.org/1999/02/22-rdf-syntax-ns#"
   xmlns:cc="http://creativecommons.org/ns#"
   xmlns:dc="http://purl.org/dc/elements/1.1/">
  <sodipodi:namedview
     id="namedview33"
     pagecolor="#ffffff"
     bordercolor="#000000"
     borderopacity="0.25"
     inkscape:showpageshadow="2"
     inkscape:pageopacity="0.0"
     inkscape:pagecheckerboard="0"
     inkscape:deskcolor="#d1d1d1"
     showgrid="false"
     inkscape:zoom="0.95857143"
     inkscape:cx="216.46796"
     inkscape:cy="435.02235"
     inkscape:window-width="2560"
     inkscape:window-height="1377"
     inkscape:window-x="-8"
     inkscape:window-y="-8"
     inkscape:window-maximized="1"
     inkscape:current-layer="svg3479" />
  <defs
     id="defs3481" />
  <metadata
     id="metadata3484">
    <rdf:RDF>
      <cc:Work
         rdf:about="">
        <dc:format>image/svg+xml</dc:format>
        <dc:type
           rdf:resource="http://purl.org/dc/dcmitype/StillImage" />
      </cc:Work>
    </rdf:RDF>
  </metadata>
  <g
     transform="translate(0,-527.36218)"
     id="layer1">
    <g
       transform="translate(-10.714278,-1.3149082)"
       id="g3555">
      <g
         transform="matrix(5.83907,0,0,-5.83907,706.57379,724.46719)"
         id="g3199">
        <path
           d="M 0,0 C -0.669,1.684 -2.864,2.654 -4.514,1.998 -4.806,1.88 -5.022,1.744 -5.277,1.565 -8.352,-0.577 -15.299,-5.57 -26.519,-13.694 c -1.452,-1.053 -2.896,-2.086 -4.313,-3.09 h -84.673 c -1.757,0 -3.185,-1.362 -3.185,-3.038 v -11.76 c 0,-1.677 1.428,-3.041 3.185,-3.041 h 68.48 c 1.065,-0.811 2.807,-1.966 4.97,-3.399 2.575,-1.706 5.777,-3.828 9.158,-6.24 -0.001,0 9.37,-6.767 9.37,-6.767 2.311,-1.681 3.983,-2.896 4.796,-3.454 0.876,-0.602 2.282,-0.713 3.499,-0.279 1.158,0.414 1.969,1.238 2.282,2.319 0.649,2.234 3.603,13.526 6.242,23.724 l 1.786,6.89 c 2.377,9.166 4.624,17.825 5.064,19.849 C 0.291,-1.297 0.241,-0.613 0,0"
           id="path3201"
           style="fill:#ffffff;fill-opacity:1;fill-rule:nonzero;stroke:none" />
      </g>
      <g
         transform="matrix(5.83907,0,0,-5.83907,20.204016,840.211)"
         id="g3203">
        <path
           d="m 0,0 v -11.76 c 0,-1.047 0.917,-1.897 2.043,-1.897 H 18.435 V 1.896 H 2.043 C 0.917,1.896 0,1.045 0,0"
           id="path3205"
           style="fill:#1a3d82;fill-opacity:1;fill-rule:nonzero;stroke:none" />
      </g>
      <g
         transform="matrix(5.83907,0,0,-5.83907,430.58085,888.5772)"
         id="g3207">
        <path
           d="m 0,0 1.855,1.259 c 3.129,2.123 7.797,5.288 12.96,8.92 h -65.55 V -5.374 h 49.847 c -0.432,0.66 -0.651,1.442 -0.618,2.293 C -1.459,-1.82 -0.852,-0.582 0,0"
           id="path3209"
           style="fill:#1a3d82;fill-opacity:1;fill-rule:nonzero;stroke:none" />
      </g>
      <g
         transform="matrix(5.83907,0,0,-5.83907,682.72179,718.99309)"
         id="g3211">
        <path
           d="m 0,0 c -0.191,-0.077 -0.336,-0.168 -0.535,-0.31 -3.07,-2.139 -10.013,-7.127 -21.228,-15.248 -7.416,-5.37 -14.618,-10.254 -18.922,-13.171 l -1.852,-1.259 c -0.472,-0.322 -0.971,-1.173 -1.01,-2.182 -0.022,-0.643 0.133,-1.557 1.015,-2.262 0.978,-0.783 2.839,-2.014 5.194,-3.575 2.581,-1.71 5.793,-3.838 9.189,-6.263 l 9.378,-6.772 c 2.306,-1.676 3.971,-2.887 4.771,-3.437 0.58,-0.397 1.595,-0.458 2.468,-0.144 0.465,0.166 1.288,0.591 1.569,1.561 0.645,2.221 3.596,13.501 6.234,23.693 l 1.786,6.89 c 2.375,9.155 4.618,17.802 5.052,19.804 0.103,0.468 0.074,0.911 -0.088,1.317 C 2.579,-0.243 1.078,0.429 0,0"
           id="path3213"
           style="fill:#80cc28;fill-opacity:1;fill-rule:nonzero;stroke:none" />
      </g>
      <g
         transform="matrix(5.83907,0,0,-5.83907,95.056773,874.47583)"
         id="g3215">
        <path
           d="M 0,0 C 1.212,0.42 2.079,1.388 2.079,2.824 2.079,3.185 1.898,4.057 1.237,4.622 0.801,4.992 0.171,5.431 -1.865,5.479 -2.286,5.491 -3.563,5.446 -3.563,5.446 V 5.374 c 0.359,-0.278 0.75,-0.735 0.934,-1.262 0.195,0.005 0.49,0.022 0.779,0.005 C -1.03,4.075 -0.676,3.923 -0.307,3.633 0.063,3.342 0.262,2.842 0.26,2.39 0.256,1.771 -0.036,1.132 -0.929,0.769 -1.65,0.475 -2.524,0.409 -2.524,0.409 V 0.185 c 0,0 0.522,-0.25 1.045,-0.943 0.45,-0.595 3.063,-4.441 3.063,-4.441 h 2.159 c 0,0 -3.488,4.861 -3.743,5.199"
           id="path3217"
           style="fill:#ffffff;fill-opacity:1;fill-rule:nonzero;stroke:none" />
      </g>
      <g
         transform="matrix(5.83907,0,0,-5.83907,67.338148,871.30521)"
         id="g3219">
        <path
           d="m 0,0 c 0.83,0.49 1.362,1.211 1.362,2.286 0,1.151 -0.681,2.668 -3.539,2.668 -1.385,0 -2.921,-0.051 -2.921,-0.051 V -5.742 h 2.438 c 3.102,0 4.741,1.142 4.741,3.304 C 2.081,-1.148 1.273,-0.297 0,0 m -2.16,-4.259 h -1.207 v 7.844 c 0.014,0 0.541,0.007 0.869,0.007 1.349,0 2.098,-0.699 2.118,-1.657 0.013,-0.581 -0.159,-1.139 -0.752,-1.55 -0.484,-0.335 -1.16,-0.436 -1.16,-0.436 v -0.252 c 0,0 0.937,-0.139 1.411,-0.362 0.884,-0.411 1.147,-1.054 1.154,-1.884 0.009,-1.31 -1.256,-1.71 -2.433,-1.71"
           id="path3221"
           style="fill:#ffffff;fill-opacity:1;fill-rule:nonzero;stroke:none" />
      </g>
      <g
         transform="matrix(5.83907,0,0,-5.83907,180.61841,895.87604)"
         id="g3223">
        <path
           d="m 0,0 c -0.519,0 -1.411,0.013 -2.434,0.027 v 7.488 c 0.706,0 1.757,0.029 2.749,0.029 1.93,0 2.706,-0.707 2.706,-1.829 C 3.021,4.951 2.576,4.332 1.8,4.03 V 4.015 C 2.706,3.8 3.153,3.139 3.153,2.331 3.153,1.295 2.476,0 0,0 m 0.015,6.447 c -0.287,0 -0.62,-0.012 -0.894,-0.012 V 4.391 c 0.245,-0.015 0.489,-0.015 0.591,-0.015 1.022,0 1.67,0.359 1.67,1.108 0,0.562 -0.316,0.963 -1.367,0.963 M -0.217,3.383 c -0.159,0 -0.474,0 -0.662,-0.016 V 1.182 C -0.662,1.136 -0.36,1.124 0,1.124 c 1.038,0 1.511,0.488 1.511,1.18 0,0.791 -0.692,1.079 -1.728,1.079"
           id="path3225"
           style="fill:#ffffff;fill-opacity:1;fill-rule:nonzero;stroke:none" />
      </g>
      <g
         transform="matrix(5.83907,0,0,-5.83907,236.16959,895.71662)"
         id="g3227">
        <path
           d="M 0,0 -0.533,1.456 H -3.657 L -4.203,0 h -1.556 l 2.836,7.487 h 1.829 L 1.728,0 Z M -1.699,4.68 C -1.842,5.067 -1.986,5.515 -2.087,5.861 H -2.103 C -2.188,5.501 -2.332,5.082 -2.476,4.694 L -3.282,2.578 h 2.36 z"
           id="path3229"
           style="fill:#ffffff;fill-opacity:1;fill-rule:nonzero;stroke:none" />
      </g>
      <g
         transform="matrix(5.83907,0,0,-5.83907,267.1038,881.07865)"
         id="g3231">
        <path
           d="m 0,0 v -2.507 h -1.556 v 2.492 L -4.175,4.98 h 1.712 l 1.11,-2.145 c 0.215,-0.433 0.416,-0.879 0.605,-1.383 h 0.015 c 0.2,0.518 0.445,1.009 0.676,1.453 L 1.037,4.98 h 1.612 z"
           id="path3233"
           style="fill:#ffffff;fill-opacity:1;fill-rule:nonzero;stroke:none" />
      </g>
      <g
         transform="matrix(5.83907,0,0,-5.83907,288.29379,895.71662)"
         id="g3235">
        <path
           d="M 0,0 V 7.487 H 4.404 V 6.264 H 1.555 V 4.435 h 2.72 V 3.255 H 1.555 V 1.239 H 4.404 V 0 Z"
           id="path3237"
           style="fill:#ffffff;fill-opacity:1;fill-rule:nonzero;stroke:none" />
      </g>
      <g
         transform="matrix(5.83907,0,0,-5.83907,346.87835,895.71662)"
         id="g3239">
        <path
           d="M 0,0 -2.145,3.082 H -2.218 V 0 h -1.553 v 7.487 c 0.545,0.03 1.525,0.043 2.446,0.043 1.786,0 2.822,-0.692 2.822,-2.073 0,-1.224 -0.85,-1.956 -2.046,-2.145 0.174,-0.202 0.376,-0.49 0.606,-0.805 L 1.914,0 Z m -1.555,6.334 c -0.26,0 -0.462,0 -0.663,-0.028 V 4.148 c 0.216,-0.014 0.477,-0.029 0.721,-0.029 0.82,0 1.352,0.474 1.352,1.179 0,0.678 -0.532,1.036 -1.41,1.036"
           id="path3241"
           style="fill:#ffffff;fill-opacity:1;fill-rule:nonzero;stroke:none" />
      </g>
      <g
         transform="matrix(5.83907,0,0,-5.83907,394.19523,895.71662)"
         id="g3243">
        <path
           d="m 0,0 -2.578,4.061 c -0.286,0.446 -0.559,0.978 -0.761,1.426 h -0.014 c 0.028,-0.42 0.042,-0.88 0.042,-1.57 L -3.295,0 h -1.514 v 7.487 h 2.074 L -0.216,3.501 C 0.072,3.038 0.36,2.55 0.606,2.031 H 0.619 C 0.59,2.507 0.577,3.226 0.577,4.189 L 0.562,7.487 H 2.073 V 0 Z"
           id="path3245"
           style="fill:#ffffff;fill-opacity:1;fill-rule:nonzero;stroke:none" />
      </g>
      <g
         transform="matrix(5.83907,0,0,-5.83907,605.61628,857.91094)"
         id="g3247">
        <path
           d="m 0,0 c 0.266,0.002 0.809,-0.013 1.117,-0.423 0.185,-0.26 0.286,-0.538 0.165,-0.933 L 1.045,-2.124 C 0.896,-2.611 0.751,-2.949 0.312,-3.27 -0.073,-3.534 -0.411,-3.592 -0.829,-3.595 l -5.154,-0.045 -1.195,-3.857 5.25,0.044 c 0.586,0.003 1.122,0.027 1.369,-0.401 0.173,-0.299 0.199,-0.58 0.078,-0.972 l -0.245,-0.787 c -0.127,-0.411 -0.282,-0.731 -0.627,-1.051 -0.591,-0.565 -1.22,-0.457 -1.919,-0.461 l -7.05,-0.059 c -0.399,-0.004 -0.642,0.127 -0.802,0.406 -0.191,0.298 -0.163,0.633 -0.029,1.064 l 0.395,1.277 -5.763,-0.041 -0.263,-0.844 c -0.408,-1.311 -0.873,-3.315 0.194,-4.746 0.907,-1.229 2.841,-1.361 4.016,-1.352 l 9.234,0.022 c 0.397,0.005 3.255,-0.154 5.407,1.544 1.652,1.3 2.137,2.257 2.629,3.849 l 0.25,0.805 c 0.279,0.9 0.529,2.135 -0.371,2.895 -0.557,0.464 -2.125,0.903 -2.433,0.879 0.271,0.024 1.851,0.481 2.863,1.18 1.152,0.794 1.504,1.807 1.856,3.004 l 0.18,0.581 C 7.664,1.23 7.371,2.854 5.85,3.555 4.715,4.107 3.767,4.102 2.288,4.091 L -6.106,4.092 C -7.834,4.079 -10.429,3.694 -12.273,1.831 -13.381,0.7 -13.782,-0.236 -14.2,-1.585 l -0.261,-0.829 5.708,0.038 0.162,0.515 c 0.15,0.485 0.247,0.86 0.629,1.236 0.536,0.509 1.123,0.567 1.746,0.572 z"
           id="path3249"
           style="fill:#ffffff;fill-opacity:1;fill-rule:nonzero;stroke:none" />
      </g>
    </g>
  </g>
</svg>
