<?xml version="1.0" encoding="UTF-8" standalone="no"?>
<svg
   width="1400pt"
   height="1400pt"
   viewBox="0 0 1400 1400"
   version="1.1"
   id="svg26"
   sodipodi:docname="mdr-klassik.svg"
   inkscape:version="1.2.2 (b0a8486541, 2022-12-01)"
   xmlns:inkscape="http://www.inkscape.org/namespaces/inkscape"
   xmlns:sodipodi="http://sodipodi.sourceforge.net/DTD/sodipodi-0.dtd"
   xmlns="http://www.w3.org/2000/svg"
   xmlns:svg="http://www.w3.org/2000/svg"
   xmlns:rdf="http://www.w3.org/1999/02/22-rdf-syntax-ns#"
   xmlns:cc="http://creativecommons.org/ns#"
   xmlns:dc="http://purl.org/dc/elements/1.1/">
  <metadata
     id="metadata32">
    <rdf:RDF>
      <cc:Work
         rdf:about="">
        <dc:format>image/svg+xml</dc:format>
        <dc:type
           rdf:resource="http://purl.org/dc/dcmitype/StillImage" />
      </cc:Work>
    </rdf:RDF>
  </metadata>
  <defs
     id="defs30" />
  <sodipodi:namedview
     pagecolor="#ffffff"
     bordercolor="#666666"
     borderopacity="1"
     objecttolerance="10"
     gridtolerance="10"
     guidetolerance="10"
     inkscape:pageopacity="0"
     inkscape:pageshadow="2"
     inkscape:window-width="2560"
     inkscape:window-height="1377"
     id="namedview28"
     showgrid="false"
     fit-margin-top="0"
     fit-margin-left="0"
     fit-margin-right="0"
     fit-margin-bottom="0"
     inkscape:zoom="0.32009755"
     inkscape:cx="1185.5761"
     inkscape:cy="396.75405"
     inkscape:window-x="-8"
     inkscape:window-y="-8"
     inkscape:window-maximized="1"
     inkscape:current-layer="svg26"
     inkscape:showpageshadow="2"
     inkscape:pagecheckerboard="0"
     inkscape:deskcolor="#d1d1d1"
     inkscape:document-units="pt" />
  <rect
     style="fill:#ffffff;stroke:#ffffff;stroke-width:34.2534;stroke-linejoin:round"
     id="rect2220"
     width="1365.7466"
     height="1365.7466"
     x="17.126694"
     y="17.126694" />
  <g
     id="g2218"
     transform="translate(38.385,462.82578)">
    <path
       d="m 678.08997,254.35745 c 21.99,-6.89 45.47,-7.02 68.19,-4.48 9.35,1.12 18.64,2.84 27.74,5.32 -0.32,11.86 -1.31,23.69 -1.45,35.56 -8.86,-3.23 -17.91,-6.05 -27.25,-7.42 -13.61,-2.03 -27.68,-2.95 -41.2,0.16 -7.01,1.68 -14.1,4.53 -19,10.01 -5.92,6.51 -7.39,17.23 -2.11,24.54 4.86,6.79 12.43,10.92 19.86,14.34 14.73,6.44 30.08,11.36 44.71,18.04 10.56,5.05 20.81,11.61 27.88,21.13 9.96,13.35 12.1,31.18 9.02,47.21 -2.64,14.13 -11.02,27 -22.74,35.27 -15.83,11.39 -35.51,16.05 -54.72,17.07 -24.79,0.78 -49.85,-1.75 -73.56,-9.2 0.29,-12.34 1.18,-24.65 1.49,-36.99 19.19,9.79 40.99,13.16 62.35,12.94 10.54,-0.36 21.71,-2.26 30.19,-8.98 7.47,-5.77 10.8,-15.94 9.1,-25.1 -1.43,-5.82 -5.79,-10.34 -10.43,-13.86 -9.28,-6.79 -20.16,-10.77 -30.57,-15.44 -14.2,-6.52 -29.2,-11.83 -41.81,-21.29 -8.97,-6.59 -16.46,-15.64 -19.65,-26.43 -5.14,-17.11 -2.2,-37.01 9.39,-50.9 8.83,-10.67 21.54,-17.37 34.57,-21.5 z"
       id="path4"
       inkscape:connector-curvature="0"
       style="fill:#9a2598" />
    <path
       d="m 861.15997,255.36745 c 22.8,-7.88 47.43,-8.12 71.17,-5.5 9.36,1.13 18.67,2.83 27.78,5.32 -0.28,11.89 -1.14,23.76 -1.54,35.65 -9.96,-4 -20.43,-6.71 -31.07,-8.09 -12.91,-1.58 -26.22,-2.17 -38.92,1.17 -6.42,1.76 -12.89,4.54 -17.37,9.64 -4.23,4.56 -5.97,11.14 -5.08,17.24 1.01,6.21 5.55,11.1 10.5,14.65 9.06,6.47 19.76,9.95 30.01,14.04 14.84,5.92 30.43,10.82 43.33,20.57 6.82,5.18 12.78,11.71 16.46,19.51 5.42,11.12 6.31,23.94 4.74,36.06 -1.95,14.4 -9.64,27.91 -21.16,36.79 -15.77,12.33 -35.98,17.4 -55.65,18.63 -25.16,0.94 -50.62,-1.61 -74.72,-9.09 0.17,-12.36 1.08,-24.67 1.46,-37.02 19.47,9.9 41.61,13.28 63.28,12.89 10.22,-0.43 20.97,-2.45 29.21,-8.92 7.56,-5.82 10.89,-16.15 9.05,-25.39 -1.42,-5.52 -5.55,-9.79 -9.88,-13.22 -5.89,-4.47 -12.59,-7.73 -19.32,-10.7 -11.79,-5.17 -23.6,-10.28 -35.3,-15.62 -14.62,-7.01 -29.36,-16.77 -36.03,-32.19 -6.76,-16.13 -5.57,-35.72 3.7,-50.64 7.95,-12.75 21.44,-20.91 35.35,-25.78 z"
       id="path6"
       inkscape:connector-curvature="0"
       style="fill:#9a2598" />
    <path
       d="m 432.52173,29.685664 c -0.09,-8.86 -0.2,-17.72 0.06,-26.5800005 17.21,0.1 34.41,0.05 51.61,0.03 4.51,0.02 9.46,0.14 13.24,2.96 3.75,2.78 5.12,7.7200005 5.1,12.1900005 -0.06,54.39 0.05,108.769996 -0.06,163.159996 -0.59,0.35 -1.77,1.06 -2.36,1.41 -15.42,-13.12 -30.94,-26.11 -46.85,-38.63 -10.24,-8.5 -21.39,-16.73 -34.63,-19.67 -15.76,-3.8 -33.33,0.81 -44.96,12.16 -10.15,9.57 -16.12,23.6 -15.32,37.59 -0.26,16.39 7.13,31.59 15.95,44.97 -12.84,0.54 -25.7,-0.03 -38.55,0.3 -9.54,-13.73 -12.79,-30.82 -12.81,-47.29 1.14,-35.52 26.86,-69.46 61.64,-78.249996 17.77,-4.56 37.05,-3.93 54.16,2.89 10.48,4.139996 19.82,10.789996 27.81,18.669996 0.05,-25.089996 0.09,-50.189996 -0.01,-75.279996 0.22,-5.06 -3.51,-10.09 -8.73,-10.44 -8.42,-0.49 -16.87,-0.1 -25.29,-0.19 z"
       id="path8"
       inkscape:connector-curvature="0"
       style="fill:#9a2598" />
    <path
       d="m 0,252.02745 c 2.0699998,-0.3 4.1499998,-0.58 6.2599998,-0.56 13.9500002,0.13 27.9000002,-0.03 41.8400002,0.09 0.13,31.06 -0.05,62.12 0.09,93.18 24.88,-29.53 49.620003,-59.17 74.37,-88.8 1.68,-1.67 2.88,-4.7 5.69,-4.4 18.14,0 36.29,-0.11 54.43,0.06 -8.1,9.95 -17.11,19.14 -25.55,28.8 -21.36,23.69 -42.7,47.39 -64.049997,71.08 -1.73,2.23 1.6,4.02 2.69,5.7 31.589997,36.81 63.379997,73.47 94.779997,110.45 -18.07,0.54 -36.16,0.04 -54.24,0.26 -2.25,-0.2 -5.13,0.69 -6.6,-1.53 -27.28,-33.7 -54.15,-67.76 -81.55,-101.37 -0.09,34.28 0.09,68.57 -0.09,102.85 -13.93,0.05 -27.86,-0.05 -41.7800002,0.06 -2.12,0 -4.2,-0.27 -6.2799998,-0.52 0.12,-71.79 0.14,-143.57 -0.01,-215.35 z"
       id="path10"
       inkscape:connector-curvature="0"
       style="fill:#9a2598" />
    <path
       d="m 223.98997,251.88745 c 11.74,-0.83 23.55,-0.15 35.32,-0.37 4.17,0.22 8.53,-0.53 12.59,0.38 0.32,59.12 0.06,118.26 0.13,177.39 31,0.15 62,0.04 93,0.06 -0.01,12.85 0.22,25.71 -0.12,38.55 -27.53,-0.11 -55.05,-0.01 -82.57,-0.05 -19.43,-0.15 -38.87,0.31 -58.29,-0.23 0,-71.91 0.11,-143.82 -0.06,-215.73 z"
       id="path12"
       inkscape:connector-curvature="0"
       style="fill:#9a2598" />
    <path
       style="fill:#9a2598;fill-opacity:1;fill-rule:evenodd;stroke-width:1"
       d="m 464.86927,251.44722 c -3.19,6.97999 -5.5492,14.29015 -8.3891,21.41015 -24.6701,64.96 -49.6009,129.82034 -74.1109,194.84033 15.7601,0.21 31.541,0.33995 47.291,-0.0601 6.13,-17.07 12.2997,-34.12068 18.3897,-51.20068 0.48,-1.44 1.1601,-3.46969 3.1802,-2.92969 26.3599,-0.02 52.7196,-0.04 79.0795,0 3.5201,0.25 7.32,-0.68941 10.67,0.60059 6.72,17.71999 12.7206,35.75888 19.1206,53.60888 16.64,0.09 33.33,0.48078 49.9599,-0.19922 -27.6,-71.98 -55.0803,-143.99974 -82.6303,-215.98974 -20.85,-0.07 -41.7106,0.0794 -62.5606,-0.0806 z m 30.4907,31.07959 c 12.0801,32.60999 23.4894,65.48007 35.6295,98.08008 -24.0401,0.60999 -48.12,0.12048 -72.17,0.25048 12.22,-32.76 24.2006,-65.62057 36.5405,-98.33056 z"
       id="path14"
       inkscape:connector-curvature="0" />
    <path
       d="m 1022.67,312.62745 c 0.09,-20.39 -0.17,-40.77 0.13,-61.15 15.97,0.16 31.93,-0.12 47.9,0.14 0.02,71.99 -0.03,143.99 0.02,215.98 -15.96,0.6 -31.94,0.04 -47.91,0.29 -0.31,-51.75 -0.05,-103.51 -0.14,-155.26 z"
       id="path16"
       inkscape:connector-curvature="0"
       style="fill:#9a2598" />
    <path
       d="m 1132.79,251.75745 c 15.99,-0.55 32.01,-0.09 48.01,-0.24 0.16,31.05 -0.05,62.11 0.11,93.16 26.17,-30.97 51.94,-62.29 78.22,-93.18 18.76,0.12 37.53,-0.14 56.29,0.13 -30.01,33.92 -60.54,67.4 -90.85,101.06 32.91,38.23 65.72,76.53 98.66,114.74 -13.61,0.96 -27.28,0.17 -40.91,0.42 -6.29,-0.26 -12.68,0.54 -18.89,-0.37 -9.82,-11.51 -19.01,-23.61 -28.59,-35.34 -18,-22.35 -35.82,-44.84 -53.93,-67.09 -0.16,34.27 0.05,68.54 -0.11,102.8 -16.01,-0.17 -32.03,0.36 -48.02,-0.28 0.05,-71.93 0.03,-143.87 0.01,-215.81 z"
       id="path18"
       inkscape:connector-curvature="0"
       style="fill:#9a2598" />
    <path
       d="m 236.22173,91.515664 c 16.13,-2.01 33.56,2.82 45,14.709996 11.07,10.9 15.89,26.82 15.5,42.09 -0.05,11.41 0.06,22.82 -0.06,34.24 -11.64,-0.02 -23.28,0 -34.92,-0.01 -0.14,-11.95 0.11,-23.89 -0.13,-35.83 -0.15,-7.6 -2.66,-16.01 -9.55,-20.13 -8.12,-4.66 -18.27,-3.98 -26.82,-0.86 -11.24,4.26 -20.43,12.39 -29.04,20.54 -9.36,9.01 -18.46,18.27 -27.41,27.67 -2.85,2.93 -5.21,6.37 -8.46,8.88 -1.82,0.25 -2.96,-0.51 -2.71,-2.36 -0.33,-11.35 0.13,-22.72 -0.2,-34.07 -0.29,-7.49 -3.18,-15.51 -9.87,-19.55 -8.04,-4.77 -18.22,-4.37 -26.78,-1.23 -10.91,4.2 -19.82,12.08 -28.230004,19.97 -15.95,14.74 -30.62,30.78 -45.74,46.36 -2.9,2.89 -5.34,6.27 -8.63,8.76 -0.56,0.02 -1.68,0.05 -2.24,0.07 -2.17,-9.68 0.06,-19.61 -0.91,-29.38 -0.12,-6.7 -0.04,-13.4 0.02,-20.1 -0.22,-7.22 0.13,-14.44 -0.11,-21.66 -0.1,-4.68 -4.06,-8.78 -8.75,-8.97 -8.44,-0.47 -16.9099996,0.1 -25.35999961,-0.24 -0.17,-0.22 -0.5,-0.66 -0.67,-0.88 -0.32,-8.5 -0.02,-17.01 -0.11,-25.519996 18.72999961,-0.02 37.46999961,-0.04 56.19999961,0 5.65,-0.01 11.54,3.23 13.16,8.909996 1.64,6.77 0.55,13.81 0.96,20.7 12.58,-12.31 27.31,-22.81 43.990004,-28.729996 14.15,-5.05 30.37,-5.36 44.14,1.08 9.83,4.589996 17.4,13.369996 20.96,23.569996 2.48,-2.16 4.83,-4.47 7.18,-6.78 13.64,-12.18 31.31,-19.949996 49.59,-21.249996 z"
       id="path22"
       inkscape:connector-curvature="0"
       style="fill:#9a2598" />
    <path
       d="m 640.41173,94.745664 c 9.46,-3.22 19.56,-3.24 29.43,-3.79 0.18,10.709996 0.02,21.419996 0.1,32.139996 -17.58,0.62 -33.45,9.56 -47.05,20.05 -21.49,16.68 -39.12,37.56 -58.13,56.86 -0.96,1.21 -2.58,0.75 -3.9,0.86 -0.58,-23.47 0.03,-46.95 -0.3,-70.42 0.1,-5.16 -4.24,-9.84 -9.44,-9.84 -8.47,-0.28 -16.94,-0.03 -25.4,-0.11 -0.1,-8.83 -0.05,-17.66 -0.03,-26.489996 17.15,-0.03 34.31,0.03 51.48,-0.03 4.36,-0.06 9.1,-0.07 12.89,2.45 3.62,2.36 5.48,6.689996 5.61,10.909996 0.2,5.41 -0.07,10.82 0.13,16.24 12.86,-12.3 27.67,-22.98 44.61,-28.829996 z"
       id="path24"
       inkscape:connector-curvature="0"
       style="fill:#9a2598" />
  </g>
</svg>
