<?xml version="1.0" encoding="UTF-8" standalone="no"?>
<svg
   width="1650pt"
   height="1650pt"
   viewBox="0 0 1649.9999 1650"
   version="1.1"
   id="svg24"
   sodipodi:docname="mdr-kultur.svg"
   inkscape:version="1.2.2 (b0a8486541, 2022-12-01)"
   xmlns:inkscape="http://www.inkscape.org/namespaces/inkscape"
   xmlns:sodipodi="http://sodipodi.sourceforge.net/DTD/sodipodi-0.dtd"
   xmlns="http://www.w3.org/2000/svg"
   xmlns:svg="http://www.w3.org/2000/svg"
   xmlns:rdf="http://www.w3.org/1999/02/22-rdf-syntax-ns#"
   xmlns:cc="http://creativecommons.org/ns#"
   xmlns:dc="http://purl.org/dc/elements/1.1/">
  <metadata
     id="metadata30">
    <rdf:RDF>
      <cc:Work
         rdf:about="">
        <dc:format>image/svg+xml</dc:format>
        <dc:type
           rdf:resource="http://purl.org/dc/dcmitype/StillImage" />
      </cc:Work>
    </rdf:RDF>
  </metadata>
  <defs
     id="defs28" />
  <sodipodi:namedview
     pagecolor="#ffffff"
     bordercolor="#666666"
     borderopacity="1"
     objecttolerance="10"
     gridtolerance="10"
     guidetolerance="10"
     inkscape:pageopacity="0"
     inkscape:pageshadow="2"
     inkscape:window-width="2560"
     inkscape:window-height="1377"
     id="namedview26"
     showgrid="false"
     inkscape:zoom="0.22507243"
     inkscape:cx="1543.9474"
     inkscape:cy="195.49262"
     inkscape:window-x="-8"
     inkscape:window-y="-8"
     inkscape:window-maximized="1"
     inkscape:current-layer="svg24"
     fit-margin-top="0"
     fit-margin-left="0"
     fit-margin-right="0"
     fit-margin-bottom="0"
     inkscape:showpageshadow="2"
     inkscape:pagecheckerboard="0"
     inkscape:deskcolor="#d1d1d1"
     inkscape:document-units="pt" />
  <rect
     style="fill:#ffffff;stroke:#ffffff;stroke-width:24.0574;stroke-linejoin:round"
     id="rect2379"
     width="1625.9426"
     height="1625.9425"
     x="12.028704"
     y="12.028704" />
  <g
     id="g2377"
     transform="translate(24.7069,515.87024)">
    <path
       d="m 567.06208,0.06893915 c 24.4,-0.06 48.8,0.02 73.2,-0.04 5.11,-0.08 10.51,1.43000005 14.11,5.22000005 3.23,3.5 4.69,8.3499998 4.69,13.0499998 -0.03,71.39 0.03,142.770001 -0.03,214.150001 0.28,2.65 -3.21,3.87 -4.9,1.99 -17.12,-14.9 -34.64,-29.35 -52.36,-43.53 -13.42,-10.54 -26.38,-22.38 -42.58,-28.51 -13.61,-5.46 -29.03,-6.42 -43.11,-2.19 -17.86,5.04 -32.92,18.53 -40.45,35.42 -6.56,13.9 -7.12,29.93 -3.99,44.8 3.01,15.71 10.72,30.04 19.7,43.11 -17.24,-0.01 -34.48,0.07 -51.72,-0.04 -12.71,-19.89 -17.2,-44.05 -15.87,-67.37 2.05,-23.25 12.04,-45.53 27.1,-63.26 14.91,-17.64 35.71,-30.3 58.37,-34.96 23.73,-5 49.29,-3.2 71.4,7.15 11.65,5.37 22.04,13.16 31.19,22.09 -0.07,-30.93 -0.01,-61.870001 -0.02,-92.810001 -0.01,-4.74 0.51,-9.96 -2.35,-14.07 -2.62,-3.97 -7.55,-5.65 -12.13,-5.48 -10.01,0.09 -20.01,-0.09 -30.01,0.11 -0.58,-11.59 -0.13,-23.22 -0.24,-34.82999985 z"
       id="path4"
       inkscape:connector-curvature="0"
       style="fill:#fab105" />
    <path
       d="m 0.01656854,329.94274 c 21.08000046,0.05 42.16000046,-0.11 63.24000046,0.08 0.07,40.51 -0.05,81.01 0.05,121.51 33.989995,-39.98 67.409991,-80.48 101.189991,-120.64 0.99,-1.32 2.84,-0.83 4.28,-0.98 23.74,0.09 47.48,-0.03 71.22,0.06 -26.77,30.01 -53.84,59.75 -80.67,89.7 -12.97,14.21 -25.66,28.69 -38.72,42.82 25.58,29.72 51.11,59.47 76.67,89.21 17.56,20.59 35.43,40.93 52.8,61.68 -26.34,0.09 -52.68,0.13 -79.02,-0.02 -35.8,-44.95 -71.829996,-89.73 -107.819991,-134.52 0.14,44.79 -0.08,89.59 0.11,134.38 -21.1,0.51 -42.23,0.09 -63.34000046,0.21 -0.01,-94.5 -0.01,-188.99 0.01,-283.49 z"
       id="path6"
       inkscape:connector-curvature="0"
       style="fill:#fab105" />
    <path
       d="m 285.16656,330.21274 c 10.51,-0.63 21.08,-0.1 31.62,-0.27 10.52,0.16 21.07,-0.34 31.58,0.26 -0.21,52.66 -0.03,105.33 -0.09,157.99 0.12,14.32 -0.84,28.9 2.84,42.9 3.01,12.3 9.71,24.07 20.2,31.47 11.03,7.95 25.17,10.16 38.48,9.33 14.31,-0.69 28.8,-6.45 38.09,-17.68 10.97,-12.92 14.44,-30.38 14.59,-46.93 0.11,-59.1 -0.03,-118.21 0.07,-177.32 20.99,-0.01 41.99,-0.08 63,0.03 -0.04,58.07 -0.01,116.14 -0.02,174.21 0.39,19.23 -2.95,38.83 -11.66,56.11 -7.52,15.24 -19.31,28.25 -33.51,37.54 -19.09,12.53 -41.83,18.57 -64.46,20.02 -19.44,1.13 -39.19,-0.35 -57.92,-5.86 -17.42,-5.17 -33.98,-14.22 -46.4,-27.65 -18.31,-19.1 -26.16,-46.14 -26.33,-72.14 -0.04,-60.67 0.12,-121.34 -0.08,-182.01 z"
       id="path8"
       inkscape:connector-curvature="0"
       style="fill:#fab105" />
    <path
       d="m 600.00656,329.96274 c 21.11,0.12 42.25,-0.35 63.35,0.24 -0.19,77.66 -0.03,155.32 -0.08,232.99 40.69,0.06 81.37,-0.11 122.06,0.08 -0.12,15.65 -0.07,31.29 -0.03,46.94 -0.24,1.03 0.56,3.53 -1.32,3.2 -61.33,0.04 -122.66,0.07 -183.99,-0.01 0.02,-94.48 0,-188.96 0.01,-283.44 z"
       id="path10"
       inkscape:connector-curvature="0"
       style="fill:#fab105" />
    <path
       d="m 767.76656,329.94274 c 80.41,0.01 160.82,-0.03 241.23004,0.03 0.04,16.74 0.01,33.48 0.01,50.22 -29.57004,0 -59.15004,-0.01 -88.72004,0.01 0.03,77.66 -0.11,155.33 0.07,233 -21.18,0.55 -42.4,0.09 -63.59,0.24 0,-77.75 0,-155.5 0,-233.25 -29.67,0 -59.33,0 -89,0 0,-16.75 0,-33.5 0,-50.25 z"
       id="path12"
       inkscape:connector-curvature="0"
       style="fill:#fab105" />
    <path
       d="m 1058.1866,330.17274 c 20.96,-0.56 41.95,-0.03 62.92,-0.27 0.39,52.1 0.05,104.21 0.17,156.31 0.2,15.14 -1.05,30.59 2.97,45.38 3.17,12.61 10.28,24.66 21.35,31.86 11.7,7.85 26.49,9.5 40.24,8.19 13.26,-1.21 26.39,-7.02 35.03,-17.37 7.4,-8.72 11.57,-19.78 13.35,-30.99 1.71,-10.25 1.23,-20.66 1.3,-31.01 0.02,-54.1 -0.04,-108.2 0.03,-162.3 21,-0.01 42.01,-0.12 63.02,0.05 -0.08,60.4 0,120.81 -0.04,181.21 -0.52,27.34 -10.11,55.38 -30.19,74.54 -21.95,21.71 -53.29,31.14 -83.56,32.34 -24.25,0.8 -49.19,-2.25 -71.28,-12.81 -15.12,-7.12 -28.48,-18.11 -37.84,-32 -9.42,-13.94 -14.65,-30.37 -16.56,-47 -1.32,-10.33 -0.71,-20.75 -0.84,-31.12 -0.05,-55.01 0.1,-110.01 -0.07,-165.01 z"
       id="path14"
       inkscape:connector-curvature="0"
       style="fill:#fab105" />
    <path
       style="fill:#fab105;fill-rule:evenodd;stroke-width:1"
       d="m 1487.833,329.89733 c -3.0269,-0.0133 -6.0537,0.0129 -9.0762,0.0454 -35.58,0.01 -71.1705,-0.0295 -106.7505,0.0205 -0.01,94.49 -0.01,188.97923 0,283.46924 20.66,0.01 41.3207,0.0298 61.9907,-0.0103 0.04,-39.07 0.02,-78.14973 0.01,-117.21973 11.88,0.16 23.819,-0.54025 35.669,0.73975 8.4,0.89 17.1607,4.01976 22.4107,11.00976 7.3099,9.52001 10.3998,21.36139 14.5898,32.42139 8.8099,24.35 17.6503,48.67908 26.3803,73.05908 22.51,0.02 45.0193,0.0197 67.5294,-0.0103 -12.33,-32.76 -24.6205,-65.54006 -36.9405,-98.31006 -4.53,-11.92001 -10.6087,-23.98942 -21.1787,-31.64942 -6.51,-4.89999 -14.3911,-7.27002 -22.081,-9.52002 9.5599,-1.92999 18.9808,-4.87047 27.6108,-9.48046 12.97,-6.68 24.2091,-17.29944 30.309,-30.66944 6.4601,-13.43 7.2309,-28.94949 4.8809,-43.47949 -2.3,-14.21 -9.2198,-27.77008 -20.0698,-37.33008 -13.29,-11.98 -30.7811,-18.0698 -48.1612,-21.0498 -8.9625,-1.605 -18.0423,-1.99629 -27.123,-2.03613 z m -30.167,42.22559 c 8.0463,-0.025 16.0858,0.13504 24.0908,1.04004 9.33,1.21 18.9403,3.51914 26.5503,9.36914 6.33,4.62 10.2399,11.98108 11.6499,19.60108 2.45,13.00999 0.01,27.92026 -10.021,37.28026 -11.74,11.08 -28.6292,13.82998 -44.1591,14.47998 -10.7501,0.13 -21.491,0.0198 -32.231,0.0498 -0.04,-27.24999 -0.01,-54.49999 -0.01,-81.74999 8.03,0.165 16.0827,-0.0453 24.1289,-0.0703 z"
       id="path16"
       inkscape:connector-curvature="0" />
    <path
       d="m 138.55208,124.71894 c 15.73,-7.44 33.49,-11.4 50.85,-8.59 13.78,1.8 27.05,8.36 36.03,19.09 4.46,5.15 7.54,11.3 10.12,17.56 17.92,-20.51 43.8,-33.88 70.88,-36.78 15.35,-1.86 31.57,-0.54 45.45,6.73 16.03,7.78 28.04,22.68 33.35,39.56 3.16,9.34 3.9,19.26 4.06,29.05 0,14.65 0,29.31 0,43.96 -15.42,0 -30.83,0 -46.25,0 -0.02,-15.01 0.03,-30.01 -0.02,-45.02 -0.16,-8.27 -1.48,-17.16 -7.08,-23.63 -4.98,-6.05 -12.96,-8.56 -20.54,-9.01 -11.55,-0.78 -22.85,3.32 -32.55,9.34 -11.46,7.17 -21.26,16.6 -30.98,25.91 -13.43,13.24 -26.66,26.7 -39.22,40.78 -0.91,1.11 -2.24,1.72 -3.44,2.46 -1.06,-0.8 -2.91,-1.16 -2.83,-2.83 -0.24,-15.02 0.01,-30.05 -0.11,-45.07 -0.43,-8.04 -2.55,-16.59 -8.51,-22.38 -4.98,-5.32 -12.32,-7.58 -19.41,-8.13 -11.27,-1.04 -22.38,2.88 -31.84,8.77 -16.11,10.14 -29.12,24.25 -42.8,37.3 -17.23,17.41 -34.1,35.17 -50.95,52.95 -1.26,1.16 -2.49,2.91 -4.45,2.58 -2,0.11 -2.56,-2.41 -2.53,-3.98 0.01,-29 0,-58 0,-87 0.03,-4.3 -1.34,-8.93 -4.89,-11.62 -3.55,-2.84 -8.33,-2.96 -12.67,-2.93 -9.31,0.09 -18.6299995,-0.09 -27.93999955,0.1 -0.54,-11.59 -0.12,-23.21 -0.22,-34.82 24.39999955,-0.04 48.78999955,-0.03 73.18999955,0 6,-0.03 12.48,2.34 15.75,7.64 2.5,3.67 3.01,8.25 3.06,12.58 0.01,6.17 -0.04,12.34 0.01,18.5 13.62,-13.36 29.2,-24.9 46.48,-33.07 z"
       id="path20"
       inkscape:connector-curvature="0"
       style="fill:#fab105" />
    <path
       d="m 846.13208,118.22894 c 10.78,-2.49 21.9,-3.04 32.93,-2.92 -0.01,14.05 0,28.09 0,42.13 -19.28,0.34 -37.25,8.9 -52.85,19.64 -27.18,18.72 -49.19,43.61 -71.94,67.25 -4.6,4.71 -8.97,9.65 -13.67,14.27 -1.79,2.1 -5.8,0.75 -5.28,-2.21 -0.07,-29.37 0,-58.75 -0.04,-88.12 -0.01,-3.93 -1.07,-8.11 -4.06,-10.84 -3.15,-2.98 -7.69,-3.67 -11.85,-3.64 -9.95,0.03 -19.89,0.02 -29.84,0.01 -0.01,-11.58 0,-23.16 0,-34.74 23.94,-0.03 47.88,0.01 71.82,-0.02 5.63,-0.09 11.75,1.28 15.66,5.63 3.55,3.94 4.57,9.44 4.54,14.59 -0.01,6.18 -0.02,12.37 -0.02,18.56 12.51,-11.96 26.25,-22.87 41.77,-30.64 7.28,-3.74 14.82,-7.12 22.83,-8.95 z"
       id="path22"
       inkscape:connector-curvature="0"
       style="fill:#fab105" />
  </g>
</svg>
