<?xml version="1.0" encoding="UTF-8" standalone="no"?>
<!-- Created with Inkscape (http://www.inkscape.org/) -->

<svg
   version="1.0"
   width="602.362"
   height="602.362"
   id="svg4081"
   sodipodi:docname="ndr-info.svg"
   inkscape:version="1.2.2 (b0a8486541, 2022-12-01)"
   xmlns:inkscape="http://www.inkscape.org/namespaces/inkscape"
   xmlns:sodipodi="http://sodipodi.sourceforge.net/DTD/sodipodi-0.dtd"
   xmlns="http://www.w3.org/2000/svg"
   xmlns:svg="http://www.w3.org/2000/svg">
  <sodipodi:namedview
     id="namedview8"
     pagecolor="#ffffff"
     bordercolor="#000000"
     borderopacity="0.25"
     inkscape:showpageshadow="2"
     inkscape:pageopacity="0.0"
     inkscape:pagecheckerboard="0"
     inkscape:deskcolor="#d1d1d1"
     showgrid="false"
     inkscape:zoom="2.2278955"
     inkscape:cx="270.88344"
     inkscape:cy="231.60871"
     inkscape:window-width="2560"
     inkscape:window-height="1377"
     inkscape:window-x="-8"
     inkscape:window-y="-8"
     inkscape:window-maximized="1"
     inkscape:current-layer="svg4081" />
  <defs
     id="defs4083" />
  <rect
     style="fill:#ffffff;stroke:#ffffff;stroke-width:98.101;stroke-linejoin:miter;stroke-dasharray:none;stroke-opacity:1"
     id="rect343"
     width="504.26123"
     height="504.26123"
     x="49.050388"
     y="49.050388" />
  <g
     transform="translate(-123.78125,-97.786775)"
     id="layer1">
    <g
       id="g4670">
      <path
         d="m 234.02767,256.84488 v 112.87333 h 14.21854 V 256.84488 Z m 14.21854,112.87333 v 120.06072 h 42.49937 c 29.16074,0 44.99934,-11.70325 44.99933,-42.12437 v -36.18697 c 0,-29.34208 -16.91762,-41.74937 -44.99933,-41.74938 z m 0,120.06072 h -14.21854 v 51.31174 h 14.21854 z m -14.21854,0 V 369.71821 h -25.37463 v 74.71764 l -40.53065,-74.71764 h -26.6246 v 120.06072 h 25.37462 v -70.03021 l 38.90568,70.03021 z M 347.99473,369.71821 v 120.06072 h 26.62461 v -46.06181 h 14.40603 l 21.40594,46.06181 h 28.62457 l -25.37462,-50.93674 c 14.04539,-5.40416 19.8122,-17.10667 19.81221,-31.68703 0,-28.80712 -17.28455,-37.43694 -43.56186,-37.43695 z m 26.09336,21.24969 h 16.906 c 10.61792,0 16.93724,3.04377 16.93725,14.74978 0,10.43656 -6.8543,16.21851 -16.93725,16.21851 h -16.906 z m -98.46729,1.43747 h 12.78106 c 14.75265,0 21.40595,7.20058 21.40594,21.78093 v 30.96829 c 0,14.58037 -6.6533,21.96843 -21.40594,21.96843 H 275.6208 Z"
         id="path2494"
         style="fill:#003366;fill-opacity:1;fill-rule:evenodd;stroke:none" />
      <path
         d="m 617.74074,367.53074 c -21.58949,1e-5 -24.99963,12.7469 -24.99963,29.24957 v 5.09367 h -13.28105 v 15.81227 h 13.4373 v 72.28018 h 19.90595 v -72.46768 h 16.49976 v -15.81226 h -16.68726 v -4.90618 c -2e-5,-7.31739 1.38451,-14.28104 11.24984,-14.28104 2.37564,0 5.09298,0.50742 7.46864,1.18748 l 1.37498,-14.81228 c -4.93266,-0.68006 -10.03587,-1.34373 -14.96853,-1.34373 z m -156.24769,1.93747 v 120.49822 h 20.74969 V 369.46821 Z m 209.87189,29.24957 c -28.11797,10e-6 -39.03067,20.52916 -39.03067,46.28057 0,27.95476 11.61398,46.15556 37.37445,46.15556 29.63226,2e-5 38.71818,-20.04357 38.71818,-46.31181 -1e-5,-29.96773 -12.65253,-46.12432 -37.06196,-46.12432 z m -124.68565,1.28123 c -8.66845,0 -17.18074,4.08091 -27.21835,11.90608 l -0.49999,-10.2186 h -18.71847 v 88.27994 h 19.90595 v -65.12404 c 7.14512,-5.95727 13.75457,-9.18736 18.68723,-9.18736 7.31741,-1e-5 10.90608,4.05675 10.90608,13.7498 v 60.5616 h 19.87471 V 428.0611 c -2e-5,-19.73064 -6.77906,-28.06209 -22.93716,-28.06209 z m 123.68567,14.37479 c 12.28632,-1e-5 17.49974,9.4159 17.49974,30.62455 -10e-6,21.38997 -5.21341,30.4683 -17.49974,30.4683 -11.9599,0 -17.49974,-9.40638 -17.49974,-29.78081 -10e-6,-22.05191 5.20435,-31.31204 17.49974,-31.31204 z"
         id="path2504"
         style="fill:#ffc300;fill-opacity:1;fill-rule:nonzero;stroke:none" />
    </g>
  </g>
</svg>
