<?xml version="1.0" encoding="UTF-8" standalone="no"?>
<svg
   version="1.0"
   id="svg2712"
   viewBox="17.7 17.72 566.95 566.94999"
   sodipodi:docname="ndr-kultur.svg"
   width="566.95001"
   height="566.95001"
   inkscape:version="1.2.2 (b0a8486541, 2022-12-01)"
   xmlns:inkscape="http://www.inkscape.org/namespaces/inkscape"
   xmlns:sodipodi="http://sodipodi.sourceforge.net/DTD/sodipodi-0.dtd"
   xmlns="http://www.w3.org/2000/svg"
   xmlns:svg="http://www.w3.org/2000/svg">
  <sodipodi:namedview
     id="namedview2743"
     pagecolor="#ffffff"
     bordercolor="#000000"
     borderopacity="0.25"
     inkscape:showpageshadow="2"
     inkscape:pageopacity="0.0"
     inkscape:pagecheckerboard="0"
     inkscape:deskcolor="#d1d1d1"
     showgrid="false"
     inkscape:zoom="2.3670517"
     inkscape:cx="254.95852"
     inkscape:cy="98.857156"
     inkscape:window-width="2560"
     inkscape:window-height="1377"
     inkscape:window-x="-8"
     inkscape:window-y="-8"
     inkscape:window-maximized="1"
     inkscape:current-layer="svg2712" />
  <defs
     id="defs2714" />
  <rect
     style="fill:#ffffff;stroke:#ffffff;stroke-width:345.514"
     id="rect2862"
     width="221.43692"
     height="221.4364"
     x="190.45654"
     y="190.47655" />
  <g
     id="g2394"
     transform="translate(0,184.44303)">
    <path
       d="m 82.2051,17.72159 v 78.74896 h 9.98226 V 17.72159 Z m 9.98226,78.74896 v 83.66087 h 29.47144 c 20.31945,0 31.37278,-8.11891 31.37283,-29.313 v -25.35177 c 0,-20.43988 -11.80764,-28.99615 -31.37283,-28.9961 z m 0,83.66087 H 82.2051 v 35.65094 h 9.98226 z m -9.98226,0 V 96.47055 H 64.45886 v 51.97114 L 36.255,96.47055 H 17.71651 v 83.66087 h 17.74625 v -48.80218 l 27.09471,48.80218 z m 79.38276,-83.66087 v 83.66087 h 18.53848 v -32.16507 h 10.14071 l 14.89417,32.16507 h 19.96453 l -17.74625,-35.4925 c 9.78579,-3.89783 13.78498,-12.01674 13.78503,-22.1828 0,-20.05959 -11.95965,-25.98562 -30.26368,-25.98557 z m 18.22159,14.73572 h 11.72519 c 7.39638,0 11.8837,2.15495 11.88365,10.29916 0,7.2823 -4.7345,11.2499 -11.88365,11.24985 h -11.72519 z m -68.60825,1.10914 h 8.87312 c 10.28648,0 14.89412,4.89295 14.89417,15.05262 v 21.54901 c 0,10.16606 -4.60774,15.36957 -14.89417,15.36952 h -8.87312 z"
       id="path71"
       style="fill:#003366;fill-opacity:1;fill-rule:nonzero;stroke:none"
       data-darkreader-inline-fill=""
       data-darkreader-inline-stroke="" />
    <path
       d="m 235.42491,84.27 v 12.20054 h 14.73572 v 83.66087 h 15.52796 v -23.4504 l 8.71468,-10.29916 17.11245,33.74956 h 17.58779 l -23.92574,-44.20716 21.07367,-24.55954 H 288.1883 l -14.26038,16.79555 c -2.55424,3.04227 -6.21119,6.74992 -8.23933,10.29917 V 84.27 Z m 151.79377,3.16897 v 73.52016 c -1.6e-4,14.06395 5.60908,20.28142 19.80607,20.28142 4.11971,0 8.22031,-0.80492 12.20054,-1.74293 l -0.63379,-12.20054 c -2.39569,0.79224 -5.08937,1.42603 -7.60553,1.42603 -5.97668,-5e-5 -8.23933,-2.09786 -8.23933,-8.08088 V 87.43897 Z m 59.57668,2.05983 -15.52797,3.96122 v 17.74624 h -9.98226 v 12.359 h 9.98226 v 37.39387 c 0,14.0639 5.77387,20.28142 19.96453,20.28142 4.11966,0 8.06835,-0.80492 12.04209,-1.74293 l -0.63379,-12.20054 c -2.40209,0.79224 -5.08309,1.42598 -7.60554,1.42603 -5.98302,0 -8.23938,-2.09786 -8.23933,-8.08088 v -37.07697 h 15.21107 v -12.359 h -15.21107 z m 137.8503,19.96453 c -13.0055,0.12042 -16.9414,4.7344 -23.45041,15.21107 l -0.15845,-13.46813 h -14.73572 v 68.92515 h 15.52796 v -39.45371 c 5.17812,-10.74916 10.60342,-15.07168 22.81662,-15.21107 z m -268.2535,1.74293 v 46.90079 c 0,12.47308 3.89139,23.292 18.22159,23.29195 7.16188,0 15.33782,-5.08303 20.91521,-9.19002 l 0.47535,7.92243 h 14.57727 v -68.92514 h -15.68641 v 50.70355 c -3.71405,3.04855 -9.66533,7.13024 -14.57728,7.13019 -7.03512,0 -8.39778,-6.33789 -8.39778,-12.0421 v -45.79164 z m 159.24086,0 v 46.90079 c 0,12.47308 3.87872,23.292 18.22159,23.29195 7.15554,0 15.34401,-5.08303 20.91521,-9.19002 l 0.3169,7.92243 h 14.57727 v -68.92514 h -15.52796 v 50.70355 c -3.71405,3.04855 -9.67167,7.13024 -14.57729,7.13019 -7.02244,0 -8.39778,-6.33789 -8.39778,-12.0421 v -45.79165 z"
       id="path73"
       style="fill:#993333;fill-opacity:1;fill-rule:nonzero;stroke:none"
       data-darkreader-inline-fill=""
       data-darkreader-inline-stroke="" />
  </g>
</svg>
