<?xml version="1.0" encoding="UTF-8" standalone="no"?>
<!-- Created with Inkscape (http://www.inkscape.org/) -->

<svg
   version="1.0"
   width="708.66101"
   height="708.66101"
   id="svg5541"
   sodipodi:docname="ndr1-niedersachsen.svg"
   inkscape:version="1.2.2 (b0a8486541, 2022-12-01)"
   xmlns:inkscape="http://www.inkscape.org/namespaces/inkscape"
   xmlns:sodipodi="http://sodipodi.sourceforge.net/DTD/sodipodi-0.dtd"
   xmlns="http://www.w3.org/2000/svg"
   xmlns:svg="http://www.w3.org/2000/svg">
  <sodipodi:namedview
     id="namedview25"
     pagecolor="#ffffff"
     bordercolor="#000000"
     borderopacity="0.25"
     inkscape:showpageshadow="2"
     inkscape:pageopacity="0.0"
     inkscape:pagecheckerboard="0"
     inkscape:deskcolor="#d1d1d1"
     showgrid="false"
     inkscape:zoom="1.8937111"
     inkscape:cx="318.68642"
     inkscape:cy="380.7339"
     inkscape:window-width="2560"
     inkscape:window-height="1377"
     inkscape:window-x="-8"
     inkscape:window-y="-8"
     inkscape:window-maximized="1"
     inkscape:current-layer="svg5541" />
  <defs
     id="defs5543" />
  <rect
     style="fill:#ffffff;stroke:#ffffff;stroke-width:346.385"
     id="rect360"
     width="362.27676"
     height="362.27658"
     x="173.19214"
     y="173.19214" />
  <g
     transform="matrix(0.94038748,0,0,0.94038748,-68.032356,334.7473)"
     id="layer1">
    <g
       transform="matrix(10.494063,0,0,10.494063,4286.9658,4208.6524)"
       id="g5568">
      <path
         d="m -359.55272,-388.3425 h -3.83816 l -2.88464,-6.17966 h -1.93115 v 6.17966 h -3.57262 v -16.11299 h 5.63653 c 3.52434,0 5.84172,1.15869 5.84172,5.02098 0,1.95528 -0.77246,3.53641 -2.65533,4.26059 z m -4.17611,-11.28513 c 0,-1.56905 -0.84487,-1.97942 -2.26909,-1.97942 h -2.28117 v 4.15196 h 2.28117 c 1.3518,0 2.26909,-0.77246 2.26909,-2.17254"
         style="fill:#00417c;fill-rule:evenodd;stroke:none"
         id="path4165" />
      <path
         d="m -387.05948,-404.45549 h 1.90701 v -14.78533 h -1.90701 z"
         style="fill:#00417c;fill-rule:nonzero;stroke:none"
         id="path4167" />
      <path
         d="m -373.42076,-393.9911 c 0,4.07955 -2.12426,5.6486 -6.03483,5.6486 h -5.69688 v -16.11299 h 5.69688 c 3.76573,0 6.03483,1.66561 6.03483,5.60032 z m -3.47606,-0.33795 v -4.16403 c 0,-1.95528 -0.89316,-2.92086 -2.87258,-2.92086 h -1.7139 v 10.02989 h 1.7139 c 1.97942,0 2.87258,-0.98971 2.87258,-2.945"
         style="fill:#00417c;fill-rule:evenodd;stroke:none"
         id="path4169" />
      <path
         d="m -387.05948,-388.3425 v -16.11299 h -3.41571 v 10.02989 l -5.43135,-10.02989 h -3.57262 v 16.11299 h 3.40365 v -9.40226 l 5.21409,9.40226 h 3.80194"
         style="fill:#00417c;fill-rule:nonzero;stroke:none"
         id="path4171" />
      <path
         d="m -387.05948,-381.46279 h 1.90701 v -6.87971 h -1.90701 z"
         style="fill:#00417c;fill-rule:nonzero;stroke:none"
         id="path4173" />
      <path
         d="m -377.59686,-379.00058 v -5.56411 h -0.65177 v 4.06747 c 0,0.43451 0.0121,0.55521 0.0362,0.72418 -0.0483,-0.19311 -0.0965,-0.31381 -0.31381,-0.74832 l -2.0277,-4.04333 h -0.89316 v 5.56411 h 0.66384 v -3.94678 c 0,-0.47072 0,-0.57934 -0.0362,-0.83281 0.0603,0.2414 0.18104,0.47072 0.37416,0.82074 l 2.00356,3.95885 h 0.84488"
         style="fill:#00417c;fill-rule:nonzero;stroke:none"
         id="path4175" />
      <path
         d="m -376.40197,-383.90086 h 0.73625 v -0.86902 h -0.73625 z m 0.70004,4.90028 v -4.30887 h -0.63969 v 4.30887 h 0.63969"
         style="fill:#00417c;fill-rule:evenodd;stroke:none"
         id="path4177" />
      <path
         d="m -371.99654,-381.58349 h -2.00357 c 0.0845,-0.89315 0.45865,-1.29145 1.06213,-1.29145 0.54314,0 0.94144,0.45865 0.94144,1.29145 z m 0.66383,1.61734 -0.54314,-0.28968 c -0.20518,0.49486 -0.49485,0.83281 -1.03799,0.83281 -0.73625,0 -1.0742,-0.50692 -1.08627,-1.64147 h 2.6674 v -0.36209 c 0,-1.01385 -0.44658,-1.9915 -1.5932,-1.9915 -1.02592,0 -1.7501,0.72418 -1.7501,2.22082 0,1.4725 0.56728,2.30531 1.7501,2.30531 0.89316,0 1.32767,-0.47072 1.5932,-1.0742"
         style="fill:#00417c;fill-rule:evenodd;stroke:none"
         id="path4179" />
      <path
         d="m -367.76009,-380.05064 c -0.31381,0.38623 -0.60349,0.59141 -0.96558,0.59141 -0.6759,0 -1.03799,-0.5552 -1.03799,-1.66561 0,-1.12248 0.36209,-1.72596 1.01386,-1.72596 0.42243,0 0.68797,0.20518 0.98971,0.47071 z m 0.63969,1.05006 v -5.7693 h -0.63969 v 1.89494 c -0.30174,-0.30174 -0.78453,-0.49486 -1.18283,-0.49486 -0.97764,0 -1.50871,0.7966 -1.50871,2.23289 0,1.42422 0.55521,2.20875 1.53285,2.20875 0.54313,0 0.86902,-0.2776 1.17076,-0.57935 l 0.0121,0.50693 h 0.61555"
         style="fill:#00417c;fill-rule:evenodd;stroke:none"
         id="path4181" />
      <path
         d="m -363.33053,-381.58349 h -1.99149 c 0.0724,-0.89315 0.45865,-1.29145 1.05006,-1.29145 0.54313,0 0.94143,0.45865 0.94143,1.29145 z m 0.66383,1.61734 -0.54313,-0.28968 c -0.20519,0.49486 -0.49486,0.83281 -1.03799,0.83281 -0.72418,0 -1.0742,-0.50692 -1.0742,-1.64147 h 2.65532 v -0.36209 c 0,-1.01385 -0.44657,-1.9915 -1.59319,-1.9915 -1.02592,0 -1.73803,0.72418 -1.73803,2.22082 0,1.4725 0.56727,2.30531 1.73803,2.30531 0.89315,0 1.33973,-0.47072 1.59319,-1.0742"
         style="fill:#00417c;fill-rule:evenodd;stroke:none"
         id="path4183" />
      <path
         d="m -359.43203,-382.71804 v -0.68797 c -0.0604,0 -0.13276,0.0121 -0.21725,0.0121 -0.70004,0.0724 -0.96557,0.44658 -1.27939,0.97765 v -0.89316 h -0.62762 v 4.30887 h 0.63969 v -2.59498 c 0.33795,-0.6759 0.72418,-1.01385 1.12248,-1.09834 0.1207,-0.0241 0.2414,-0.0241 0.36209,-0.0241"
         style="fill:#00417c;fill-rule:nonzero;stroke:none"
         id="path4185" />
      <path
         d="m -355.95597,-380.12306 c 0,-1.48457 -2.28116,-1.24317 -2.28116,-2.22082 0,-0.35002 0.26553,-0.5552 0.7966,-0.5552 0.66383,0 0.86901,0.5552 0.86901,0.5552 l 0.53107,-0.26553 c 0,0 -0.30175,-0.80867 -1.40008,-0.80867 -0.89316,0 -1.42422,0.43451 -1.42422,1.13455 0,1.43629 2.28116,1.26732 2.28116,2.23289 0,0.42244 -0.36209,0.65176 -0.90522,0.65176 -0.80867,0 -1.02592,-0.72418 -1.02592,-0.72418 l -0.53107,0.26553 c 0,0 0.25346,0.96558 1.55699,0.96558 0.91729,0 1.53284,-0.36209 1.53284,-1.23111"
         style="fill:#00417c;fill-rule:nonzero;stroke:none"
         id="path4187" />
      <path
         d="m -352.76958,-380.08685 c -0.36209,0.53106 -0.72418,0.63969 -1.11041,0.63969 -0.42243,0 -0.6759,-0.2776 -0.6759,-0.74832 0,-0.85694 1.13455,-1.01385 1.78631,-1.08627 z m 0.62763,1.08627 v -3.12604 c 0,-0.85695 -0.48279,-1.29146 -1.44836,-1.29146 -1.03799,0 -1.4725,0.70004 -1.54492,0.80867 l 0.49486,0.32588 c 0.0241,-0.0604 0.35002,-0.60348 1.02592,-0.60348 0.57934,0 0.84487,0.32588 0.84487,0.80867 v 0.32588 c -0.97764,0.12069 -2.43807,0.33795 -2.43807,1.60526 0,0.73625 0.45865,1.21904 1.1949,1.21904 0.5552,0 0.92936,-0.15691 1.26731,-0.59142 l 0.0121,0.519 h 0.59142"
         style="fill:#00417c;fill-rule:evenodd;stroke:none"
         id="path4189" />
      <path
         d="m -349.46249,-383.41808 c -1.30352,0 -1.68975,1.24318 -1.68975,2.34152 0,1.09834 0.41037,2.18461 1.67768,2.18461 0.61555,0 1.13455,-0.2414 1.42422,-0.78453 0.0724,-0.1207 0.13277,-0.28967 0.15691,-0.42244 l -0.59142,-0.21725 c -0.0604,0.50692 -0.45864,0.89315 -0.97764,0.89315 -0.88108,0 -1.01385,-1.02592 -1.01385,-1.70182 0,-0.6759 0.10863,-1.7501 1.01385,-1.7501 0.50693,0 0.85695,0.43451 0.92936,0.89315 l 0.61556,-0.1569 c -0.0241,-0.14484 -0.0845,-0.30174 -0.15691,-0.44658 -0.28967,-0.54313 -0.77246,-0.83281 -1.38801,-0.83281"
         style="fill:#00417c;fill-rule:nonzero;stroke:none"
         id="path4191" />
      <path
         d="m -343.91045,-379.00058 v -2.90879 c 0,-0.80867 -0.10862,-1.4725 -1.15868,-1.4725 -0.56728,0 -1.25525,0.56728 -1.25525,0.56728 v -1.95529 h -0.63969 v 5.7693 h 0.63969 v -3.31916 c 0,0 0.62762,-0.53106 1.12248,-0.53106 0.54313,0 0.65176,0.2776 0.65176,0.80867 v 3.04155 h 0.63969"
         style="fill:#00417c;fill-rule:nonzero;stroke:none"
         id="path4193" />
      <path
         d="m -340.01195,-380.12306 c 0,-1.48457 -2.29323,-1.24317 -2.29323,-2.22082 0,-0.35002 0.26553,-0.5552 0.7966,-0.5552 0.66383,0 0.86901,0.5552 0.86901,0.5552 l 0.53107,-0.26553 c 0,0 -0.30175,-0.80867 -1.40008,-0.80867 -0.89316,0 -1.42422,0.43451 -1.42422,1.13455 0,1.43629 2.28116,1.26732 2.28116,2.23289 0,0.42244 -0.36209,0.65176 -0.90522,0.65176 -0.80867,0 -1.02592,-0.72418 -1.02592,-0.72418 l -0.53107,0.26553 c 0,0 0.25346,0.96558 1.55699,0.96558 0.91729,0 1.54491,-0.36209 1.54491,-1.23111"
         style="fill:#00417c;fill-rule:nonzero;stroke:none"
         id="path4195" />
      <path
         d="m -336.70486,-381.58349 h -1.99149 c 0.0724,-0.89315 0.45864,-1.29145 1.05006,-1.29145 0.54313,0 0.94143,0.45865 0.94143,1.29145 z m 0.66383,1.61734 -0.54313,-0.28968 c -0.19312,0.49486 -0.49486,0.83281 -1.03799,0.83281 -0.72418,0 -1.0742,-0.50692 -1.0742,-1.64147 h 2.65532 v -0.36209 c 0,-1.01385 -0.44658,-1.9915 -1.59319,-1.9915 -1.02593,0 -1.73803,0.72418 -1.73803,2.22082 0,1.4725 0.56727,2.30531 1.73803,2.30531 0.89315,0 1.33973,-0.47072 1.59319,-1.0742"
         style="fill:#00417c;fill-rule:evenodd;stroke:none"
         id="path4197" />
      <path
         d="m -331.94941,-379.00058 v -2.98121 c 0,-1.03799 -0.35002,-1.38801 -1.15869,-1.38801 -0.3983,0 -0.83281,0.21726 -1.29146,0.57935 v -0.519 h -0.61555 v 4.30887 h 0.63969 v -3.31916 c 0.44658,-0.35002 0.84488,-0.53106 1.14662,-0.53106 0.44658,0 0.63969,0.20518 0.63969,0.77246 v 3.07776 h 0.6397"
         style="fill:#00417c;fill-rule:nonzero;stroke:none"
         id="path4199" />
      <path
         d="m -354.10931,-399.94144 h -2.35358 v -2.28116 l 0.2776,-0.0604 c 1.08627,-0.20519 1.68975,-0.49486 2.10012,-0.80867 0.20518,-0.15691 0.37416,-0.32588 0.53107,-0.53107 0.16897,-0.20518 0.32588,-0.42243 0.50692,-0.63969 l 0.10863,-0.14483 h 2.18461 v 13.15593 h 2.36565 v 2.88464 h -8.11081 v -2.88464 h 2.38979 v -8.69016"
         style="fill:#de721b;fill-rule:nonzero;stroke:none"
         id="path4201" />
    </g>
  </g>
</svg>
