<?xml version="1.0" encoding="UTF-8" standalone="no"?>
<!-- Created with Inkscape (http://www.inkscape.org/) -->

<svg
   version="1.0"
   width="194.00999"
   height="194.00999"
   id="svg3126"
   sodipodi:docname="radio-regenbogen.svg"
   inkscape:version="1.2.2 (b0a8486541, 2022-12-01)"
   xmlns:inkscape="http://www.inkscape.org/namespaces/inkscape"
   xmlns:sodipodi="http://sodipodi.sourceforge.net/DTD/sodipodi-0.dtd"
   xmlns="http://www.w3.org/2000/svg"
   xmlns:svg="http://www.w3.org/2000/svg">
  <sodipodi:namedview
     id="namedview524"
     pagecolor="#ffffff"
     bordercolor="#000000"
     borderopacity="0.25"
     inkscape:showpageshadow="2"
     inkscape:pageopacity="0.0"
     inkscape:pagecheckerboard="0"
     inkscape:deskcolor="#d1d1d1"
     showgrid="false"
     inkscape:zoom="3.3466562"
     inkscape:cx="126.24542"
     inkscape:cy="107.27125"
     inkscape:window-width="2560"
     inkscape:window-height="1377"
     inkscape:window-x="-8"
     inkscape:window-y="-8"
     inkscape:window-maximized="1"
     inkscape:current-layer="svg3126" />
  <defs
     id="defs3128">
    <clipPath
       id="clipPath2642">
      <path
         d="M 230.315,544.377 H 382.324 V 683.292 H 230.315 Z"
         id="path2644" />
    </clipPath>
    <linearGradient
       x1="0"
       y1="0"
       x2="1"
       y2="0"
       id="linearGradient2720"
       gradientUnits="userSpaceOnUse"
       gradientTransform="matrix(87.339066,0,0,-87.339066,234.76886,631.74838)"
       spreadMethod="pad">
      <stop
         id="stop2722"
         style="stop-color:#7c4e9a;stop-opacity:1"
         offset="0" />
      <stop
         id="stop2724"
         style="stop-color:#622b87;stop-opacity:1"
         offset="1" />
    </linearGradient>
    <radialGradient
       cx="0"
       cy="0"
       r="1"
       fx="0"
       fy="0"
       id="radialGradient2740"
       gradientUnits="userSpaceOnUse"
       gradientTransform="matrix(36.876327,0,0,-36.876327,277.81233,634.67792)"
       spreadMethod="pad">
      <stop
         id="stop2742"
         style="stop-color:#ffffff;stop-opacity:1"
         offset="0" />
      <stop
         id="stop2744"
         style="stop-color:#9185be;stop-opacity:1"
         offset="1" />
    </radialGradient>
    <clipPath
       id="clipPath2752">
      <path
         d="M 230.315,544.377 H 382.324 V 683.292 H 230.315 Z"
         id="path2754" />
    </clipPath>
    <linearGradient
       x1="0"
       y1="0"
       x2="1"
       y2="0"
       id="linearGradient2780"
       gradientUnits="userSpaceOnUse"
       gradientTransform="matrix(148.48099,0,0,-148.48099,231.99808,609.09279)"
       spreadMethod="pad">
      <stop
         id="stop2782"
         style="stop-color:#00b6ed;stop-opacity:1"
         offset="0" />
      <stop
         id="stop2784"
         style="stop-color:#009ee3;stop-opacity:1"
         offset="1" />
    </linearGradient>
    <radialGradient
       cx="0"
       cy="0"
       r="1"
       fx="0"
       fy="0"
       id="radialGradient2800"
       gradientUnits="userSpaceOnUse"
       gradientTransform="matrix(59.858597,0,0,-59.858597,306.31995,610.70604)"
       spreadMethod="pad">
      <stop
         id="stop2802"
         style="stop-color:#00b1eb;stop-opacity:1"
         offset="0" />
      <stop
         id="stop2804"
         style="stop-color:#dff2fd;stop-opacity:1"
         offset="0.48352101" />
      <stop
         id="stop2806"
         style="stop-color:#70cbf3;stop-opacity:1"
         offset="1" />
    </radialGradient>
    <clipPath
       id="clipPath2814">
      <path
         d="M 230.315,544.377 H 382.322 V 683.292 H 230.315 Z"
         id="path2816" />
    </clipPath>
    <clipPath
       id="clipPath2826">
      <path
         d="M 230.315,544.377 H 382.324 V 683.292 H 230.315 Z"
         id="path2828" />
    </clipPath>
    <linearGradient
       x1="0"
       y1="0"
       x2="1"
       y2="0"
       id="linearGradient2850"
       gradientUnits="userSpaceOnUse"
       gradientTransform="matrix(137.8302,0,0,-137.8302,239.79112,604.18481)"
       spreadMethod="pad">
      <stop
         id="stop2852"
         style="stop-color:#006f9d;stop-opacity:1"
         offset="0" />
      <stop
         id="stop2854"
         style="stop-color:#005477;stop-opacity:1"
         offset="1" />
    </linearGradient>
    <linearGradient
       x1="0"
       y1="0"
       x2="1"
       y2="0"
       id="linearGradient2870"
       gradientUnits="userSpaceOnUse"
       gradientTransform="matrix(96.477417,0,0,-96.477417,262.52957,613.82446)"
       spreadMethod="pad">
      <stop
         id="stop2872"
         style="stop-color:#78bc68;stop-opacity:1"
         offset="0" />
      <stop
         id="stop2874"
         style="stop-color:#0aa537;stop-opacity:1"
         offset="1" />
    </linearGradient>
    <linearGradient
       x1="0"
       y1="0"
       x2="1"
       y2="0"
       id="linearGradient2890"
       gradientUnits="userSpaceOnUse"
       gradientTransform="matrix(99.966568,0,0,-99.966568,260.65634,617.10204)"
       spreadMethod="pad">
      <stop
         id="stop2892"
         style="stop-color:#9ccc8f;stop-opacity:1"
         offset="0" />
      <stop
         id="stop2894"
         style="stop-color:#b6d7a4;stop-opacity:1"
         offset="1" />
    </linearGradient>
    <clipPath
       id="clipPath2902">
      <path
         d="M 230.315,544.377 H 382.324 V 683.292 H 230.315 Z"
         id="path2904" />
    </clipPath>
    <linearGradient
       x1="0"
       y1="0"
       x2="1"
       y2="0"
       id="linearGradient2926"
       gradientUnits="userSpaceOnUse"
       gradientTransform="matrix(88.9039,0,0,-88.9039,268.87753,608.77087)"
       spreadMethod="pad">
      <stop
         id="stop2928"
         style="stop-color:#03611d;stop-opacity:1"
         offset="0" />
      <stop
         id="stop2930"
         style="stop-color:#015a19;stop-opacity:1"
         offset="1" />
    </linearGradient>
    <clipPath
       id="clipPath2938">
      <path
         d="M 230.315,544.377 H 382.324 V 683.292 H 230.315 Z"
         id="path2940" />
    </clipPath>
    <linearGradient
       x1="0"
       y1="0"
       x2="1"
       y2="0"
       id="linearGradient2958"
       gradientUnits="userSpaceOnUse"
       gradientTransform="matrix(86.917069,0,0,-86.917069,259.96407,593.46161)"
       spreadMethod="pad">
      <stop
         id="stop2960"
         style="stop-color:#fff265;stop-opacity:1"
         offset="0" />
      <stop
         id="stop2962"
         style="stop-color:#ffee00;stop-opacity:1"
         offset="1" />
    </linearGradient>
    <radialGradient
       cx="0"
       cy="0"
       r="1"
       fx="0"
       fy="0"
       id="radialGradient2978"
       gradientUnits="userSpaceOnUse"
       gradientTransform="matrix(36.629684,0,0,-36.629684,303.31493,595.30243)"
       spreadMethod="pad">
      <stop
         id="stop2980"
         style="stop-color:#fff041;stop-opacity:1"
         offset="0" />
      <stop
         id="stop2982"
         style="stop-color:#fff8bd;stop-opacity:1"
         offset="0.48352101" />
      <stop
         id="stop2984"
         style="stop-color:#fff6a6;stop-opacity:1"
         offset="1" />
    </radialGradient>
    <clipPath
       id="clipPath2992">
      <path
         d="M 230.315,544.377 H 382.324 V 683.292 H 230.315 Z"
         id="path2994" />
    </clipPath>
    <linearGradient
       x1="0"
       y1="0"
       x2="1"
       y2="0"
       id="linearGradient3012"
       gradientUnits="userSpaceOnUse"
       gradientTransform="matrix(79.202118,0,0,-79.202118,267.44763,588.36856)"
       spreadMethod="pad">
      <stop
         id="stop3014"
         style="stop-color:#a99c00;stop-opacity:1"
         offset="0" />
      <stop
         id="stop3016"
         style="stop-color:#867c00;stop-opacity:1"
         offset="1" />
    </linearGradient>
    <clipPath
       id="clipPath3024">
      <path
         d="M 230.315,544.377 H 382.324 V 683.292 H 230.315 Z"
         id="path3026" />
    </clipPath>
    <linearGradient
       x1="0"
       y1="0"
       x2="1"
       y2="0"
       id="linearGradient3048"
       gradientUnits="userSpaceOnUse"
       gradientTransform="matrix(41.014084,0,0,-41.014084,277.27446,586.31883)"
       spreadMethod="pad">
      <stop
         id="stop3050"
         style="stop-color:#ee6f43;stop-opacity:1"
         offset="0" />
      <stop
         id="stop3052"
         style="stop-color:#e8451d;stop-opacity:1"
         offset="1" />
    </linearGradient>
    <radialGradient
       cx="0"
       cy="0"
       r="1"
       fx="0"
       fy="0"
       id="radialGradient3068"
       gradientUnits="userSpaceOnUse"
       gradientTransform="matrix(18.393753,0,0,-18.393753,296.21123,589.10085)"
       spreadMethod="pad">
      <stop
         id="stop3070"
         style="stop-color:#f28e66;stop-opacity:1"
         offset="0" />
      <stop
         id="stop3072"
         style="stop-color:#fcddcb;stop-opacity:1"
         offset="0.5" />
      <stop
         id="stop3074"
         style="stop-color:#f9bd95;stop-opacity:1"
         offset="1" />
    </radialGradient>
    <clipPath
       id="clipPath3082">
      <path
         d="M 230.315,544.377 H 382.324 V 683.292 H 230.315 Z"
         id="path3084" />
    </clipPath>
    <linearGradient
       x1="0"
       y1="0"
       x2="1"
       y2="0"
       id="linearGradient3102"
       gradientUnits="userSpaceOnUse"
       gradientTransform="matrix(35.468353,0,0,-35.468353,284.28856,581.46519)"
       spreadMethod="pad">
      <stop
         id="stop3104"
         style="stop-color:#8a2100;stop-opacity:1"
         offset="0" />
      <stop
         id="stop3106"
         style="stop-color:#781d00;stop-opacity:1"
         offset="1" />
    </linearGradient>
    <clipPath
       id="clipPath3114">
      <path
         d="M 230.315,544.377 H 382.324 V 683.292 H 230.315 Z"
         id="path3116" />
    </clipPath>
  </defs>
  <rect
     style="fill:#ffffff;stroke:#ffffff;stroke-width:105.975"
     id="rect695"
     width="88.034569"
     height="88.035156"
     x="52.987713"
     y="52.987713" />
  <g
     transform="translate(-502.13786,-351.64288)"
     id="layer1">
    <g
       transform="matrix(1.25,0,0,-1.25,216.24411,1215.941)"
       id="g2638">
      <g
         clip-path="url(#clipPath2642)"
         id="g2640">
        <g
           transform="translate(258.8108,674.2991)"
           id="g2646">
          <path
             d="m 0,0 c 2.591,0 3.684,0.689 3.684,2.496 v 1.568 c 0,1.926 -0.832,2.543 -4.254,2.543 H -11.171 V 0 Z M -13.5,8.509 H 0.261 c 4.968,0 5.752,-1.64 5.752,-4.873 V 2.234 c 0,-2.424 -1.378,-3.09 -3.161,-3.256 V -1.07 C 5.229,-1.497 5.799,-2.733 5.799,-4.302 V -8.699 H 3.613 v 3.779 c 0,2.686 -1.307,3.019 -3.423,3.019 H -11.171 V -8.699 H -13.5 Z"
             id="path2648"
             style="fill:#003d84;fill-opacity:1;fill-rule:nonzero;stroke:none" />
        </g>
        <g
           transform="translate(281.5567,680.9065)"
           id="g2650">
          <path
             d="M 0,0 -5.776,-9.768 H 5.776 Z m -1.45,1.902 h 2.9 L 11.67,-15.306 H 9.032 L 6.893,-11.67 H -6.893 l -2.139,-3.636 h -2.638 z"
             id="path2652"
             style="fill:#003d84;fill-opacity:1;fill-rule:nonzero;stroke:none" />
        </g>
        <g
           transform="translate(317.541,675.0359)"
           id="g2654">
          <path
             d="M 0,0 C 0,4.967 -1.545,5.871 -4.397,5.871 H -16.59 V -7.534 h 11.813 c 2.828,0 4.777,0.618 4.777,5.775 z m -18.919,7.772 h 13.904 c 5.776,0 7.344,-1.806 7.344,-8.604 0,-6.322 -1.568,-8.604 -7.415,-8.604 h -13.833 z"
             id="path2656"
             style="fill:#003d84;fill-opacity:1;fill-rule:nonzero;stroke:none" />
        </g>
        <path
           d="m 326.953,682.808 h 2.329 V 665.6 h -2.329 z"
           id="path2658"
           style="fill:#003d84;fill-opacity:1;fill-rule:nonzero;stroke:none" />
        <g
           transform="translate(356.2109,677.4364)"
           id="g2660">
          <path
             d="m 0,0 c 0,2.995 -1.806,3.66 -4.041,3.66 h -9.435 c -2.234,0 -4.041,-0.665 -4.041,-3.66 v -6.465 c 0,-2.994 1.807,-3.66 4.041,-3.66 h 9.435 c 2.235,0 4.041,0.666 4.041,3.66 z m -19.846,-0.879 c 0,4.349 1.474,6.441 6.132,6.441 h 9.911 c 4.659,0 6.132,-2.092 6.132,-6.441 v -4.706 c 0,-4.35 -1.473,-6.441 -6.132,-6.441 h -9.911 c -4.658,0 -6.132,2.091 -6.132,6.441 z"
             id="path2662"
             style="fill:#003d84;fill-opacity:1;fill-rule:nonzero;stroke:none" />
        </g>
        <g
           transform="translate(248.9546,552.8856)"
           id="g2664">
          <path
             d="m 0,0 h 0.716 c 1.321,0 1.545,0.358 1.545,1.41 v 2.439 c 0,0.828 -0.336,1.209 -1.142,1.209 H 0 Z m -3.715,7.833 h 4.588 c 3.984,0 5.103,-0.828 5.103,-3.871 V 2.014 c 0,-2.461 -0.963,-3.021 -2.529,-3.29 V -1.32 C 5.103,-1.678 5.976,-1.969 5.976,-3.961 V -8.37 H 2.261 v 4.633 c 0,0.671 -0.381,0.962 -1.634,0.962 H 0 V -8.37 h -3.715 z"
             id="path2666"
             style="fill:#003d84;fill-opacity:1;fill-rule:nonzero;stroke:none" />
        </g>
        <g
           transform="translate(257.2802,560.7191)"
           id="g2668">
          <path
             d="M 0,0 H 7.139 V -2.91 H 3.715 V -6.468 H 6.893 V -9.244 H 3.715 v -4.05 h 3.693 v -2.91 H 0 Z"
             id="path2670"
             style="fill:#003d84;fill-opacity:1;fill-rule:nonzero;stroke:none" />
        </g>
        <g
           transform="translate(266.5903,557.563)"
           id="g2672">
          <path
             d="m 0,0 c 0,2.641 1.701,3.335 4.812,3.335 2.932,0 4.812,-0.492 4.812,-3.827 V -2.081 H 6.043 v 1.701 c 0,0.738 -0.269,0.94 -1.209,0.94 -0.716,0 -0.985,-0.202 -0.985,-1.007 v -9.4 c 0,-0.403 0.269,-0.604 1.008,-0.604 0.917,0 1.186,0.201 1.186,0.536 v 2.552 H 4.901 v 3.043 h 4.723 v -5.214 c 0,-3.133 -1.254,-3.693 -4.812,-3.693 -3.111,0 -4.812,0.694 -4.812,3.335 z"
             id="path2674"
             style="fill:#003d84;fill-opacity:1;fill-rule:nonzero;stroke:none" />
        </g>
        <g
           transform="translate(278.4518,560.7191)"
           id="g2676">
          <path
             d="M 0,0 H 7.139 V -2.91 H 3.715 V -6.468 H 6.893 V -9.244 H 3.715 v -4.05 h 3.693 v -2.91 H 0 Z"
             id="path2678"
             style="fill:#003d84;fill-opacity:1;fill-rule:nonzero;stroke:none" />
        </g>
        <g
           transform="translate(291.3652,557.138)"
           id="g2680">
          <path
             d="M 0,0 H -0.045 L 0.179,-12.622 H -3.245 V 3.581 H 2.171 L 4.901,-9.042 4.946,-8.997 4.678,3.581 H 8.124 V -12.622 H 2.708 Z"
             id="path2682"
             style="fill:#003d84;fill-opacity:1;fill-rule:nonzero;stroke:none" />
        </g>
        <g
           transform="translate(305.8005,547.2904)"
           id="g2684">
          <path
             d="m 0,0 h 1.097 c 0.917,0 1.141,0.269 1.141,1.5 v 1.208 c 0,1.209 -0.269,1.477 -1.141,1.477 H 0 Z m 0,6.826 h 0.895 c 1.074,0 1.209,0.359 1.209,1.433 v 0.984 c 0,1.052 -0.135,1.41 -1.209,1.41 H 0 Z m -3.715,6.603 h 5.483 c 3.223,0 4.051,-0.672 4.051,-3.917 0,-2.127 -0.157,-3.469 -2.417,-3.85 V 5.617 C 5.707,5.439 6.087,3.805 6.087,1.835 c 0,-3.401 -0.783,-4.61 -3.715,-4.61 h -6.087 z"
             id="path2686"
             style="fill:#003d84;fill-opacity:1;fill-rule:nonzero;stroke:none" />
        </g>
        <g
           transform="translate(319.6761,557.3614)"
           id="g2688">
          <path
             d="M 0,0 C 0,0.605 -0.269,0.761 -0.962,0.761 -1.656,0.761 -1.925,0.605 -1.925,0 v -9.489 c 0,-0.604 0.269,-0.761 0.963,-0.761 0.693,0 0.962,0.157 0.962,0.761 z m -5.774,0.202 c 0,2.641 1.701,3.335 4.812,3.335 3.11,0 4.811,-0.694 4.811,-3.335 V -9.69 c 0,-2.641 -1.701,-3.335 -4.811,-3.335 -3.111,0 -4.812,0.694 -4.812,3.335 z"
             id="path2690"
             style="fill:#003d84;fill-opacity:1;fill-rule:nonzero;stroke:none" />
        </g>
        <g
           transform="translate(325.5397,557.563)"
           id="g2692">
          <path
             d="m 0,0 c 0,2.641 1.701,3.335 4.812,3.335 2.932,0 4.812,-0.492 4.812,-3.827 V -2.081 H 6.043 v 1.701 c 0,0.738 -0.269,0.94 -1.209,0.94 -0.716,0 -0.985,-0.202 -0.985,-1.007 v -9.4 c 0,-0.403 0.269,-0.604 1.008,-0.604 0.917,0 1.186,0.201 1.186,0.536 v 2.552 H 4.901 v 3.043 h 4.723 v -5.214 c 0,-3.133 -1.254,-3.693 -4.812,-3.693 -3.111,0 -4.812,0.694 -4.812,3.335 z"
             id="path2694"
             style="fill:#003d84;fill-opacity:1;fill-rule:nonzero;stroke:none" />
        </g>
        <g
           transform="translate(337.401,560.7191)"
           id="g2696">
          <path
             d="M 0,0 H 7.14 V -2.91 H 3.715 V -6.468 H 6.893 V -9.244 H 3.715 v -4.05 h 3.693 v -2.91 H 0 Z"
             id="path2698"
             style="fill:#003d84;fill-opacity:1;fill-rule:nonzero;stroke:none" />
        </g>
        <g
           transform="translate(350.3146,557.138)"
           id="g2700">
          <path
             d="M 0,0 H -0.045 L 0.179,-12.622 H -3.245 V 3.581 H 2.171 L 4.901,-9.042 4.946,-8.997 4.678,3.581 H 8.124 V -12.622 H 2.708 Z"
             id="path2702"
             style="fill:#003d84;fill-opacity:1;fill-rule:nonzero;stroke:none" />
        </g>
        <path
           d="m 241.219,544.367 h -1.674 v 138.925 h 1.674 z"
           id="path2704"
           style="fill:#003d84;fill-opacity:1;fill-rule:nonzero;stroke:none" />
        <path
           d="m 364.075,544.367 h -1.674 v 138.925 h 1.674 z"
           id="path2706"
           style="fill:#003d84;fill-opacity:1;fill-rule:nonzero;stroke:none" />
      </g>
    </g>
    <g
       transform="matrix(1.25,0,0,-1.25,216.24411,1215.941)"
       id="g2708">
      <g
         id="g2710">
        <g
           id="g2716">
          <g
             id="g2718">
            <path
               d="m 319.249,659.456 c -1.939,-0.264 -3.837,-0.539 -5.586,-0.854 v 0 c -17.022,-3.069 -31.126,-9.032 -43.537,-16.726 v 0 c -13.696,-8.489 -25.185,-19.254 -34.502,-32.168 v 0 c -0.237,-0.327 -0.855,-1.249 -0.855,-1.249 v 0 c 0.501,-0.339 0.431,-0.289 0.821,-0.558 v 0 c 1.71,-1.182 3.227,-2.248 4.929,-3.418 v 0 c 0.105,-0.073 0.968,-0.672 0.968,-0.672 v 0 c 0,0 4.681,6.494 6.952,9.085 v 0 c 7.517,8.57 15.797,15.417 25.591,21.591 v 0 c 6.64,4.188 14.189,7.927 21.955,10.786 v 0 c 7.868,2.896 16.388,4.72 26.123,6.264 v 0 c -0.205,1.868 -0.386,4.152 -0.591,6.112 v 0 c -0.075,0.702 -0.231,2.037 -0.231,2.037 v 0 c 0,0 -1.468,-0.152 -2.037,-0.23"
               id="path2726"
               style="fill:url(#linearGradient2720);stroke:none" />
          </g>
        </g>
      </g>
    </g>
    <g
       transform="matrix(1.25,0,0,-1.25,216.24411,1215.941)"
       id="g2728">
      <g
         id="g2730">
        <g
           id="g2736">
          <g
             id="g2738">
            <path
               d="m 232.87,608.222 1.899,0.237 c 0,0 0.618,0.922 0.855,1.249 v 0 c 9.317,12.914 20.806,23.679 34.502,32.168 v 0 c 12.411,7.694 26.515,13.657 43.537,16.726 v 0 c 1.749,0.315 3.647,0.59 5.586,0.854 v 0 c 0.569,0.078 2.037,0.23 2.037,0.23 v 0 l 1.468,1.449 C 284.783,657.555 253.198,636.9 232.87,608.222"
               id="path2746"
               style="fill:url(#radialGradient2740);stroke:none" />
          </g>
        </g>
      </g>
    </g>
    <g
       transform="matrix(1.25,0,0,-1.25,216.24411,1215.941)"
       id="g2748">
      <g
         clip-path="url(#clipPath2752)"
         id="g2750">
        <g
           transform="translate(322.108,651.5374)"
           id="g2756">
          <path
             d="m 0,0 c -9.735,-1.544 -18.255,-3.368 -26.123,-6.264 -7.767,-2.86 -15.315,-6.599 -21.954,-10.786 -9.794,-6.175 -18.076,-13.021 -25.593,-21.592 -2.27,-2.59 -6.951,-9.085 -6.951,-9.085 0,0 -0.863,0.6 -0.968,0.673 -1.702,1.169 -3.219,2.236 -4.928,3.417 -0.391,0.27 -0.321,0.22 -0.822,0.559 l -1.902,-0.242 2.37,-1.636 6.072,-4.19 0.534,-0.316 c 18.543,26.866 48.979,45.043 81.942,48.162 z m -80.798,-49.146 h -0.001 -10e-4 z"
             id="path2758"
             style="fill:#38094c;fill-opacity:1;fill-rule:nonzero;stroke:none" />
        </g>
        <g
           transform="translate(281.9352,643.1362)"
           id="g2760">
          <path
             d="m 0,0 c -0.283,-1.985 -0.556,-4.397 -0.556,-4.397 0,0 -5.002,-2.772 -7.349,-4.252 -9.793,-6.175 -18.075,-13.021 -25.592,-21.592 -2.271,-2.59 -6.951,-9.084 -6.951,-9.084 0,0 -0.863,0.599 -0.968,0.672 -1.702,1.17 -3.219,2.236 -4.929,3.417 -0.391,0.27 -0.32,0.22 -0.821,0.559 0,0 0.618,0.921 0.854,1.248 9.318,12.915 20.807,23.68 34.502,32.169 1.712,1.061 4.242,2.568 6.609,3.837 3.305,1.771 6.292,3.181 6.292,3.181 C 1.091,5.758 0.402,2.817 0,0"
             id="path2762"
             style="fill:#5b2282;fill-opacity:1;fill-rule:evenodd;stroke:none" />
        </g>
        <g
           transform="translate(322.108,651.5374)"
           id="g2764">
          <path
             d="M 0,0 1.677,-1.3 0.646,9.597 -0.822,8.149 c 0,0 0.156,-1.335 0.231,-2.037 C -0.386,4.151 -0.205,1.868 0,0"
             id="path2766"
             style="fill:#5b2282;fill-opacity:1;fill-rule:nonzero;stroke:none" />
        </g>
      </g>
    </g>
    <g
       transform="matrix(1.25,0,0,-1.25,216.24411,1215.941)"
       id="g2768">
      <g
         id="g2770">
        <g
           id="g2776">
          <g
             id="g2778">
            <path
               d="m 330.804,646.565 c -13.133,-0.49 -23.983,-3.014 -33.976,-6.692 v 0 c -10.495,-3.863 -19.942,-9.173 -28.093,-15.41 v 0 c -16.429,-12.571 -28.979,-28.965 -36.737,-50.276 v 0 c 2.297,-0.777 7.794,-2.647 7.794,-2.647 v 0 c 0,0 0.763,2.361 0.892,2.693 v 0 c 4.67,11.923 11.082,22.158 18.963,30.744 v 0 c 8.408,9.16 18.125,16.871 30.051,22.731 v 0 c 10.486,5.154 22.184,9.322 36.474,10.489 v 0 c 2.067,0.169 4.189,0.18 6.407,0.264 v 0 c 8.781,0.328 17.789,-1.069 24.979,-2.608 v 0 c 8.076,-1.728 19.475,-6.672 19.475,-6.672 v 0 l 3.446,7.345 c 0,0 -7.38,3.247 -10.375,4.267 v 0 c -10.147,3.454 -21.76,5.852 -35.089,5.852 v 0 c -1.385,0 -2.789,-0.026 -4.211,-0.08"
               id="path2786"
               style="fill:url(#linearGradient2780);stroke:none" />
          </g>
        </g>
      </g>
    </g>
    <g
       transform="matrix(1.25,0,0,-1.25,216.24411,1215.941)"
       id="g2788">
      <g
         id="g2790">
        <g
           id="g2796">
          <g
             id="g2798">
            <path
               d="m 230.315,573.432 1.683,0.755 c 7.758,21.311 20.308,37.705 36.737,50.276 v 0 c 8.151,6.237 17.598,11.547 28.093,15.41 v 0 c 9.993,3.678 20.843,6.202 33.976,6.692 v 0 c 15.109,0.566 28.099,-1.959 39.3,-5.772 v 0 c 2.995,-1.02 10.375,-4.267 10.375,-4.267 v 0 l 1.844,0.708 v 0.002 c -11.383,5.418 -24.057,9.02 -37.322,10.258 v 0 c -3.497,0.326 -6.975,0.485 -10.418,0.485 v 0 c -47.604,0.002 -89.292,-30.49 -104.268,-74.547"
               id="path2808"
               style="fill:url(#radialGradient2800);stroke:none" />
          </g>
        </g>
      </g>
    </g>
    <g
       transform="matrix(1.25,0,0,-1.25,216.24411,1215.941)"
       id="g2810">
      <g
         clip-path="url(#clipPath2814)"
         id="g2812">
        <g
           transform="translate(380.4791,636.526)"
           id="g2818">
          <path
             d="m 0,0 -3.446,-7.345 0.588,-1.824 4.704,9.878 z"
             id="path2820"
             style="fill:#006894;fill-opacity:1;fill-rule:nonzero;stroke:none" />
        </g>
      </g>
    </g>
    <g
       transform="matrix(1.25,0,0,-1.25,216.24411,1215.941)"
       id="g2822">
      <g
         clip-path="url(#clipPath2826)"
         id="g2824">
        <g
           transform="translate(280.7049,628.3408)"
           id="g2830">
          <path
             d="m 0,0 c 0,2.334 0.036,4.064 0.036,4.064 0,0 -0.052,-0.03 -0.093,-0.053 -4.224,-2.405 -8.204,-5.051 -11.914,-7.889 -16.428,-12.57 -28.977,-28.965 -36.736,-50.275 2.297,-0.778 7.793,-2.647 7.793,-2.647 0,0 0.763,2.36 0.894,2.692 4.668,11.923 11.081,22.159 18.962,30.744 6.216,6.771 13.151,12.748 21.162,17.772 0.034,0.021 0.067,0.042 0.1,0.062 C 0.107,-3.973 0,-2.524 0,0"
             id="path2832"
             style="fill:#009ee3;fill-opacity:1;fill-rule:evenodd;stroke:none" />
        </g>
        <g
           transform="translate(231.9981,574.1877)"
           id="g2834">
          <path
             d="m 0,0 -1.683,-0.755 10.256,-3.572 -0.78,1.68 c 0,0 -5.496,1.869 -7.793,2.647"
             id="path2836"
             style="fill:#005477;fill-opacity:1;fill-rule:nonzero;stroke:none" />
        </g>
      </g>
    </g>
    <g
       transform="matrix(1.25,0,0,-1.25,216.24411,1215.941)"
       id="g2838">
      <g
         id="g2840">
        <g
           id="g2846">
          <g
             id="g2848">
            <path
               d="m 332.579,638.461 c -2.218,-0.084 -4.34,-0.095 -6.407,-0.264 v 0 c -14.29,-1.167 -25.988,-5.335 -36.474,-10.489 v 0 c -11.926,-5.86 -21.643,-13.571 -30.051,-22.731 v 0 c -7.881,-8.586 -14.293,-18.821 -18.963,-30.744 v 0 c -0.129,-0.332 -0.892,-2.693 -0.892,-2.693 v 0 l 0.78,-1.679 c 14.466,42.54 56.702,71.141 103.414,66.77 v 0 c 11.981,-1.118 23.385,-4.395 33.635,-9.274 v 0 l -0.588,1.824 c 0,0 -11.399,4.944 -19.475,6.672 v 0 c -6.473,1.385 -14.42,2.656 -22.348,2.656 v 0 c -0.878,0 -1.756,-0.016 -2.631,-0.048"
               id="path2856"
               style="fill:url(#linearGradient2850);stroke:none" />
          </g>
        </g>
      </g>
    </g>
    <g
       transform="matrix(1.25,0,0,-1.25,216.24411,1215.941)"
       id="g2858">
      <g
         id="g2860">
        <g
           id="g2866">
          <g
             id="g2868">
            <path
               d="m 331.139,632.983 c -1.058,-0.037 -2.08,-0.118 -3.089,-0.198 v 0 c -14.209,-1.11 -25.744,-4.684 -36.014,-9.846 v 0 c -11.34,-5.702 -20.773,-13.113 -28.751,-22.148 v 0 c -0.178,-0.203 -0.755,-0.888 -0.755,-0.888 v 0 l 6.348,-5.296 c 0,0 2.547,3.053 3.509,4.016 v 0 c 3.786,3.786 7.74,6.957 12.158,10.078 v 0 c 5.826,4.118 12.378,7.786 19.715,10.483 v 0 c 7.288,2.677 15.472,4.76 24.94,5.397 v 0 c 4.666,0.315 9.953,0.203 14.46,-0.194 v 0 c 3.905,-0.343 7.761,-1.048 11.296,-1.882 v 0 c 0.351,-0.082 1.885,-0.466 1.885,-0.466 v 0 c 0,0 1.528,5.593 2.165,7.945 v 0 c -7.169,1.859 -15.521,3.058 -24.443,3.058 v 0 c -1.132,0 -2.275,-0.02 -3.424,-0.059"
               id="path2876"
               style="fill:url(#linearGradient2870);stroke:none" />
          </g>
        </g>
      </g>
    </g>
    <g
       transform="matrix(1.25,0,0,-1.25,216.24411,1215.941)"
       id="g2878">
      <g
         id="g2880">
        <g
           id="g2886">
          <g
             id="g2888">
            <path
               d="m 260.656,599.804 1.874,0.099 c 0,0 0.577,0.685 0.755,0.888 v 0 c 7.978,9.035 17.411,16.446 28.751,22.148 v 0 c 10.27,5.162 21.805,8.736 36.014,9.846 v 0 c 1.009,0.08 2.031,0.161 3.089,0.198 v 0 c 10.206,0.352 19.788,-0.904 27.867,-2.999 v 0 l 1.617,0.882 c -5.363,1.468 -11.034,2.572 -16.752,3.106 v 0 c -3.074,0.287 -6.135,0.427 -9.163,0.427 v 0 c -29.374,0.002 -56.198,-13.229 -74.052,-34.595"
               id="path2896"
               style="fill:url(#linearGradient2890);stroke:none" />
          </g>
        </g>
      </g>
    </g>
    <g
       transform="matrix(1.25,0,0,-1.25,216.24411,1215.941)"
       id="g2898">
      <g
         clip-path="url(#clipPath2902)"
         id="g2900">
        <g
           transform="translate(262.5296,599.9036)"
           id="g2906">
          <path
             d="m 0,0 -1.873,-0.099 8.341,-7.026 -0.12,1.828 z"
             id="path2908"
             style="fill:#076e22;fill-opacity:1;fill-rule:nonzero;stroke:none" />
        </g>
        <g
           transform="translate(356.8406,622.0397)"
           id="g2910">
          <path
             d="M 0,0 0.941,-1.615 3.782,8.826 2.166,7.944 C 1.528,5.593 0,0 0,0"
             id="path2912"
             style="fill:#097525;fill-opacity:1;fill-rule:nonzero;stroke:none" />
        </g>
      </g>
    </g>
    <g
       transform="matrix(1.25,0,0,-1.25,216.24411,1215.941)"
       id="g2914">
      <g
         id="g2916">
        <g
           id="g2922">
          <g
             id="g2924">
            <path
               d="m 329.2,624.581 c -9.468,-0.637 -17.652,-2.72 -24.94,-5.397 v 0 c -7.337,-2.697 -13.889,-6.365 -19.715,-10.483 v 0 c -4.418,-3.121 -8.372,-6.292 -12.158,-10.078 v 0 c -0.962,-0.963 -3.509,-4.016 -3.509,-4.016 v 0 l 0.119,-1.828 c 17.51,20.927 44.648,33.056 73.861,30.331 v 0 c 5.085,-0.476 10.168,-1.385 14.923,-2.685 v 0 l -0.94,1.614 c 0,0 -1.534,0.384 -1.885,0.466 v 0 c -3.535,0.834 -7.391,1.539 -11.296,1.882 v 0 c -2.729,0.24 -5.744,0.376 -8.734,0.376 v 0 c -1.949,0 -3.885,-0.058 -5.726,-0.182"
               id="path2932"
               style="fill:url(#linearGradient2926);stroke:none" />
          </g>
        </g>
      </g>
    </g>
    <g
       transform="matrix(1.25,0,0,-1.25,216.24411,1215.941)"
       id="g2934">
      <g
         clip-path="url(#clipPath2938)"
         id="g2936">
        <g
           transform="translate(282.3661,612.2989)"
           id="g2942">
          <path
             d="m 0,0 c -0.396,2.151 -0.684,4.618 -0.705,4.604 -6.889,-4.606 -12.968,-9.986 -18.376,-16.111 -0.179,-0.204 -0.756,-0.888 -0.756,-0.888 l 6.348,-5.297 c 0,0 2.548,3.053 3.51,4.016 3.432,3.432 7.002,6.359 10.93,9.201 C 0.984,-4.451 0.437,-2.372 0,0"
             id="path2944"
             style="fill:#09a537;fill-opacity:1;fill-rule:evenodd;stroke:none" />
        </g>
      </g>
    </g>
    <g
       transform="matrix(1.25,0,0,-1.25,216.24411,1215.941)"
       id="g2946">
      <g
         id="g2948">
        <g
           id="g2954">
          <g
             id="g2956">
            <path
               d="m 326.799,619.101 c -2.315,-0.243 -4.53,-0.577 -6.703,-0.986 v 0 c -12.877,-2.418 -23.45,-7.298 -32.464,-13.669 v 0 c -12.03,-8.503 -21.432,-19.734 -27.668,-33.845 v 0 c 2.482,-1.023 4.983,-2.169 7.484,-3.174 v 0 c 1.527,3.51 3.352,6.958 5.351,10.07 v 0 c 1.983,3.087 4.196,6.028 6.604,8.679 v 0 c 9.725,10.708 21.542,18.991 38.031,22.931 v 0 c 7.983,1.907 18.853,2.652 28.105,1.272 v 0 c 0.411,2.711 0.907,5.309 1.343,7.994 v 0 c -3.933,0.613 -8.46,1.123 -12.788,1.123 v 0 c -2.552,0 -4.966,-0.151 -7.295,-0.395"
               id="path2964"
               style="fill:url(#linearGradient2958);stroke:none" />
          </g>
        </g>
      </g>
    </g>
    <g
       transform="matrix(1.25,0,0,-1.25,216.24411,1215.941)"
       id="g2966">
      <g
         id="g2968">
        <g
           id="g2974">
          <g
             id="g2976">
            <path
               d="m 258.175,569.888 1.789,0.713 c 6.236,14.111 15.638,25.342 27.668,33.845 v 0 c 9.014,6.371 19.587,11.251 32.464,13.669 v 0 c 2.173,0.409 4.388,0.743 6.703,0.986 v 0 c 2.329,0.244 4.743,0.395 7.295,0.395 v 0 c 4.328,0 8.855,-0.51 12.788,-1.123 v 0 l 1.573,1.221 c 0,0 -4.01,0.573 -5.989,0.758 v 0 c -2.63,0.245 -5.244,0.364 -7.833,0.364 v 0 c -33.882,0.002 -63.786,-20.538 -76.458,-50.828"
               id="path2986"
               style="fill:url(#radialGradient2978);stroke:none" />
          </g>
        </g>
      </g>
    </g>
    <g
       transform="matrix(1.25,0,0,-1.25,216.24411,1215.941)"
       id="g2988">
      <g
         clip-path="url(#clipPath2992)"
         id="g2990">
        <g
           transform="translate(259.9641,570.6011)"
           id="g2996">
          <path
             d="M 0,0 -1.789,-0.713 8.218,-4.952 7.484,-3.174 C 4.983,-2.169 2.482,-1.023 0,0"
             id="path2998"
             style="fill:#8a8000;fill-opacity:1;fill-rule:nonzero;stroke:none" />
        </g>
      </g>
    </g>
    <g
       transform="matrix(1.25,0,0,-1.25,216.24411,1215.941)"
       id="g3000">
      <g
         id="g3002">
        <g
           id="g3008">
          <g
             id="g3010">
            <path
               d="m 317.434,609.107 c -16.489,-3.94 -28.306,-12.223 -38.031,-22.931 v 0 c -2.408,-2.651 -4.621,-5.592 -6.604,-8.679 v 0 c -1.999,-3.112 -3.824,-6.56 -5.351,-10.07 v 0 l 0.734,-1.778 c 11.848,28.3 41.099,46.851 73.271,43.84 v 0 c 1.725,-0.16 3.515,-0.381 5.196,-0.658 v 0 l -1.11,1.548 c -3.265,0.487 -6.733,0.709 -10.204,0.709 v 0 c -6.362,0 -12.735,-0.747 -17.901,-1.981"
               id="path3018"
               style="fill:url(#linearGradient3012);stroke:none" />
          </g>
        </g>
      </g>
    </g>
    <g
       transform="matrix(1.25,0,0,-1.25,216.24411,1215.941)"
       id="g3020">
      <g
         clip-path="url(#clipPath3024)"
         id="g3022">
        <g
           transform="translate(345.5391,610.3788)"
           id="g3028">
          <path
             d="M 0,0 1.11,-1.548 2.915,9.216 1.342,7.994 C 0.907,5.309 0.411,2.711 0,0"
             id="path3030"
             style="fill:#c7b600;fill-opacity:1;fill-rule:nonzero;stroke:none" />
        </g>
        <g
           transform="translate(286.2026,597.9684)"
           id="g3032">
          <path
             d="m 0,0 c -0.77,2 -1.431,4.366 -1.452,4.35 -10.656,-8.22 -19.057,-18.753 -24.786,-31.717 2.481,-1.023 4.983,-2.169 7.483,-3.174 1.527,3.51 3.353,6.958 5.351,10.07 1.983,3.086 4.197,6.027 6.605,8.679 2.636,2.902 5.424,5.626 8.419,8.133 C 1.651,-3.633 0.77,-1.999 0,0"
             id="path3034"
             style="fill:#ffed00;fill-opacity:1;fill-rule:evenodd;stroke:none" />
        </g>
      </g>
    </g>
    <g
       transform="matrix(1.25,0,0,-1.25,216.24411,1215.941)"
       id="g3036">
      <g
         id="g3038">
        <g
           id="g3044">
          <g
             id="g3046">
            <path
               d="m 277.275,573.92 c 1.892,-1.133 7.013,-4.31 7.013,-4.31 v 0 c 0,0 4.304,6.216 6.519,8.431 v 0 c 2.469,2.469 4.829,4.749 7.656,6.913 v 0 c 5.151,3.942 10.697,7.042 17.652,9.475 v 0 c 0.193,0.068 2.174,0.663 2.174,0.663 v 0 c 0,0 -1.647,6.012 -2.222,7.936 v 0 c -17.628,-5.327 -30.043,-15.327 -38.792,-29.108"
               id="path3054"
               style="fill:url(#linearGradient3048);stroke:none" />
          </g>
        </g>
      </g>
    </g>
    <g
       transform="matrix(1.25,0,0,-1.25,216.24411,1215.941)"
       id="g3056">
      <g
         id="g3058">
        <g
           id="g3064">
          <g
             id="g3066">
            <path
               d="m 275.416,573.474 1.859,0.446 c 8.749,13.781 21.164,23.781 38.792,29.108 v 0 l 0.94,1.7 c -17.398,-4.685 -32.376,-15.948 -41.591,-31.254"
               id="path3076"
               style="fill:url(#radialGradient3068);stroke:none" />
          </g>
        </g>
      </g>
    </g>
    <g
       transform="matrix(1.25,0,0,-1.25,216.24411,1215.941)"
       id="g3078">
      <g
         clip-path="url(#clipPath3082)"
         id="g3080">
        <g
           transform="translate(277.2744,573.92)"
           id="g3086">
          <path
             d="M 0,0 -1.859,-0.447 7.436,-6.081 7.014,-4.31 c 0,0 -5.122,3.177 -7.014,4.31"
             id="path3088"
             style="fill:#822000;fill-opacity:1;fill-rule:nonzero;stroke:none" />
        </g>
      </g>
    </g>
    <g
       transform="matrix(1.25,0,0,-1.25,216.24411,1215.941)"
       id="g3090">
      <g
         id="g3092">
        <g
           id="g3098">
          <g
             id="g3100">
            <path
               d="m 316.115,594.429 c -6.955,-2.433 -12.501,-5.533 -17.652,-9.475 v 0 c -2.827,-2.164 -5.187,-4.444 -7.656,-6.913 v 0 c -2.215,-2.215 -6.519,-8.431 -6.519,-8.431 v 0 l 0.422,-1.771 c 7.76,12.897 20.408,22.39 35.047,26.328 v 0 l -1.468,0.925 c 0,0 -1.981,-0.595 -2.174,-0.663"
               id="path3108"
               style="fill:url(#linearGradient3102);stroke:none" />
          </g>
        </g>
      </g>
    </g>
    <g
       transform="matrix(1.25,0,0,-1.25,216.24411,1215.941)"
       id="g3110">
      <g
         clip-path="url(#clipPath3114)"
         id="g3112">
        <g
           transform="translate(316.0677,603.0281)"
           id="g3118">
          <path
             d="M 0,0 C 0.575,-1.924 2.221,-7.936 2.221,-7.936 L 3.689,-8.862 0.939,1.7 Z"
             id="path3120"
             style="fill:#dc300d;fill-opacity:1;fill-rule:nonzero;stroke:none" />
        </g>
        <g
           transform="translate(292.663,585.7816)"
           id="g3122">
          <path
             d="m 0,0 c -1.081,1.608 -2.096,3.619 -2.135,3.586 -5.159,-4.421 -9.537,-9.593 -13.254,-15.448 1.893,-1.132 7.015,-4.31 7.015,-4.31 0,0 4.303,6.217 6.518,8.431 1.486,1.487 2.932,2.905 4.465,4.27 C 2.64,-3.443 1.274,-1.896 0,0"
             id="path3124"
             style="fill:#e5320e;fill-opacity:1;fill-rule:evenodd;stroke:none" />
        </g>
      </g>
    </g>
  </g>
</svg>
