<?xml version="1.0" encoding="UTF-8" standalone="no"?>
<svg
   width="380"
   height="380"
   viewBox="0 0 380 380"
   version="1.1"
   xml:space="preserve"
   style="clip-rule:evenodd;fill-rule:evenodd;stroke-linejoin:round;stroke-miterlimit:1.41421"
   id="svg1241"
   sodipodi:docname="rock-antenne.svg"
   inkscape:version="1.2.2 (b0a8486541, 2022-12-01)"
   xmlns:inkscape="http://www.inkscape.org/namespaces/inkscape"
   xmlns:sodipodi="http://sodipodi.sourceforge.net/DTD/sodipodi-0.dtd"
   xmlns="http://www.w3.org/2000/svg"
   xmlns:svg="http://www.w3.org/2000/svg"><defs
   id="defs1245" /><sodipodi:namedview
   id="namedview1243"
   pagecolor="#ffffff"
   bordercolor="#000000"
   borderopacity="0.25"
   inkscape:showpageshadow="2"
   inkscape:pageopacity="0.0"
   inkscape:pagecheckerboard="0"
   inkscape:deskcolor="#d1d1d1"
   showgrid="false"
   inkscape:zoom="1.7657895"
   inkscape:cx="188.30105"
   inkscape:cy="194.81371"
   inkscape:window-width="2560"
   inkscape:window-height="1377"
   inkscape:window-x="-8"
   inkscape:window-y="-8"
   inkscape:window-maximized="1"
   inkscape:current-layer="svg1241" />
    <g
   transform="matrix(0.471249,0,0,0.471249,-62.4316,55.326932)"
   id="g1239">
        <g
   transform="translate(-91.6349,-141.271)"
   id="g1176">
            <path
   d="M 1016.5,606.5 V 247.6 C 932.2,234 784,214.7 623.2,214.7 c -159.5,0 -303.1,19 -385.3,32.6 v 359.2 c 84.3,13.6 232.6,33 393.6,33 155.2,-0.1 301.3,-19.4 385,-33"
   style="fill:#004898;fill-rule:nonzero"
   id="path1174" />
        </g>
        <g
   transform="translate(-91.6349,-141.271)"
   id="g1180">
            <path
   d="m 307.9,550.3 -5.4,14.8 H 277.9 L 312,473.4 h 29.8 l 34.1,91.7 h -24.5 l -5.5,-14.8 z m 30.3,-21.7 -11.2,-34.5 -11.3,34.5 z"
   style="fill:#ffffff;fill-rule:nonzero"
   id="path1178" />
        </g>
        <g
   transform="translate(-91.6349,-141.271)"
   id="g1184">
            <path
   d="m 474.4,565.1 h -20.9 l -37.2,-46.5 -4.7,-7.2 v 53.7 H 387.4 V 473.4 H 408 l 38.5,49.4 3.7,5.7 v -55.1 h 24.2 z"
   style="fill:#ffffff;fill-rule:nonzero"
   id="path1182" />
        </g>
        <g
   transform="translate(-91.6349,-141.271)"
   id="g1188">
            <path
   d="m 542,495.1 v 70 h -24.2 v -70 h -31.2 v -21.8 h 86.5 v 21.8 z"
   style="fill:#ffffff;fill-rule:nonzero"
   id="path1186" />
        </g>
        <g
   transform="translate(-91.6349,-141.271)"
   id="g1192">
            <path
   d="m 610.6,508.4 h 29.8 v 21.8 h -29.8 v 13.2 h 52.8 v 21.8 h -77 v -91.7 h 77 v 21.8 h -52.8 z"
   style="fill:#ffffff;fill-rule:nonzero"
   id="path1190" />
        </g>
        <g
   transform="translate(-91.6349,-141.271)"
   id="g1196">
            <path
   d="m 767.2,565.1 h -20.9 l -37.2,-46.5 -4.7,-7.2 v 53.7 h -24.2 v -91.7 h 20.6 l 38.5,49.4 3.7,5.7 v -55.1 h 24.2 z"
   style="fill:#ffffff;fill-rule:nonzero"
   id="path1194" />
        </g>
        <g
   transform="translate(-91.6349,-141.271)"
   id="g1200">
            <path
   d="m 873.2,565.1 h -20.9 l -37.2,-46.5 -4.7,-7.2 v 53.7 h -24.2 v -91.7 h 20.6 l 38.5,49.4 3.7,5.7 v -55.1 h 24.2 z"
   style="fill:#ffffff;fill-rule:nonzero"
   id="path1198" />
        </g>
        <g
   transform="translate(-91.6349,-141.271)"
   id="g1204">
            <path
   d="m 915.6,508.4 h 29.8 v 21.8 h -29.8 v 13.2 h 52.8 v 21.8 h -77 v -91.7 h 77 v 21.8 h -52.8 z"
   style="fill:#ffffff;fill-rule:nonzero"
   id="path1202" />
        </g>
        <g
   transform="translate(-91.6349,-141.271)"
   id="g1213">
            <clipPath
   id="_clip1">
                <path
   d="m 237.9,247.3 v 359.2 c 84.3,13.6 232.6,33 393.6,33 155.2,0 301.3,-19.3 385,-32.9 v -359 C 932.2,234 784,214.7 623.2,214.7 c -159.5,0 -303.1,19 -385.3,32.6"
   id="path1206" />
            </clipPath>
            <g
   clip-path="url(#_clip1)"
   id="g1211">
                <rect
   x="115.2"
   y="161.7"
   width="980"
   height="274.10001"
   style="fill:#e6001e"
   id="rect1209" />
            </g>
        </g>
        <g
   transform="translate(-91.6349,-141.271)"
   id="g1217">
            <path
   d="m 631.5,644.1 c -156.7,0 -301,-18 -394.3,-33 l -4,-0.6 V 243.3 l 4,-0.7 C 327.4,227.7 467.7,210 623.3,210 c 156.5,0 300.7,17.9 394.1,33 l 4,0.6 v 367 l -4,0.6 c -92.7,15 -234.8,32.9 -385.9,32.9 z M 242.6,602.4 c 77.4,12.3 227.4,32.3 388.9,32.3 148.4,0 288,-17.3 380.3,-32.2 V 251.6 c -93.1,-14.9 -234.9,-32.2 -388.6,-32.2 -152.7,0 -290.6,17.2 -380.6,31.9 z"
   style="fill:#ffffff;fill-rule:nonzero"
   id="path1215" />
        </g>
        <g
   transform="translate(-91.6349,-141.271)"
   id="g1221">
            <path
   d="m 563.5,265 c -39.6,0 -71.7,32.1 -71.7,71.7 0,39.6 32.1,71.7 71.7,71.7 39.6,0 71.7,-32.1 71.7,-71.7 0,-39.6 -32.1,-71.7 -71.7,-71.7 z"
   style="fill:#ffffff;fill-rule:nonzero"
   id="path1219" />
        </g>
        <g
   transform="translate(-91.6349,-141.271)"
   id="g1225">
            <path
   d="m 457.4,347.5 18.4,52.6 h -35.5 l -15.5,-47.3 h -29.5 v 47.3 H 361.9 V 273.4 h 74.9 c 24.1,0 39.3,18.4 39.3,40.1 -0.1,14.5 -7,27.2 -18.7,34 z m -21.7,-24.7 c 5.7,0.2 10,-3.3 10,-9.3 0,-6 -4.3,-10 -10,-10 h -40.4 v 19.3 z"
   style="fill:#ffffff;fill-rule:nonzero"
   id="path1223" />
        </g>
        <g
   transform="translate(-91.6349,-141.271)"
   id="g1229">
            <path
   d="m 739.2,360.3 24.7,22 c -11.7,12.5 -28.8,20.4 -47.8,20.4 -37.5,0 -66.8,-29.5 -66.8,-66 0,-36.6 29.3,-66 66.8,-66 19,0 36.1,7.9 47.8,20.4 L 739.1,313 c -5.9,-6.3 -13.6,-10.3 -23.1,-10.3 -18.8,0 -32.6,15 -32.6,34 0,19 13.8,34 32.6,34 9.5,0.1 17.4,-4 23.2,-10.4 z"
   style="fill:#ffffff;fill-rule:nonzero"
   id="path1227" />
        </g>
        <g
   transform="translate(-91.6349,-141.271)"
   id="g1233">
            <path
   d="M 813.1,346.2 V 400 H 779.7 V 273.4 h 33.4 V 325 l 44.7,-51.6 h 43.1 l -56.5,61.9 56.7,64.8 H 858 Z"
   style="fill:#ffffff;fill-rule:nonzero"
   id="path1231" />
        </g>
        <g
   transform="translate(-91.6349,-141.271)"
   id="g1237">
            <path
   d="m 631,301.3 -49.8,6.6 -12.3,-61.2 -26.4,66.4 -46.6,6.3 34.3,31.9 -33.4,75.1 65.9,-52 42.1,18.2 -10.3,-41.7 z"
   style="fill:#004898;fill-rule:nonzero"
   id="path1235" />
        </g>
    </g>
</svg>
