<?xml version="1.0" encoding="UTF-8" standalone="no"?>
<!-- Created with Inkscape (http://www.inkscape.org/) -->

<svg
   version="1.0"
   width="995.992"
   height="995.992"
   viewBox="0 0 1832.9998 1926.6055"
   id="Logo RPR1 neu"
   sodipodi:docname="rpr1.svg"
   inkscape:version="1.2.2 (b0a8486541, 2022-12-01)"
   xmlns:inkscape="http://www.inkscape.org/namespaces/inkscape"
   xmlns:sodipodi="http://sodipodi.sourceforge.net/DTD/sodipodi-0.dtd"
   xmlns="http://www.w3.org/2000/svg"
   xmlns:svg="http://www.w3.org/2000/svg">
  <sodipodi:namedview
     id="namedview8"
     pagecolor="#ffffff"
     bordercolor="#000000"
     borderopacity="0.25"
     inkscape:showpageshadow="2"
     inkscape:pageopacity="0.0"
     inkscape:pagecheckerboard="0"
     inkscape:deskcolor="#d1d1d1"
     showgrid="false"
     inkscape:zoom="1.3474002"
     inkscape:cx="447.89959"
     inkscape:cy="497.25389"
     inkscape:window-width="2560"
     inkscape:window-height="1377"
     inkscape:window-x="-8"
     inkscape:window-y="-8"
     inkscape:window-maximized="1"
     inkscape:current-layer="Logo RPR1 neu" />
  <defs
     id="defs8" />
  <g
     id="g295"
     transform="translate(-1.2189773e-4,690.30275)">
    <path
       d="m 81.229465,14.304915 c -12.243001,0.616833 -24.562592,5.187681 -33.376797,13.873788 -10.255206,9.915501 -15.46742,24.903551 -13.300903,39.030926 1.202273,6.91714 5.005735,13.317723 10.38666,17.809261 9.345949,7.795582 22.331231,9.44987 31.508693,17.46055 0.340235,4.07156 -1.163053,8.02553 -1.818289,12.00568 -23.006872,118.3886 -46.034401,236.77586 -69.045135,355.16399 -2.1981839,11.33902 -3.1179799,23.40777 0.6725176,34.52257 3.3702803,10.46835 11.5454994,19.25024 21.7198264,23.41358 7.809977,3.40604 16.449948,3.94721 24.858241,4.10983 43.930034,-0.0207 87.858321,-0.0132 131.788531,-0.0249 10.57597,-54.60291 21.37378,-109.15638 31.75777,-163.79539 16.49794,37.78828 32.29442,75.89539 48.5209,113.80492 6.97522,16.53699 14.10653,33.01854 20.99749,49.59194 53.1735,0.60533 106.36139,-0.14286 159.53611,0.37362 14.62559,-0.3066 29.18854,-7.25607 37.98479,-19.05466 6.48362,-8.51741 9.46608,-19.41441 9.14126,-30.03912 -0.43445,-8.96456 -5.25464,-17.38947 -12.42912,-22.69124 -8.53735,-6.62959 -19.49942,-8.72734 -28.54464,-14.44668 -4.33084,-2.54683 -5.50122,-7.71027 -7.47242,-11.95586 -14.88725,-33.84445 -30.14148,-67.5205 -45.28284,-101.25126 31.72449,-20.14048 56.57887,-50.35412 71.76011,-84.61267 11.41862,-25.48954 17.9456,-52.98994 20.52424,-80.75192 1.74183,-21.35337 2.73845,-43.25716 -2.73989,-64.18807 C 484.32372,86.792331 477.13781,71.590903 466.60693,58.98997 455.27814,45.242483 440.41358,34.605335 424.08888,27.58091 402.13575,18.193427 378.12197,14.616919 354.37122,14.304915 Z m 488.870445,0 c -13.15639,1.189001 -26.337,6.714481 -34.89619,17.037111 -8.05644,9.763064 -12.25309,22.905037 -10.38666,35.51889 1.33348,7.71411 5.76812,14.828716 12.10532,19.428285 8.82802,6.37746 20.0169,8.519401 28.66917,15.169009 1.95164,1.14111 0.99948,3.62646 0.94651,5.42995 -7.57067,42.464 -14.2078,85.10459 -20.97259,127.70362 -12.80568,80.93666 -25.00815,161.96546 -37.63607,242.92828 -1.13574,10.06116 -0.98305,20.6651 3.21314,30.06403 3.79288,8.85947 11.12084,16.09154 20.00117,19.82681 8.41739,3.72132 17.80013,4.23422 26.87579,4.28419 45.88482,-0.0376 91.75652,0.009 137.64193,-0.0249 7.22326,-47.26695 14.40943,-94.53662 21.6451,-141.80157 2.38397,-14.70158 4.13361,-29.513 7.0988,-44.11217 14.27877,-0.078 28.56246,-0.14699 42.84185,-0.34872 34.96621,0.41108 70.11702,-6.4155 102.12304,-20.59896 29.09819,-12.90066 55.32913,-32.75416 74.42528,-58.33467 18.64214,-24.7399 30.1947,-54.35409 35.34457,-84.78703 2.82031,-16.75277 4.06005,-33.77779 3.6365,-50.76262 C 981.9603,111.21203 977.17947,91.469052 967.45815,74.208793 958.46128,58.202462 945.09821,44.802862 929.42359,35.302407 904.02526,19.993439 873.8842,14.688676 844.58666,14.304915 Z m 447.32379,0 c -12.9527,1.079405 -25.90229,6.431493 -34.52255,16.389502 -8.11724,9.320105 -12.45451,22.091639 -11.15881,34.422935 0.79275,8.416732 5.51149,16.235141 12.30458,21.196757 8.9017,6.396038 20.16248,8.534561 28.86848,15.243731 1.6172,0.82041 0.9642,2.72395 0.8966,4.15965 -23.50045,120.92424 -47.02681,241.8563 -70.51467,362.78585 -2.39197,11.72889 -3.50059,24.19276 0.4733,35.71816 3.57369,11.12577 12.57398,20.27478 23.58789,24.13591 11.51446,4.2065 24.00866,3.1756 36.04198,3.31277 39.5816,-0.005 79.154,0.0191 118.7367,0 10.4824,-54.6535 21.4326,-109.23068 31.7079,-163.91993 23.4457,54.38447 46.3847,109.01111 69.5433,163.5214 53.1867,0.59717 106.3974,-0.1426 159.586,0.37362 17.5669,-0.31137 34.9698,-10.53664 42.518,-26.62671 3.0881,-6.72376 4.6594,-14.15245 4.6329,-21.54547 -0.2923,-8.96889 -4.7855,-17.64111 -11.8811,-23.11468 -8.0426,-6.48008 -18.3361,-8.83484 -27.2494,-13.74925 -2.7487,-1.46451 -5.3106,-3.52113 -6.501,-6.47609 -15.7927,-36.09514 -32.0577,-71.99852 -48.1722,-107.95153 29.2057,-18.55508 52.6615,-45.62814 67.9492,-76.59227 16.1529,-32.44958 23.9471,-68.62196 25.3564,-104.71348 1.5463,-22.2676 -0.8602,-45.22228 -9.764,-65.8569 -11.4646,-27.83635 -35.6763,-49.295501 -63.7148,-59.604981 -20.4562,-7.778462 -42.4188,-10.804895 -64.213,-11.108994 z m 629.5761,0 c -11.5289,0.957023 -22.9152,4.843106 -32.256,11.731695 -11.9078,8.541408 -20.663,20.431577 -30.4376,31.15998 -11.337,12.991109 -24.4984,24.503201 -39.2053,33.526245 -17.7009,9.211877 -36.9165,14.995035 -55.9684,20.673685 -16.2245,5.30768 -31.2017,17.52641 -35.9174,34.42294 -2.8516,12.74412 -5.0021,25.63866 -7.6219,38.43313 -1.1645,7.09885 -3.465,14.08159 -3.2629,21.34621 0.2211,11.673 5.2247,23.50972 14.5712,30.76145 8.5399,7.00919 19.7969,9.70127 30.6618,9.78886 12.2256,0.0459 24.4582,-0.007 36.6896,0.0249 -17.6005,76.74047 -35.1955,153.48786 -52.8051,230.22518 -2.6646,16.23969 1.9602,34.56618 14.9448,45.38248 7.7323,6.53782 17.9705,9.61967 28.0216,9.41524 41.7429,-0.0183 83.4923,-0.27039 125.2377,-0.14944 32.9636,-144.34208 65.7051,-288.74018 98.5861,-433.101308 1.7018,-8.299701 4.4623,-16.415604 5.1061,-24.908057 1.5717,-13.076959 -0.3,-27.008183 -7.4475,-38.283685 -8.1474,-12.981364 -23.3633,-20.322679 -38.4829,-20.449515 z M 280.04558,143.27884 c 11.09813,-0.0499 22.2041,0.047 33.25226,1.12086 3.81258,0.36093 7.58231,1.28163 11.05917,2.91424 1.78358,7.59192 1.04079,15.51617 -0.3238,23.11468 -1.51598,7.5962 -5.13405,15.29857 -11.90605,19.52792 -8.03965,5.0265 -17.77555,6.42243 -27.09997,6.45118 -11.73101,0.0297 -23.465,-0.016 -35.19508,0 3.47335,-17.67174 7.02958,-35.33454 10.23721,-53.05416 6.65068,0.0368 13.31738,-0.0448 19.97626,-0.0747 z m 944.48862,0 c 8.9745,0.0357 17.9426,0.2953 26.8758,1.22049 3.4798,0.60082 7.3307,0.83201 10.2621,3.03878 1.7079,4.49413 1.1771,9.44199 1.0213,14.14778 -0.7522,9.31314 -2.8758,19.51232 -10.1376,26.02892 -7.1458,6.15208 -16.9005,8.05481 -26.0539,8.59328 -13.0589,0.2236 -26.1233,0.0643 -39.1803,0.0747 3.4919,-17.67618 6.9728,-35.34348 10.287,-53.05417 8.9646,0.10054 17.9511,-0.0855 26.9256,-0.0498 z m -473.3278,0.0249 c 13.96434,-0.0282 27.93162,-0.0317 41.89535,0.22418 6.00648,0.56844 12.13257,0.64098 17.98362,2.29154 1.49312,0.57816 3.67499,0.89737 3.88565,2.86443 1.37939,5.87028 0.73234,12.02355 0.0996,17.9587 -1.16258,8.67022 -4.41346,17.80347 -11.95586,22.91542 -9.94198,6.54908 -22.34253,7.0839 -33.87496,6.84971 -8.88236,-0.0113 -17.77306,0.0195 -26.65162,0 2.89502,-17.69423 5.80039,-35.39723 8.61819,-53.10398 z m 1020.9315,244.8213 c -0.8605,-0.003 -1.7318,0.0177 -2.5905,0.0498 -6.1587,0.18223 -12.3699,-0.0934 -18.5565,-0.0249 -6.1866,0.0684 -12.3273,0.49119 -18.3572,2.09228 -26.5866,6.55519 -49.8107,28.24371 -55.1963,55.52006 -1.8473,10.57625 -5.4872,20.95607 -5.1559,31.80759 0.076,15.81856 7.7718,31.4665 20.3,41.14811 9.1411,7.16731 20.4826,11.40803 32.0567,12.22985 9.2966,0.47911 18.6334,0.18752 27.9468,0.19927 32.6579,-0.24671 64.4727,-24.18117 71.4114,-56.51638 1.7593,-9.4521 4.5845,-18.72984 5.3304,-28.34537 v -8.31929 c -1.4067,-14.83384 -8.9758,-29.06963 -20.9975,-37.98479 -10.2976,-7.87607 -23.2856,-11.81783 -36.1914,-11.85624 z"
       id="schwarz"
       style="fill:#000000;fill-opacity:1;fill-rule:nonzero;stroke:none" />
    <path
       d="m 82.723948,32.587429 c -8.658195,0.229682 -17.652132,3.39066 -23.438482,10.062855 -4.676783,5.258923 -7.266508,12.396943 -7.024072,19.428285 0.125299,4.557169 3.059559,8.657116 7.04898,10.710465 7.418038,4.004962 15.556128,6.553738 22.69124,11.108994 4.940324,3.155116 9.920429,6.903244 12.578569,12.279672 1.970025,4.06466 0.529414,8.57331 -0.199264,12.75293 -23.750876,121.837 -47.387436,243.70388 -71.087596,365.55065 -1.646936,9.29826 -2.687852,19.65836 2.291541,28.17101 4.525334,7.64346 13.891499,10.59817 22.342528,10.48629 40.572157,0.002 81.128548,0.0669 121.700768,-0.0249 10.02992,-51.64607 20.05915,-103.29156 30.13875,-154.92811 1.82535,-8.55009 2.67917,-17.46628 6.30174,-25.50585 1.37997,-3.42578 4.7517,-5.33143 8.36911,-5.35524 5.38347,3.62192 8.35795,9.56619 11.08408,15.24373 5.56407,12.23203 10.59199,24.69936 15.91625,37.03829 18.83681,44.46966 37.8253,88.86231 56.54129,133.38264 48.82282,0.38122 97.65943,0.0615 146.48429,0.19927 6.9863,0.3702 13.80976,-2.30563 19.35356,-6.42628 7.90503,-6.10402 11.92669,-16.8904 9.76396,-26.65162 -2.90722,-6.74715 -10.51567,-9.13012 -16.71331,-11.85624 -9.90318,-4.11837 -21.00971,-8.90897 -25.85456,-19.20411 -13.23391,-30.14406 -26.74701,-60.15665 -40.22652,-90.19208 -4.98541,-11.5718 -10.75505,-22.8151 -15.21882,-34.59729 19.78094,-9.57462 37.01808,-23.93948 51.21097,-40.62504 15.42756,-18.2739 26.92412,-39.70165 34.49766,-62.34487 9.18975,-27.44714 13.12793,-56.53593 12.80274,-85.43463 0.18557,-17.97268 -3.88429,-36.153576 -12.55366,-51.958212 C 452.24761,66.782084 436.85645,53.445537 419.2069,45.464895 396.90731,35.322965 372.04651,32.240526 347.74568,32.612337 259.40741,32.598366 171.06149,32.643557 82.723948,32.587429 Z M 256.80636,125.12086 c 11.7266,-0.0236 23.44311,0.0306 35.17018,0 10.3041,0.10352 20.71332,0.25165 30.83617,2.39118 6.53785,1.44276 13.44291,4.33578 16.96239,10.38666 4.5558,7.81214 3.90621,17.18928 3.58676,25.87947 -0.94823,13.68767 -5.38972,28.00392 -15.94116,37.36208 -10.89174,9.92783 -26.11012,13.10522 -40.42577,13.5749 -19.78822,0.0319 -39.56788,0.006 -59.3559,0 5.91752,-29.82442 11.6544,-59.66845 17.43564,-89.51956 3.90871,-0.0305 7.82282,-0.0669 11.73169,-0.0747 z M 575.30569,32.512705 c -6.13523,-0.01737 -12.30071,1.100292 -17.75944,3.985289 -9.06529,4.571276 -14.86249,14.539018 -14.94484,24.609161 -0.15446,4.791366 2.70093,9.405306 6.92444,11.607155 7.19169,3.885742 15.07455,6.37857 22.04363,10.710465 5.37758,3.338339 10.92609,7.304531 13.5998,13.251086 2.10875,4.604219 -0.22867,9.513489 -0.79705,14.197589 -5.73114,32.92706 -11.31565,65.90217 -16.21515,98.95972 l -0.37362,0.57288 c -6.45057,42.31372 -13.29245,84.58177 -19.70227,126.90655 -7.49509,47.72125 -14.55929,95.52017 -22.16817,143.22134 -0.73016,7.82242 -0.77652,16.43114 3.88565,23.16449 4.80278,7.1541 14.02653,9.57484 22.21799,9.46506 42.65686,0.009 85.31999,0.007 127.9776,-0.0249 7.86162,-51.35314 15.67135,-102.70047 23.51321,-154.05633 1.26492,-8.08328 2.30823,-16.30559 5.10615,-24.03628 1.19157,-3.41067 3.62637,-7.50956 7.7464,-7.39769 15.63697,-0.25188 31.26055,-0.17366 46.90188,-0.34871 34.12959,0.44099 68.66015,-5.52692 99.83149,-19.72719 28.09724,-12.67519 53.24721,-32.48569 70.43999,-58.23503 20.77555,-30.62231 30.09531,-67.91427 30.81122,-104.61385 0.98389,-6.96775 -0.16507,-13.92733 -0.42339,-20.89786 -1.833,-18.68769 -8.26047,-37.211528 -20.05095,-51.983112 -11.94941,-15.14507 -29.01378,-25.599959 -47.25063,-31.433969 -19.50822,-6.349988 -40.20144,-8.209658 -60.62621,-7.796222 -86.02426,-0.0176 -172.04866,0.03779 -258.07238,-0.02491 -0.87278,-0.0468 -1.73888,-0.07224 -2.61535,-0.07472 z m 207.85774,92.608155 c 10.356,0.12888 20.81162,0.28726 30.96072,2.59044 5.71506,1.43871 11.69937,3.89005 15.16905,8.91709 3.88486,5.52486 4.79151,12.53064 4.43355,19.12938 0.7368,16.54387 -3.57759,34.73054 -16.56382,45.95537 -11.72065,10.18473 -27.87342,12.98206 -42.94149,13.02691 -17.7438,-0.20561 -35.49884,0.35738 -53.22852,-0.29889 5.24867,-29.71032 9.62533,-59.55794 14.72066,-89.29539 15.81295,-0.007 31.63477,-0.0208 47.44985,-0.0249 z M 1289.4197,32.587429 c -1.3595,-10e-4 -2.7277,0.0032 -4.0849,0.02491 -88.6842,0.0068 -177.361,-0.01554 -266.043,0 -10.8001,0.368513 -21.8402,6.068107 -26.60175,16.090605 -2.45494,5.512687 -4.25142,12.109473 -1.84327,17.933802 2.1342,4.979255 7.54646,7.027532 12.10532,9.166165 9.045,3.931304 18.4567,7.922099 25.4312,15.144099 3.1321,3.165045 5.4535,7.585631 4.5083,12.15513 -10.9232,57.53585 -22.5238,114.95614 -33.32696,172.51321 l -0.34876,0.59779 c -11.32627,59.539 -23.18027,118.9837 -34.54743,178.51605 -1.64896,8.28421 -3.53336,16.53101 -4.65777,24.90806 -1.08089,8.00793 -0.99736,16.87457 3.58676,23.86191 4.75365,7.09133 13.70047,9.73726 21.8692,9.63942 40.55366,0.009 81.12096,0.0662 121.67586,0 10.4288,-54.11829 21.0304,-108.21686 31.5087,-162.32581 1.5003,-6.74561 2.2328,-13.93872 5.9531,-19.92644 1.8589,-3.07715 6.6241,-4.66967 9.4401,-1.94283 5.2947,4.78874 7.9594,11.64503 10.9596,17.95871 23.5243,55.36133 47.0488,110.72502 70.5147,166.11183 48.8251,0.34261 97.6566,0.0427 146.4843,0.17436 10.671,0.3262 21.5877,-5.57505 26.527,-15.16901 2.7816,-5.34535 3.7329,-11.61487 2.6652,-17.53527 -1.7611,-5.0111 -6.7191,-7.75229 -11.2584,-9.83868 -9.1485,-4.09264 -19.1474,-7.25077 -26.4275,-14.47158 -4.7661,-4.49594 -6.5763,-10.95292 -9.2658,-16.71331 -16.9272,-38.46572 -34.3675,-76.72397 -51.4351,-115.12504 29.1525,-14.16856 52.9448,-38.14937 69.2195,-65.98145 21.3068,-36.61744 29.7717,-79.54118 29.5409,-121.57623 0.2931,-22.27137 -5.6626,-45.123824 -19.1543,-63.092104 -10.7268,-14.443739 -26.1343,-24.931736 -42.8667,-31.234704 -19.1455,-7.223469 -39.736,-9.847946 -60.1281,-9.863591 z M 1182.589,125.12086 c 15.9864,0.008 31.9583,-6.5e-4 47.9481,0 9.9833,0.12155 20.0585,0.32362 29.8647,2.41608 5.6247,1.28582 11.4362,3.49954 15.2188,8.07022 3.0398,3.67301 4.4984,8.41559 5.1311,13.07673 1.0208,12.86601 -0.048,26.22741 -5.43,38.10932 -4.0632,9.13973 -11.4237,16.74829 -20.3997,21.14694 -10.0006,5.01954 -21.3102,6.59553 -32.3804,6.7999 -19.1324,-0.0237 -38.2835,0.005 -57.4131,-0.0249 5.8646,-29.85303 11.6329,-59.73413 17.4605,-89.59429 z m 436.9459,-79.426092 c 8.1299,-7.815481 19.0255,-13.068292 30.4366,-13.081184 15.638,-0.0061 31.2788,-0.0064 46.9216,-9.1e-5 8.6508,-0.02014 17.6422,3.616594 22.7754,10.79756 5.0736,7.104726 6.3039,16.18817 5.7445,24.712658 -0.3454,8.687673 -3.1715,16.97617 -4.9276,25.425739 -31.7629,139.77894 -63.6771,279.52325 -95.3455,419.32298 -37.2125,0.0486 -74.4242,-0.0138 -111.6348,0.0325 -7.5709,0.19369 -15.4112,-3.29391 -19.5468,-9.77821 -5.3667,-8.33812 -6.234,-19.06197 -3.3771,-28.44066 17.4479,-75.70844 34.7188,-151.45856 52.1568,-227.16913 0.9293,-5.08135 2.0623,-10.94591 -0.9404,-15.5503 -2.6743,-3.43303 -7.3952,-4.0448 -11.4556,-4.08161 -14.5838,-0.0331 -29.166,0.002 -43.7454,-0.005 -8.2569,-0.14746 -17.2762,-2.868 -22.1739,-9.96012 -4.4891,-6.47576 -4.1277,-14.87895 -2.4664,-22.23005 2.9067,-14.43374 5.6439,-28.90197 8.4761,-43.3507 1.7954,-8.41163 8.0427,-15.22474 15.3253,-19.45492 6.1283,-3.72707 13.1779,-5.35861 19.9863,-7.37846 12.9126,-3.96709 25.6976,-8.42263 38.0825,-13.84059 15.3482,-6.48623 28.4626,-17.151636 40.6452,-28.322393 12.7197,-11.570053 22.6335,-25.797975 35.0632,-37.648489 z m 123.859,361.047722 c 8.6738,-0.81078 17.4136,-0.20457 26.1222,-0.40533 8.9613,-0.29108 18.1441,1.77501 25.7036,6.72248 9.0131,5.77277 15.0765,15.93061 15.7825,26.62017 0.7812,9.89616 -2.831,19.34361 -4.4141,28.98016 -4.6153,26.14701 -30.9088,45.20138 -56.9569,44.24502 -8.9603,-0.28391 -17.9791,0.56 -26.8845,-0.54825 -11.4216,-1.67479 -22.3281,-8.3364 -27.8916,-18.61737 -4.5329,-8.20467 -5.4573,-18.08797 -3.1192,-27.11245 2.4267,-9.80476 3.2232,-20.17383 7.7734,-29.32947 8.481,-16.53359 25.5461,-28.08511 43.8846,-30.55496 z"
       id="weiss"
       style="fill:#ffffff;fill-rule:nonzero;stroke:none" />
    <path
       d="m 82.82358,45.738884 c -5.446281,0.278634 -11.294384,2.278521 -14.571213,6.874623 -1.839068,2.459123 -2.326596,5.555589 -3.013875,8.46874 12.034055,5.634034 25.082015,10.282527 34.572384,20.00117 6.495564,6.272182 10.723674,15.710273 8.593284,24.783513 -24.035108,123.58683 -48.050278,247.1941 -72.083923,370.78135 -0.997083,5.62388 -1.742078,11.55565 -0.323805,17.16165 1.595307,5.45176 8.10514,6.16825 12.902374,6.25192 36.613234,0.0217 73.230744,0.0278 109.844534,0 10.05617,-51.99126 20.19166,-103.96627 30.2882,-155.94935 1.66226,-7.88069 3.32809,-16.24736 8.64309,-22.5916 5.89279,-7.26471 17.54058,-9.56791 25.40622,-4.23437 6.76481,4.8086 11.00101,12.25394 14.44668,19.62755 5.6533,12.6396 10.89963,25.46156 16.36459,38.18405 17.67406,41.64987 35.37109,83.28186 53.02925,124.93881 45.82803,0.0878 91.66414,0.002 137.49248,0.0498 8.51358,0.35199 16.95926,-6.47528 16.71331,-15.36827 -10.30973,-5.1974 -21.76785,-8.42959 -30.81127,-15.89134 -6.43085,-4.84856 -10.77894,-11.88511 -13.5998,-19.32865 -19.45181,-44.26342 -39.4024,-88.3138 -59.28118,-132.38633 18.26576,-5.63541 34.18706,-17.004 47.99783,-29.96439 18.31376,-17.72584 32.13539,-39.84037 41.04848,-63.665 8.00405,-21.34196 12.32667,-43.97063 13.82397,-66.67887 1.36887,-18.33318 1.47233,-37.3278 -5.03143,-54.79772 C 449.26857,84.671034 436.5677,69.922035 420.57684,61.007523 406.56046,52.979996 390.62532,49.145315 374.74601,46.984286 368.43043,46.609055 362.14896,45.78534 355.81589,45.7887 264.81476,45.753065 173.82242,45.816235 82.82358,45.738884 Z m 151.64025,65.981446 c 17.51669,0.0472 35.03864,0.0144 52.55601,0 16.38043,0.75358 33.53033,-0.38795 48.94433,6.25192 8.55373,3.66056 15.44667,11.00694 18.28251,19.90154 3.65736,11.20345 2.8772,23.26233 1.39485,34.77165 -2.32006,15.77184 -9.64908,31.38741 -22.61651,41.1232 -13.04383,10.06747 -29.83398,13.69099 -46.00518,14.17268 -25.11373,0.0236 -50.20846,3.7e-4 -75.32197,0 6.65624,-34.35196 13.31781,-68.70299 20.02608,-103.04463 0.80371,-4.41536 1.5966,-8.83384 2.73988,-13.17636 z M 574.98189,45.689067 c -3.86958,0.08488 -7.69561,0.582177 -11.15881,2.490806 -4.81299,2.277254 -7.54967,7.405726 -8.16984,12.528753 5.42568,3.60311 11.83445,5.325864 17.51036,8.493648 11.48797,5.786212 23.04063,14.544065 26.02892,27.772484 0.29034,5.025352 -0.4856,10.003262 -1.56921,14.895022 -6.75409,37.54512 -12.62226,75.23893 -18.63122,112.90822 -13.65077,85.86119 -26.59348,171.82329 -39.97744,257.72367 -0.37442,4.48164 -0.79448,9.4669 1.59412,13.50017 2.82456,3.77755 8.08832,3.86524 12.3793,4.08492 38.57242,-0.0294 77.14973,0.035 115.72284,-0.0498 6.46565,-43.18819 13.15021,-86.34625 19.70227,-129.52189 1.97394,-11.93792 3.16574,-24.04464 6.37647,-35.74307 1.46442,-5.10406 3.5028,-10.22244 7.22333,-14.12287 3.27764,-3.54078 7.92077,-5.76027 12.72802,-6.12738 14.16178,-0.41292 28.36969,0.32912 42.51805,-0.57288 10.33156,-0.15091 20.67856,0.24515 30.98563,-0.69743 32.02215,-2.84226 63.89992,-12.10887 91.11363,-29.51605 24.20489,-15.39439 43.94411,-37.76693 55.66955,-63.9888 10.01176,-21.91044 14.70117,-45.93429 16.01592,-69.89201 0.41511,-9.6728 0.7148,-19.4182 -0.79706,-29.01788 -2.29568,-16.50282 -8.87587,-32.715455 -20.37487,-44.959047 -11.86604,-12.903024 -28.18795,-20.91421 -45.00882,-25.157138 -15.6048,-3.976806 -31.78794,-5.179781 -47.84842,-4.931795 -85.03094,-0.0033 -170.05275,-0.01504 -255.08337,-0.02491 -2.28243,-0.03355 -4.6276,-0.125651 -6.94935,-0.07473 z m 149.69742,66.031263 c 18.83876,0.0466 37.67585,0.0267 56.51639,0.0249 13.01358,0.79229 26.32658,0.11394 38.9562,3.96038 8.1975,2.34265 16.11045,6.99015 20.69863,14.37195 5.70471,8.72185 6.61798,19.53505 6.32657,29.6904 -0.53124,17.55807 -5.26473,36.12005 -18.0583,48.8447 -13.04879,13.66033 -32.50692,18.65917 -50.83735,19.30375 -24.19656,0.0674 -48.3864,0.0115 -72.58208,0.0249 3.34307,-22.15259 7.16066,-44.22528 10.66065,-66.35506 2.8391,-16.60628 5.12889,-33.32496 8.31929,-49.86593 z M 1020.4376,45.738884 c -5.2643,0.282921 -10.8791,2.050174 -14.2723,6.301738 -2.1407,2.540412 -2.7006,5.906264 -3.5121,9.016717 12.222,5.723669 25.4797,10.46555 35.0457,20.424607 6.2229,6.265356 10.2221,15.495482 8.1698,24.360084 -23.9378,123.30879 -47.94796,246.60493 -71.90951,369.90956 -1.08607,5.84481 -1.9178,11.9741 -0.54805,17.83417 1.2768,5.32807 7.49959,6.31244 12.13026,6.45118 36.8837,0.0923 73.7806,0.0256 110.6665,0.0498 10.0073,-51.64044 20.0618,-103.26651 30.0889,-154.90321 1.6114,-7.81369 3.1703,-16.06285 8.0204,-22.61652 3.936,-5.5266 10.7968,-8.59617 17.5353,-8.14493 5.6336,0.0207 10.5208,3.57131 14.0481,7.69659 6.8736,7.92381 10.4158,17.96387 14.5962,27.42377 21.3185,50.17194 42.6235,100.3705 63.9389,150.5443 43.8603,0.016 87.7029,-0.0228 131.5644,0 5.3042,0.11531 11.0877,0.39289 15.6672,-2.7897 4.4949,-2.51816 6.7001,-7.57708 6.9742,-12.55366 -9.2751,-4.74543 -19.5054,-7.67693 -28.0464,-13.79907 -6.3009,-4.24467 -11.4902,-10.17119 -14.5214,-17.16165 -19.9276,-45.74931 -40.8468,-91.07423 -60.9999,-136.72033 12.3126,-3.77229 23.5684,-10.33772 33.8252,-18.03343 14.3741,-10.77467 26.6608,-24.20817 36.5899,-39.15547 23.4122,-35.25241 32.5086,-78.14638 33.0032,-119.98211 0.4042,-18.19576 -3.1675,-36.93635 -12.8028,-52.580908 -8.5078,-13.92399 -21.8267,-24.520749 -36.7642,-30.861084 -20.9148,-8.927526 -44.0285,-11.047237 -66.5544,-10.660648 -87.3119,-0.02589 -174.6241,0.0448 -261.9331,-0.04982 z m 191.6675,65.956536 c 12.8179,0.0254 25.6345,0.23993 38.4331,0.99632 10.9962,1.18842 22.7247,3.19981 31.4091,10.61083 7.2566,5.99003 11.0165,15.26285 11.906,24.45972 1.072,10.64228 0.2858,21.49457 -2.1421,31.90722 -3.1007,13.23401 -10.2367,25.79141 -21.1967,34.04931 -10.3136,7.97523 -23.1324,12.03523 -35.9672,13.45035 -8.2691,1.17134 -16.6446,0.6674 -24.9579,0.77215 -20.1505,-0.0113 -40.3039,0.0156 -60.4519,-0.0249 7.3398,-37.68786 14.6804,-75.36557 21.9938,-113.05768 0.2633,-1.34596 0.4799,-3.58547 2.5158,-3.0886 12.8143,0.0481 25.6401,-0.10016 38.458,-0.0747 z m 495.5686,343.30368 c 2.4156,-17.64515 17.8457,-31.45822 34.914,-34.7158 6.2378,-1.24713 12.6264,-0.67688 18.9506,-0.78891 7.6247,0.0283 15.6606,-0.65435 22.7815,2.67626 7.0991,2.99447 12.535,9.76612 13.4531,17.48178 0.7567,5.77901 -1.0685,11.41672 -2.1616,17.02518 -1.6706,7.07268 -2.352,14.59028 -6.1489,20.95386 -5.7473,10.06892 -15.8081,17.32894 -26.8551,20.54103 -7.7776,2.32466 -15.9587,1.37838 -23.9384,1.558 -5.7342,0.11202 -11.48,0.11075 -17.1288,-0.93155 -7.1467,-2.25098 -13.8774,-7.07963 -16.412,-14.38221 -3.7188,-9.72968 1.1783,-19.72241 2.5456,-29.41764 z"
       id="rot"
       style="fill:#e2003b;fill-opacity:1;fill-rule:nonzero;stroke:none" />
    <path
       d="m 1631.0974,53.189625 c 5.5132,-4.663146 12.6004,-7.4944 19.8697,-7.419877 14.9473,0.0046 29.8979,0.0089 44.85,-0.0036 4.9969,-0.02525 10.6263,1.42107 13.4418,5.932326 3.93,6.325786 3.4015,14.24951 2.3813,21.322081 -32.4343,142.221865 -64.7039,284.496085 -97.1453,426.722065 -33.3354,-0.007 -66.67,-0.0327 -100.003,0.0151 -3.4538,0.0505 -7.3594,-0.74037 -9.3931,-3.80516 -2.9116,-4.49542 -3.5887,-10.24251 -2.3078,-15.39448 16.5056,-71.78944 32.9508,-143.59404 49.4172,-215.39299 1.9509,-9.78094 5.5951,-19.51003 4.4915,-29.63194 -0.6878,-7.30228 -4.9216,-14.41531 -11.6248,-17.67061 -6.9435,-3.66474 -15.0253,-3.16636 -22.6163,-3.16874 -11.6252,-0.0145 -23.2484,0.0474 -34.8672,-0.0134 -4.4337,-0.18527 -9.7187,-0.6426 -12.4727,-4.6233 -2.0007,-3.30834 -1.1321,-7.37269 -0.4036,-10.93377 2.9865,-14.41828 5.6071,-28.91254 8.5129,-43.34609 1.617,-7.89917 9.3852,-12.34484 16.4525,-14.70109 9.1343,-2.69171 18.2773,-5.38565 27.2455,-8.61949 15.0117,-5.45732 30.3163,-11.00249 43.3298,-20.50543 15.7313,-10.87018 29.5775,-24.256149 41.9875,-38.756062 6.0408,-6.882235 11.8371,-14.065923 18.8541,-20.005515 z"
       id="blau"
       style="fill:#009ee0;fill-opacity:1;fill-rule:nonzero;stroke:none" />
  </g>
</svg>
