<?xml version="1.0" encoding="UTF-8" standalone="no"?>
<svg
   id="SWR2"
   viewBox="0 0 300 299.99999"
   version="1.1"
   sodipodi:docname="swr-aktuell.svg"
   inkscape:version="1.2.2 (b0a8486541, 2022-12-01)"
   width="300"
   height="300"
   xmlns:inkscape="http://www.inkscape.org/namespaces/inkscape"
   xmlns:sodipodi="http://sodipodi.sourceforge.net/DTD/sodipodi-0.dtd"
   xmlns="http://www.w3.org/2000/svg"
   xmlns:svg="http://www.w3.org/2000/svg"
   xmlns:rdf="http://www.w3.org/1999/02/22-rdf-syntax-ns#"
   xmlns:cc="http://creativecommons.org/ns#"
   xmlns:dc="http://purl.org/dc/elements/1.1/">
  <title
     id="title942">SWR Aktuell (2017, stacked)</title>
  <defs
     id="defs863" />
  <sodipodi:namedview
     id="namedview861"
     pagecolor="#ffffff"
     bordercolor="#666666"
     borderopacity="1.0"
     inkscape:pageshadow="2"
     inkscape:pageopacity="0.0"
     inkscape:pagecheckerboard="0"
     showgrid="false"
     inkscape:zoom="4.68"
     inkscape:cx="135.7906"
     inkscape:cy="165.17094"
     inkscape:window-width="2560"
     inkscape:window-height="1377"
     inkscape:window-x="-8"
     inkscape:window-y="-8"
     inkscape:window-maximized="1"
     inkscape:current-layer="SWR2"
     inkscape:showpageshadow="2"
     inkscape:deskcolor="#d1d1d1" />
  <style
     id="style853">.st0{fill:#0a1e3c}</style>
  <rect
     style="fill:#ffffff;stroke:#ffffff;stroke-width:8.16356;stroke-linejoin:round"
     id="rect870"
     width="285.00549"
     height="134.36447"
     x="7.4972534"
     y="82.817764" />
  <g
     id="SWR_Aktuell_Logo"
     style="fill:#000000"
     transform="matrix(0.94551708,0,0,0.94551708,8.172438,91.330665)">
    <path
       class="st0"
       d="m 150.4,-0.7 v 19.4 l 10.4,10.4 -10.4,10.4 v 19.3 l 29.5,-29.7 z"
       id="path855"
       style="fill:#000000" />
    <path
       class="st0"
       d="M 177,18.7 187.4,29.1 177,39.5 V 58.8 L 206.5,29.1 177,-0.7 Z m -52,13.9 c 7.1,-1.7 11.6,-7.6 11.6,-14.8 0,-11.4 -7.1,-15.9 -19.7,-15.9 -6.4,0 -12.3,0.1 -16.5,0.4 v 53.4 h 12 V 34.8 h 0.3 l 12.7,20.8 h 15 L 129.1,38.5 c -1.3,-1.9 -2.6,-3.8 -4.1,-5.9 z m -9.6,-6.5 c -1.2,0 -2,-0.1 -3,-0.2 V 12.2 c 1,-0.1 2.1,-0.2 3.3,-0.2 5.8,0 8.3,2.5 8.3,6.7 0,4.6 -3.3,7.4 -8.6,7.4 z M 17,16.6 c 0,-3 2.5,-5.3 7.7,-5.3 3.2,0 7.2,0.8 10.2,1.7 V 2.1 C 31.7,1.5 28.4,1.2 25.2,1.2 11.7,1.2 3.6,7.8 3.8,17.9 4.2,35.7 25.2,31.2 25.2,40.3 25.2,44.1 21.9,46 17.4,46 13.5,46 9,44.8 6,43.7 L 5.5,55.5 c 3.6,0.8 7.3,1.2 11,1.2 13.7,0 22,-7.7 22,-18.1 C 38.4,21.8 17,24.9 17,16.6 Z M 79,35.7 73.6,2.5 H 61.2 L 55.8,35.7 50.4,2.5 H 37.9 l 9.5,53.1 h 13.9 l 6.1,-34.3 6,34.3 h 14 L 96.8,2.5 H 84.4 Z M 250.5,70.2 H 238 v 53.7 h 28.6 V 113 h -16.1 z m -74,33.4 c 0,8 -2.7,10.9 -9.7,10.9 -7.6,0 -9.6,-4 -9.6,-10.2 v -34 h -12 V 105 c 0,10.7 4.1,19.8 21.1,19.8 14.1,0 22.6,-7 22.6,-22 V 70.2 h -12.5 v 33.4 z M 102,81.2 h 12.5 v 42.7 H 127 V 81.2 h 12.5 v -11 H 102 Z m 96.9,42.7 h 29.7 V 113 h -17.7 v -11.5 h 17.2 V 91.6 H 210.9 V 80.7 h 17.7 V 70.2 H 198.9 Z M 283.8,113 V 70.2 h -11.9 v 53.7 H 300 V 113 Z M 97.1,70.2 H 82.2 L 68.1,94 V 70.2 h -12 v 53.7 h 12 V 98.7 L 82,123.9 H 98 L 79.5,96.1 Z M 17.6,70.2 0,123.9 H 14.3 L 24.9,84.4 35.4,123.9 H 49.7 L 32.2,70.2 Z"
       id="path857"
       style="fill:#000000" />
  </g>
  <metadata
     id="metadata940">
    <rdf:RDF>
      <cc:Work
         rdf:about="">
        <dc:title>SWR Aktuell (2017, stacked)</dc:title>
      </cc:Work>
    </rdf:RDF>
  </metadata>
</svg>
