<?xml version="1.0" encoding="UTF-8" standalone="no"?>
<svg
   version="1.1"
   id="svg4533"
   viewBox="0 0 915.64373 915.64374"
   height="258.41501mm"
   width="258.41501mm"
   sodipodi:docname="swr2.svg"
   inkscape:version="1.2.2 (b0a8486541, 2022-12-01)"
   xmlns:inkscape="http://www.inkscape.org/namespaces/inkscape"
   xmlns:sodipodi="http://sodipodi.sourceforge.net/DTD/sodipodi-0.dtd"
   xmlns="http://www.w3.org/2000/svg"
   xmlns:svg="http://www.w3.org/2000/svg"
   xmlns:rdf="http://www.w3.org/1999/02/22-rdf-syntax-ns#"
   xmlns:cc="http://creativecommons.org/ns#"
   xmlns:dc="http://purl.org/dc/elements/1.1/">
  <sodipodi:namedview
     id="namedview23"
     pagecolor="#ffffff"
     bordercolor="#000000"
     borderopacity="0.25"
     inkscape:showpageshadow="2"
     inkscape:pageopacity="0.0"
     inkscape:pagecheckerboard="0"
     inkscape:deskcolor="#d1d1d1"
     inkscape:document-units="mm"
     showgrid="false"
     inkscape:zoom="1.3740311"
     inkscape:cx="439.2186"
     inkscape:cy="534.19462"
     inkscape:window-width="2560"
     inkscape:window-height="1377"
     inkscape:window-x="-8"
     inkscape:window-y="-8"
     inkscape:window-maximized="1"
     inkscape:current-layer="svg4533" />
  <defs
     id="defs4535">
    <clipPath
       id="clipPath4472"
       clipPathUnits="userSpaceOnUse">
      <path
         id="path4474"
         d="m 158.07,241.57 h 122.231 v 31.747 H 158.07 Z" />
    </clipPath>
  </defs>
  <metadata
     id="metadata4538">
    <rdf:RDF>
      <cc:Work
         rdf:about="">
        <dc:format>image/svg+xml</dc:format>
        <dc:type
           rdf:resource="http://purl.org/dc/dcmitype/StillImage" />
      </cc:Work>
    </rdf:RDF>
  </metadata>
  <rect
     style="fill:#ffffff;stroke:#ffffff;stroke-width:7.81875;stroke-linejoin:round"
     id="rect358"
     width="869.24896"
     height="336.37344"
     x="23.197416"
     y="289.63516" />
  <g
     transform="matrix(0.9225381,0,0,0.9225381,298.35463,-3.4492812)"
     id="layer1">
    <g
       id="g4492"
       transform="matrix(7.4911357,0,0,-7.4911357,-1469.0871,2428.5465)">
      <g
         id="g4460"
         transform="translate(158.0697,262.3356)">
        <path
           d="M 0,0 5.216,-5.225 0,-10.449 V -20.18 L 14.808,-5.225 0,9.728 Z"
           style="fill:#4472c2;fill-opacity:1;fill-rule:nonzero;stroke:none"
           id="path4462" />
      </g>
      <g
         id="g4464"
         transform="translate(171.3753,272.0633)">
        <path
           d="M 0,0 V -9.728 L 5.217,-14.953 0,-20.177 v -9.73 l 14.808,14.954 z"
           style="fill:#4472c2;fill-opacity:1;fill-rule:nonzero;stroke:none"
           id="path4466" />
      </g>
      <g
         id="g4468">
        <g
           id="g4470"
           clip-path="url(#clipPath4472)">
          <g
             id="g4476"
             transform="translate(249.5484,262.2661)">
            <path
               d="m 0,0 c 0,2.112 -1.241,3.386 -4.162,3.386 -0.64,0 -1.36,-0.04 -1.72,-0.079 v -6.892 c 0.319,-0.04 0.959,-0.079 1.56,-0.079 C -1.681,-3.664 0,-2.271 0,0 M 8.309,-18.605 H 0.757 l -6.399,10.518 h -0.24 v -10.518 h -6.213 V 8.306 c 2.27,0.161 5.177,0.201 8.414,0.201 6.35,0 10.053,-2.28 10.053,-7.989 0,-3.624 -2.229,-6.573 -5.814,-7.449 0.716,-1.036 1.393,-2.032 2.071,-3.028 z"
               style="fill:#4472c2;fill-opacity:1;fill-rule:nonzero;stroke:none"
               id="path4478" />
          </g>
          <g
             id="g4480"
             transform="translate(195.5535,243.2547)">
            <path
               d="m 0,0 c -1.869,0 -3.825,0.201 -5.535,0.6 l 0.276,5.896 c 1.51,-0.558 3.788,-1.138 5.737,-1.138 2.279,0 3.919,0.957 3.919,2.872 0,4.586 -10.555,2.314 -10.758,11.246 -0.116,5.059 3.976,8.4 10.717,8.4 1.432,0 3.221,-0.159 4.89,-0.477 L 9.234,21.906 c -1.512,0.439 -3.525,0.841 -5.117,0.841 -2.599,0 -3.839,-1.117 -3.839,-2.633 0,-4.187 10.758,-2.592 10.758,-11.007 C 11.036,3.879 6.861,0 0,0"
               style="fill:#4472c2;fill-opacity:1;fill-rule:nonzero;stroke:none"
               id="path4482" />
          </g>
          <g
             id="g4484"
             transform="translate(229.6806,270.5702)">
            <path
               d="M 0,0 -2.708,-16.666 -5.417,0 h -6.255 L -14.38,-16.666 -17.087,0 h -6.259 l 4.75,-26.922 h 7.009 l 3.043,17.279 3.042,-17.279 H 1.509 L 6.258,0 Z"
               style="fill:#4472c2;fill-opacity:1;fill-rule:nonzero;stroke:none"
               id="path4486" />
          </g>
          <g
             id="g4488"
             transform="translate(280.3002,241.5698)">
            <path
               d="m 0,0 v 6.744 c -4.125,0 -6.519,-0.003 -10.747,-0.158 l 3.005,3.063 c 4.227,4.098 6.774,7.834 6.774,12.606 0,5.032 -3.107,9.493 -10.39,9.493 -3.565,0 -6.468,-1.089 -8.811,-2.594 l 1.527,-6.173 c 1.58,1.297 3.668,2.231 5.705,2.231 2.7,0 4.024,-1.609 4.024,-4.255 0,-3.059 -1.681,-5.031 -8.149,-11.464 L -20.424,5.862 V 0 Z"
               style="fill:#4472c2;fill-opacity:1;fill-rule:nonzero;stroke:none"
               id="path4490" />
          </g>
        </g>
      </g>
    </g>
  </g>
</svg>
