<?xml version="1.0" encoding="UTF-8" standalone="no"?>
<svg
   version="1.1"
   id="Ebene_1"
   x="0px"
   y="0px"
   enable-background="new 0 0 906 316"
   xml:space="preserve"
   viewBox="38.65 34.18 828.7 828.70003"
   sodipodi:docname="swr3.svg"
   width="828.70001"
   height="828.70001"
   inkscape:version="1.2.2 (b0a8486541, 2022-12-01)"
   xmlns:inkscape="http://www.inkscape.org/namespaces/inkscape"
   xmlns:sodipodi="http://sodipodi.sourceforge.net/DTD/sodipodi-0.dtd"
   xmlns="http://www.w3.org/2000/svg"
   xmlns:svg="http://www.w3.org/2000/svg"><defs
   id="defs400" /><sodipodi:namedview
   id="namedview398"
   pagecolor="#ffffff"
   bordercolor="#000000"
   borderopacity="0.25"
   inkscape:showpageshadow="2"
   inkscape:pageopacity="0.0"
   inkscape:pagecheckerboard="0"
   inkscape:deskcolor="#d1d1d1"
   showgrid="false"
   inkscape:zoom="1.6194039"
   inkscape:cx="372.668"
   inkscape:cy="469.92601"
   inkscape:window-width="2560"
   inkscape:window-height="1377"
   inkscape:window-x="-8"
   inkscape:window-y="-8"
   inkscape:window-maximized="1"
   inkscape:current-layer="Ebene_1" />
<rect
   style="fill:#ffffff;stroke:#ffffff;stroke-width:8.34;stroke-linejoin:round"
   id="rect519"
   width="810.79218"
   height="294.55283"
   x="47.60392"
   y="301.2536" /><g
   id="g395"
   transform="matrix(0.94264594,0,0,0.94264594,25.981867,299.59148)">
	<polygon
   fill="#e4032e"
   points="38.655,175.429 38.655,239.83 136.767,140.852 38.655,41.873 38.655,106.274 73.225,140.852 "
   data-darkreader-inline-fill=""
   id="polygon383" />
	<polygon
   fill="#e4032e"
   points="126.797,239.83 224.964,140.852 126.797,41.873 126.797,106.274 161.384,140.852 126.797,175.429 "
   data-darkreader-inline-fill=""
   id="polygon385" />
	<path
   fill="#e4032e"
   d="m 241.566,115.04 c 0,44.138 45.88,43.612 45.88,62.417 0,9.407 -6.796,14.628 -21.373,14.628 -10.169,0 -24.238,-2.354 -32.582,-5.492 l -8.339,45.129 c 9.634,1.839 22.676,3.133 36.224,3.133 46.134,0 78.451,-29.996 78.451,-66.283 0,-42.814 -46.138,-43.602 -46.138,-62.394 0,-8.364 5.745,-14.371 22.174,-14.371 7.813,0 19.021,1.837 25.817,4.182 l 8.066,-41.927 c -9.918,-1.556 -20.592,-2.602 -32.326,-2.602 -51.603,0 -75.854,29.948 -75.854,63.58 z"
   data-darkreader-inline-fill=""
   id="path387" />
	<path
   fill="#e4032e"
   d="m 534.929,55.216 -25.465,67.761 c -4.661,12.246 -9.311,25.797 -13.96,40.907 h -0.247 c 1.215,-14.583 1.215,-28.661 0.724,-38.82 l -3.916,-69.847 h -45.067 l -29.883,72.709 c -5.154,12.505 -8.821,24.762 -12.737,37.536 h -0.234 c 1.467,-13.3 2.192,-27.107 1.947,-38.312 l -2.204,-71.933 h -45.566 l 7.363,175.913 h 50.706 l 26.448,-67.767 c 5.396,-13.814 9.802,-27.624 13.709,-42.996 h 0.25 c -1.471,16.679 -2.205,32.054 -1.97,44.822 l 1.72,65.94 h 54.127 L 581.476,55.216 Z"
   data-darkreader-inline-fill=""
   id="path389" />
	<path
   fill="#e4032e"
   d="m 673.844,179.578 c -2.606,-6.76 -5.48,-13.53 -8.081,-19.515 31.051,-11.977 43.065,-35.132 43.065,-63.253 0,-27.684 -18.793,-42.84 -60.286,-42.84 -20.595,0 -41.702,0.258 -58.132,1.306 l -33.373,175.853 h 47.457 l 12.246,-64.042 h 1.827 l 20.065,64.042 h 55.06 z m -42.759,-46.844 c -2.6,0 -5.742,-0.264 -7.566,-0.515 l 7.037,-37.748 c 1.558,-0.254 5.992,-0.521 9.896,-0.521 12.005,0 17.225,4.955 17.225,12.758 0,13.015 -9.911,26.026 -26.592,26.026 z"
   data-darkreader-inline-fill=""
   id="path391" />
	<path
   fill="#e4032e"
   d="m 823.779,145.595 v -0.351 c 27.591,-12.124 43.565,-36.362 43.565,-60.2 0,-33.668 -26.595,-50.86 -69.763,-50.86 -19.819,0 -42.528,3.155 -58.134,8.424 v 53.44 c 9.22,-4.625 21.28,-8.54 37.602,-8.54 13.463,0 20.194,6.048 20.194,15.66 0,15.692 -20.536,28.873 -64.192,28.873 l -9.231,52.067 c 40.104,-5.71 58.197,-0.724 58.197,14.971 0,15.683 -14.193,27.811 -43.288,27.811 -11.347,0 -20.928,-2.139 -29.458,-6.048 l -15.966,55.652 c 10.998,3.187 25.55,5.323 38.684,5.323 80.104,0 120.795,-47.849 120.795,-92.723 0,-18.897 -9.904,-38.507 -29.005,-43.499 z"
   data-darkreader-inline-fill=""
   id="path393" />
</g>
</svg>
