<?xml version="1.0" encoding="UTF-8" standalone="no"?>
<svg
   version="1.1"
   id="Ebene_2"
   x="0px"
   y="0px"
   xml:space="preserve"
   viewBox="0.1 0 170.03 170.03"
   sodipodi:docname="wdr2.svg"
   width="170.03"
   height="170.03"
   inkscape:version="1.2.2 (b0a8486541, 2022-12-01)"
   xmlns:inkscape="http://www.inkscape.org/namespaces/inkscape"
   xmlns:sodipodi="http://sodipodi.sourceforge.net/DTD/sodipodi-0.dtd"
   xmlns="http://www.w3.org/2000/svg"
   xmlns:svg="http://www.w3.org/2000/svg"><defs
   id="defs20" /><sodipodi:namedview
   id="namedview18"
   pagecolor="#ffffff"
   bordercolor="#000000"
   borderopacity="0.25"
   inkscape:showpageshadow="2"
   inkscape:pageopacity="0.0"
   inkscape:pagecheckerboard="0"
   inkscape:deskcolor="#d1d1d1"
   showgrid="false"
   inkscape:zoom="7.8927249"
   inkscape:cx="76.46282"
   inkscape:cy="84.634903"
   inkscape:window-width="2560"
   inkscape:window-height="1377"
   inkscape:window-x="-8"
   inkscape:window-y="-8"
   inkscape:window-maximized="1"
   inkscape:current-layer="Ebene_2" />
<style
   type="text/css"
   id="style2">
<![CDATA[
	.st0{fill:#E1072A;}
	.st1{fill:#17375C;}
	.st2{fill:#FFFFFF;}
]]>
</style><style
   class="darkreader darkreader--sync"
   media="screen"
   id="style4" />
<rect
   style="fill:#ffffff;stroke:#ffffff;stroke-width:37.155;stroke-linejoin:miter;stroke-dasharray:none"
   id="rect355"
   width="132.87491"
   height="30.84491"
   x="18.677546"
   y="69.592545" /><g
   id="g15"
   transform="translate(0,51.014999)">
	<g
   id="Logo">
		<g
   id="g12">
			<polygon
   class="st0"
   points="151.6,68 117.2,68 135.7,0 170.1,0 "
   id="polygon6" />
			<path
   class="st2"
   d="m 135.3,36.2 c 5.3,-4.5 10.4,-9.1 10.4,-13.8 0,-2 -1.2,-3.1 -2.8,-3.1 -1.8,0 -3.7,1 -5,2.3 l -3.1,-4.3 c 1.8,-1.7 4.5,-3.4 9,-3.4 6.5,0 9.3,3.5 9.3,7.7 0,5 -3.2,8.8 -8.1,13 0,0 1.7,-0.2 2.7,-0.2 h 6.6 v 5.3 h -19 z"
   id="path8" />
			<path
   class="st1"
   d="m 100.9,30.5 h -5.6 v -8.3 h 5.2 c 3.5,0 4.9,1.4 4.9,4.2 0.1,2.5 -1.4,4.1 -4.5,4.1 M 65.2,42.9 H 62.1 V 22.8 h 2.8 c 6.8,0 9.8,3 9.8,9.9 0,6.7 -3,10.2 -9.5,10.2 m 48,-1.2 c -1.9,-3.2 -3.4,-4.9 -4.7,-5.8 v -0.1 c 3.4,-1.2 7.2,-4.2 7.2,-10.1 0,-7.4 -5.3,-11.3 -14.8,-11.3 h -16 V 26 c 0,0 0,1.1 0,1.2 H 84.8 C 82.9,19.5 76.3,14.4 64.4,14.4 H 42.1 l -3.4,15.1 c -0.7,3.1 -1.3,7 -1.3,7 h -0.1 c 0,0 -0.8,-4.4 -1.5,-7.5 L 33,14.4 H 20.6 L 17.7,29 c -0.7,3.1 -1.5,7.5 -1.5,7.5 H 16 c 0,0 -0.6,-3.9 -1.3,-7 L 11.3,14.4 H 0.1 L 10,51.3 h 11.3 l 4,-17 c 0.8,-3.4 1.6,-6.7 1.6,-6.7 h 0.1 0.1 c 0,0 0.7,3.3 1.6,6.7 l 4,17 H 43.8 L 52,20.6 v 0 h 0.1 c 0,0 -0.1,1.2 -0.1,2.9 v 27.8 h 12.6 c 12.1,0 18.8,-5.5 20.7,-13.5 h 0.1 c 0,0.1 0,1.2 0,1.2 v 12.2 h 10.2 v -13 h 0.8 c 1.2,0 4.1,-0.1 5.7,2.5 l 6.3,10.5 h 11 z"
   id="path10" />
		</g>
	</g>
</g>
</svg>
