<?xml version="1.0" encoding="UTF-8" standalone="no"?>
<svg
   version="1.1"
   id="Ebene_2"
   x="0px"
   y="0px"
   xml:space="preserve"
   viewBox="0.1 0 170.03 170.03"
   sodipodi:docname="wdr5.svg"
   width="170.03"
   height="170.03"
   inkscape:version="1.2.2 (b0a8486541, 2022-12-01)"
   xmlns:inkscape="http://www.inkscape.org/namespaces/inkscape"
   xmlns:sodipodi="http://sodipodi.sourceforge.net/DTD/sodipodi-0.dtd"
   xmlns="http://www.w3.org/2000/svg"
   xmlns:svg="http://www.w3.org/2000/svg"><defs
   id="defs21" /><sodipodi:namedview
   id="namedview19"
   pagecolor="#ffffff"
   bordercolor="#000000"
   borderopacity="0.25"
   inkscape:showpageshadow="2"
   inkscape:pageopacity="0.0"
   inkscape:pagecheckerboard="0"
   inkscape:deskcolor="#d1d1d1"
   showgrid="false"
   inkscape:zoom="7.8927249"
   inkscape:cx="76.46282"
   inkscape:cy="33.95532"
   inkscape:window-width="2560"
   inkscape:window-height="1377"
   inkscape:window-x="-8"
   inkscape:window-y="-8"
   inkscape:window-maximized="1"
   inkscape:current-layer="Ebene_2" />
<style
   type="text/css"
   id="style2">
<![CDATA[
	.st0{fill:#17365B;}
	.st1{fill:#FFFFFF;}
	.st2{fill:#6EB033;}
]]>
</style><style
   class="darkreader darkreader--sync"
   media="screen"
   id="style4" />
<rect
   style="fill:#ffffff;stroke:#ffffff;stroke-width:67.8221"
   id="rect356"
   width="102.20797"
   height="0.17792906"
   x="34.011013"
   y="84.926033" /><g
   id="g16"
   transform="translate(0,51.014999)">
	<g
   id="Logo_2_">
		<g
   id="Logo_1_">
			<g
   id="g12">
				<polygon
   class="st2"
   points="117.2,68 135.8,0 170.1,0 151.7,68 "
   id="polygon6" />
				<path
   class="st0"
   d="m 100.9,30.5 h -5.6 v -8.3 h 5.3 c 3.5,0 4.9,1.4 4.9,4.2 -0.1,2.5 -1.6,4.1 -4.6,4.1 M 65.2,43 H 62.1 V 22.7 h 2.8 c 6.8,0 9.8,3 9.8,9.9 0,6.8 -3.1,10.4 -9.5,10.4 m 48,-1.2 c -1.9,-3.2 -3.4,-5 -4.7,-5.8 v -0.1 c 3.4,-1.2 7.2,-4.2 7.2,-10.2 0,-7.5 -5.3,-11.3 -14.8,-11.3 h -16 V 26 c 0,0 0,1.1 0,1.2 H 84.8 C 82.9,19.4 76.3,14.3 64.5,14.3 H 42 l -3.4,15.1 c -0.7,3.1 -1.3,7.1 -1.3,7.1 v 0 c 0,0 -0.8,-4.4 -1.5,-7.5 l -3,-14.7 H 20.5 L 17.6,29 c -0.7,3.1 -1.5,7.5 -1.5,7.5 H 16 c 0,0 -0.6,-4 -1.3,-7.1 L 11.2,14.3 H 0.1 l 9.9,37 h 11.3 l 4.1,-17 C 26.3,30.9 27,27.6 27,27.6 h 0.1 v 0 c 0,0 0.7,3.3 1.6,6.7 l 4.1,17 h 11.1 l 8.2,-30.7 v 0 0 c 0,0 -0.1,1.2 -0.1,2.9 v 27.8 h 12.6 c 12.1,0 18.7,-5.6 20.7,-13.5 h 0.1 c 0,0.1 0,1.2 0,1.2 v 12.3 h 10.2 v -13 h 0.8 c 1.2,0 4.1,-0.1 5.7,2.5 l 6.3,10.6 h 11 z"
   id="path8" />
				<path
   class="st1"
   d="m 136.7,39.7 1,-5.4 c 0.5,0.2 2.6,0.6 4.2,0.6 2.8,0 4.9,-1 4.9,-3.4 0,-2.5 -2.4,-3.3 -5.9,-3.3 -1.3,0 -2.8,0.2 -3.3,0.3 l 0.8,-14.2 h 14.7 v 5.4 h -8.5 l -0.2,3.5 c 5.3,0.2 9.7,2.6 9.7,8 0,5.9 -4.9,9.2 -12.2,9.2 -2.5,-0.1 -4.7,-0.5 -5.2,-0.7"
   id="path10" />
			</g>
		</g>
	</g>
</g>
</svg>
